<svg width="642" height="469" viewBox="0 0 642 469" fill="none" xmlns="http://www.w3.org/2000/svg">
<line x1="83.9992" y1="138.779" x2="557.15" y2="137.883" stroke="#C6C4C4" stroke-opacity="0.68" stroke-width="0.887713"/>
<path d="M240.565 100.828V116.828H237.182V100.828H240.565ZM256.731 100.828V116.828H253.809L246.848 106.758H246.731V116.828H243.348V100.828H246.317L253.223 110.891H253.364V100.828H256.731ZM262.909 100.828V116.828H259.526V100.828H262.909ZM279.809 106.43H276.387C276.325 105.987 276.197 105.594 276.004 105.25C275.812 104.901 275.564 104.605 275.262 104.36C274.96 104.115 274.611 103.927 274.215 103.797C273.825 103.667 273.4 103.602 272.942 103.602C272.114 103.602 271.392 103.808 270.778 104.219C270.163 104.625 269.687 105.219 269.348 106C269.01 106.776 268.84 107.719 268.84 108.828C268.84 109.969 269.01 110.927 269.348 111.703C269.692 112.48 270.171 113.065 270.786 113.461C271.4 113.857 272.111 114.055 272.918 114.055C273.372 114.055 273.791 113.995 274.176 113.875C274.567 113.756 274.913 113.581 275.215 113.352C275.517 113.118 275.767 112.834 275.965 112.5C276.168 112.167 276.309 111.787 276.387 111.36L279.809 111.375C279.721 112.11 279.499 112.818 279.145 113.5C278.796 114.177 278.325 114.784 277.731 115.321C277.142 115.852 276.439 116.274 275.622 116.586C274.809 116.894 273.89 117.047 272.864 117.047C271.437 117.047 270.161 116.724 269.036 116.078C267.916 115.433 267.03 114.498 266.379 113.274C265.734 112.05 265.411 110.568 265.411 108.828C265.411 107.084 265.739 105.599 266.395 104.375C267.051 103.151 267.942 102.219 269.067 101.578C270.192 100.933 271.458 100.61 272.864 100.61C273.791 100.61 274.65 100.74 275.442 101C276.239 101.261 276.944 101.641 277.559 102.141C278.174 102.636 278.674 103.243 279.059 103.961C279.45 104.68 279.7 105.503 279.809 106.43ZM285.618 100.828V116.828H282.235V100.828H285.618ZM291.159 116.828H287.534L293.057 100.828H297.417L302.932 116.828H299.307L295.299 104.485H295.174L291.159 116.828ZM290.932 110.539H299.495V113.18H290.932V110.539ZM304.858 116.828V100.828H311.17C312.379 100.828 313.41 101.045 314.264 101.477C315.124 101.904 315.777 102.511 316.225 103.297C316.678 104.078 316.905 104.998 316.905 106.055C316.905 107.118 316.676 108.032 316.217 108.797C315.759 109.558 315.095 110.141 314.225 110.547C313.361 110.953 312.314 111.157 311.084 111.157H306.858V108.438H310.538C311.183 108.438 311.72 108.349 312.147 108.172C312.574 107.995 312.892 107.73 313.1 107.375C313.314 107.021 313.42 106.581 313.42 106.055C313.42 105.524 313.314 105.076 313.1 104.711C312.892 104.347 312.571 104.071 312.139 103.883C311.712 103.69 311.173 103.594 310.522 103.594H308.241V116.828H304.858ZM313.499 109.547L317.475 116.828H313.741L309.85 109.547H313.499ZM333.067 105.43C333.004 104.8 332.736 104.31 332.262 103.961C331.788 103.612 331.145 103.438 330.333 103.438C329.78 103.438 329.314 103.516 328.934 103.672C328.554 103.823 328.262 104.034 328.059 104.305C327.861 104.576 327.762 104.883 327.762 105.227C327.752 105.513 327.812 105.763 327.942 105.977C328.077 106.19 328.262 106.375 328.497 106.532C328.731 106.683 329.002 106.815 329.309 106.93C329.616 107.039 329.944 107.133 330.293 107.211L331.731 107.555C332.429 107.711 333.069 107.92 333.653 108.18C334.236 108.44 334.741 108.761 335.168 109.141C335.596 109.521 335.926 109.969 336.161 110.485C336.4 111 336.523 111.592 336.528 112.258C336.523 113.237 336.273 114.086 335.778 114.805C335.288 115.519 334.58 116.073 333.653 116.469C332.731 116.86 331.619 117.055 330.317 117.055C329.025 117.055 327.9 116.857 326.942 116.461C325.989 116.065 325.244 115.48 324.708 114.703C324.176 113.922 323.898 112.956 323.872 111.805H327.145C327.181 112.342 327.335 112.789 327.606 113.149C327.882 113.503 328.249 113.771 328.708 113.953C329.171 114.131 329.694 114.219 330.278 114.219C330.851 114.219 331.348 114.136 331.77 113.969C332.197 113.802 332.528 113.571 332.762 113.274C332.997 112.977 333.114 112.636 333.114 112.25C333.114 111.891 333.007 111.589 332.793 111.344C332.585 111.099 332.278 110.891 331.872 110.719C331.471 110.547 330.978 110.391 330.395 110.25L328.653 109.813C327.304 109.485 326.239 108.972 325.458 108.274C324.676 107.576 324.288 106.636 324.293 105.453C324.288 104.485 324.546 103.638 325.067 102.914C325.593 102.19 326.314 101.625 327.231 101.219C328.148 100.813 329.189 100.61 330.356 100.61C331.543 100.61 332.58 100.813 333.465 101.219C334.356 101.625 335.049 102.19 335.543 102.914C336.038 103.638 336.293 104.477 336.309 105.43H333.067ZM338.803 116.828V100.828H349.584V103.618H342.186V107.43H349.03V110.219H342.186V114.039H349.616V116.828H338.803ZM360.954 105.43C360.891 104.8 360.623 104.31 360.149 103.961C359.675 103.612 359.032 103.438 358.219 103.438C357.667 103.438 357.201 103.516 356.821 103.672C356.441 103.823 356.149 104.034 355.946 104.305C355.748 104.576 355.649 104.883 355.649 105.227C355.639 105.513 355.698 105.763 355.829 105.977C355.964 106.19 356.149 106.375 356.383 106.532C356.618 106.683 356.889 106.815 357.196 106.93C357.503 107.039 357.831 107.133 358.18 107.211L359.618 107.555C360.316 107.711 360.956 107.92 361.54 108.18C362.123 108.44 362.628 108.761 363.055 109.141C363.482 109.521 363.813 109.969 364.047 110.485C364.287 111 364.409 111.592 364.415 112.258C364.409 113.237 364.159 114.086 363.665 114.805C363.175 115.519 362.467 116.073 361.54 116.469C360.618 116.86 359.506 117.055 358.204 117.055C356.912 117.055 355.787 116.857 354.829 116.461C353.875 116.065 353.131 115.48 352.594 114.703C352.063 113.922 351.784 112.956 351.758 111.805H355.032C355.068 112.342 355.222 112.789 355.493 113.149C355.769 113.503 356.136 113.771 356.594 113.953C357.058 114.131 357.581 114.219 358.165 114.219C358.737 114.219 359.235 114.136 359.657 113.969C360.084 113.802 360.415 113.571 360.649 113.274C360.883 112.977 361 112.636 361 112.25C361 111.891 360.894 111.589 360.68 111.344C360.472 111.099 360.165 110.891 359.758 110.719C359.357 110.547 358.865 110.391 358.282 110.25L356.54 109.813C355.191 109.485 354.125 108.972 353.344 108.274C352.563 107.576 352.175 106.636 352.18 105.453C352.175 104.485 352.433 103.638 352.954 102.914C353.48 102.19 354.201 101.625 355.118 101.219C356.034 100.813 357.076 100.61 358.243 100.61C359.43 100.61 360.467 100.813 361.352 101.219C362.243 101.625 362.935 102.19 363.43 102.914C363.925 103.638 364.18 104.477 364.196 105.43H360.954ZM370.073 100.828V116.828H366.69V100.828H370.073ZM387.559 108.828C387.559 110.573 387.228 112.058 386.567 113.282C385.911 114.506 385.015 115.44 383.879 116.086C382.749 116.727 381.478 117.047 380.067 117.047C378.645 117.047 377.369 116.724 376.239 116.078C375.109 115.433 374.215 114.498 373.559 113.274C372.903 112.05 372.575 110.568 372.575 108.828C372.575 107.084 372.903 105.599 373.559 104.375C374.215 103.151 375.109 102.219 376.239 101.578C377.369 100.933 378.645 100.61 380.067 100.61C381.478 100.61 382.749 100.933 383.879 101.578C385.015 102.219 385.911 103.151 386.567 104.375C387.228 105.599 387.559 107.084 387.559 108.828ZM384.129 108.828C384.129 107.698 383.96 106.745 383.622 105.969C383.288 105.193 382.817 104.605 382.208 104.203C381.598 103.802 380.885 103.602 380.067 103.602C379.249 103.602 378.536 103.802 377.926 104.203C377.317 104.605 376.843 105.193 376.504 105.969C376.171 106.745 376.004 107.698 376.004 108.828C376.004 109.959 376.171 110.912 376.504 111.688C376.843 112.464 377.317 113.052 377.926 113.453C378.536 113.855 379.249 114.055 380.067 114.055C380.885 114.055 381.598 113.855 382.208 113.453C382.817 113.052 383.288 112.464 383.622 111.688C383.96 110.912 384.129 109.959 384.129 108.828ZM378.872 99.2816L380.528 95.7269H383.606L381.223 99.2816H378.872ZM403.448 100.828V116.828H400.526L393.565 106.758H393.448V116.828H390.065V100.828H393.034L399.94 110.891H400.081V100.828H403.448Z" fill="black"/>
<line x1="113.295" y1="266.601" x2="527.856" y2="266.601" stroke="black" stroke-width="0.887713"/>
<g filter="url(#filter0_d_78_3986)">
<g filter="url(#filter1_d_78_3986)">
<rect x="6" y="1" width="630" height="457" rx="20" fill="#E6E0F2"/>
</g>
<path d="M6 23C6 11.9543 14.9543 3 26 3H616C627.046 3 636 11.9543 636 23V78H6V23Z" fill="#26036E"/>
</g>
<defs>
<filter id="filter0_d_78_3986" x="0" y="0" width="642" height="469" filterUnits="userSpaceOnUse" color-interpolation-filters="sRGB">
<feFlood flood-opacity="0" result="BackgroundImageFix"/>
<feColorMatrix in="SourceAlpha" type="matrix" values="0 0 0 0 0 0 0 0 0 0 0 0 0 0 0 0 0 0 127 0" result="hardAlpha"/>
<feOffset dy="5"/>
<feGaussianBlur stdDeviation="3"/>
<feComposite in2="hardAlpha" operator="out"/>
<feColorMatrix type="matrix" values="0 0 0 0 0 0 0 0 0 0 0 0 0 0 0 0 0 0 0.25 0"/>
<feBlend mode="normal" in2="BackgroundImageFix" result="effect1_dropShadow_78_3986"/>
<feBlend mode="normal" in="SourceGraphic" in2="effect1_dropShadow_78_3986" result="shape"/>
</filter>
<filter id="filter1_d_78_3986" x="4.22457" y="1" width="633.551" height="460.551" filterUnits="userSpaceOnUse" color-interpolation-filters="sRGB">
<feFlood flood-opacity="0" result="BackgroundImageFix"/>
<feColorMatrix in="SourceAlpha" type="matrix" values="0 0 0 0 0 0 0 0 0 0 0 0 0 0 0 0 0 0 127 0" result="hardAlpha"/>
<feOffset dy="1.77543"/>
<feGaussianBlur stdDeviation="0.887713"/>
<feComposite in2="hardAlpha" operator="out"/>
<feColorMatrix type="matrix" values="0 0 0 0 0 0 0 0 0 0 0 0 0 0 0 0 0 0 0.25 0"/>
<feBlend mode="normal" in2="BackgroundImageFix" result="effect1_dropShadow_78_3986"/>
<feBlend mode="normal" in="SourceGraphic" in2="effect1_dropShadow_78_3986" result="shape"/>
</filter>
</defs>
</svg>
