<svg width="1440" height="1024" viewBox="0 0 1440 1024" fill="none" xmlns="http://www.w3.org/2000/svg">
<path fill-rule="evenodd" clip-rule="evenodd" d="M241.445 1049.18C144.981 936.883 84.5715 889.824 117.278 745.618C150.587 598.758 341.681 561.412 467.673 479.321C556.262 421.599 649.359 387.18 742.938 337.96C883.814 263.862 995.312 102.199 1153.8 118.432C1317.35 135.182 1458.65 337.96 1458.65 337.96L1458.65 1049.18L879.458 1049.18L241.445 1049.18Z" fill="#6889FF"/>
<path d="M312.177 778.103C212.168 837.004 10.6809 975.823 -21 1037.87H1439.42V371.463C1353.79 276.919 1201.38 207.976 1135.88 185.321C786.191 44.8661 613.431 278.832 570.761 413.373C526.237 510.408 412.186 719.203 312.177 778.103Z" fill="#DAE2FE"/>
</svg>
