<svg width="1440" height="1024" viewBox="0 0 1440 1024" fill="none" xmlns="http://www.w3.org/2000/svg">
<path fill-rule="evenodd" clip-rule="evenodd" d="M241.445 1035.18C144.981 922.883 84.5715 875.824 117.278 731.618C150.587 584.758 341.681 547.412 467.673 465.321C556.262 407.599 649.359 373.18 742.938 323.96C883.814 249.862 995.312 88.1985 1153.8 104.432C1317.35 121.182 1458.65 323.96 1458.65 323.96L1458.65 1035.18L879.458 1035.18L241.445 1035.18Z" fill="#6889FF"/>
<path d="M312.177 764.103C212.168 823.004 10.6809 961.823 -21 1023.87H1439.42V357.463C1353.79 262.919 1201.38 193.976 1135.88 171.321C786.191 30.8661 613.431 264.832 570.761 399.373C526.237 496.408 412.186 705.203 312.177 764.103Z" fill="#DAE2FE"/>
</svg>
