<svg width="9" height="10" viewBox="0 0 9 10" fill="none" xmlns="http://www.w3.org/2000/svg">
<path d="M1.42105 8H2.36842V9H8.05263V1H2.36842V2H1.42105V0.5C1.42105 0.367392 1.47096 0.240215 1.55979 0.146447C1.64862 0.0526784 1.76911 0 1.89474 0H8.52632C8.65194 0 8.77243 0.0526784 8.86126 0.146447C8.95009 0.240215 9 0.367392 9 0.5V9.5C9 9.63261 8.95009 9.75979 8.86126 9.85355C8.77243 9.94732 8.65194 10 8.52632 10H1.89474C1.76911 10 1.64862 9.94732 1.55979 9.85355C1.47096 9.75979 1.42105 9.63261 1.42105 9.5V8ZM2.36842 4.5H5.68421V5.5H2.36842V7L0 5L2.36842 3V4.5Z" fill="#6928F3"/>
</svg>
