<svg width="701" height="526" viewBox="0 0 701 526" fill="none" xmlns="http://www.w3.org/2000/svg">
<g opacity="0.3">
<mask id="mask0_78_5133" style="mask-type:luminance" maskUnits="userSpaceOnUse" x="0" y="0" width="701" height="526">
<rect width="700.333" height="525.25" fill="white"/>
</mask>
<g mask="url(#mask0_78_5133)">
<path d="M352.983 138.256C345.573 130.846 345.573 118.833 352.983 111.423L379.816 138.256C372.406 145.666 360.392 145.666 352.983 138.256Z" fill="#FFC562"/>
<mask id="mask1_78_5133" style="mask-type:luminance" maskUnits="userSpaceOnUse" x="347" y="111" width="33" height="33">
<path fill-rule="evenodd" clip-rule="evenodd" d="M352.983 138.256C345.573 130.846 345.573 118.833 352.983 111.423L379.816 138.256C372.406 145.666 360.392 145.666 352.983 138.256Z" fill="white"/>
</mask>
<g mask="url(#mask1_78_5133)">
<path d="M352.983 111.423C347.993 112.738 372.624 140.854 373.413 155.526C374.201 170.197 392.045 148.388 392.045 148.388L371.822 113.494" fill="#D89D35"/>
</g>
<rect x="533.058" y="173.955" width="10.2136" height="166.321" transform="rotate(135 533.058 173.955)" fill="#EFF3FC"/>
<mask id="mask2_78_5133" style="mask-type:luminance" maskUnits="userSpaceOnUse" x="408" y="56" width="126" height="126">
<rect x="533.058" y="173.955" width="10.2136" height="166.321" transform="rotate(135 533.058 173.955)" fill="white"/>
</mask>
<g mask="url(#mask2_78_5133)">
<path d="M460.247 143.813C433.312 74.2094 448.744 66.1748 448.744 66.1748L403.147 81.3755L415.043 127.618" fill="#D6DCF2"/>
</g>
<rect x="536.211" y="182.04" width="10.2136" height="178.488" transform="rotate(23.1797 536.211 182.04)" fill="#EFF3FC"/>
<mask id="mask3_78_5133" style="mask-type:luminance" maskUnits="userSpaceOnUse" x="465" y="182" width="81" height="169">
<rect x="536.21" y="182.04" width="10.2136" height="178.488" transform="rotate(23.1797 536.21 182.04)" fill="white"/>
</mask>
<g mask="url(#mask3_78_5133)">
<path d="M524.354 189.993C509.34 206.785 543.797 203.843 528.669 247.545C513.542 291.248 560.606 181.177 560.606 181.177L539.913 169.806" fill="#D6DCF2"/>
</g>
<circle cx="539.913" cy="188.033" r="15.6966" fill="#BB393C"/>
<circle cx="539.914" cy="188.033" r="6.85591" fill="#EFF3FC"/>
<path d="M556.475 359.305H393.082V358.43C393.082 350.354 399.63 343.806 407.707 343.806H541.851C549.927 343.806 556.475 350.354 556.475 358.43V359.305H556.475Z" fill="#BB393C"/>
<mask id="mask4_78_5133" style="mask-type:luminance" maskUnits="userSpaceOnUse" x="393" y="343" width="164" height="17">
<path fill-rule="evenodd" clip-rule="evenodd" d="M556.475 359.306H393.082V358.431C393.082 350.354 399.63 343.806 407.706 343.806H541.851C549.927 343.806 556.475 350.354 556.475 358.431V359.306H556.475Z" fill="white"/>
</mask>
<g mask="url(#mask4_78_5133)">
<path d="M394.423 344.47C386.691 366.478 557.99 353.392 563.938 359.935C569.886 366.478 383.122 377.184 383.122 377.184" fill="#90282A"/>
</g>
<path d="M410.556 113.799L377.439 80.6823L408.782 49.3398C413.173 44.9483 419.13 42.4812 425.34 42.4812C431.551 42.4812 437.507 44.9483 441.898 49.3399C451.043 58.4848 451.043 73.3116 441.898 82.4564L410.556 113.799L410.556 113.799Z" fill="#BB393C"/>
<mask id="mask5_78_5133" style="mask-type:luminance" maskUnits="userSpaceOnUse" x="377" y="42" width="72" height="72">
<path fill-rule="evenodd" clip-rule="evenodd" d="M410.557 113.799L377.44 80.6822L408.782 49.3397C413.174 44.9482 419.13 42.481 425.341 42.4811C431.551 42.4811 437.508 44.9482 441.899 49.3398C451.044 58.4846 451.044 73.3114 441.899 82.4563L410.557 113.799L410.557 113.799Z" fill="white"/>
</mask>
<g mask="url(#mask5_78_5133)">
<path d="M371.93 58.577C428.799 78.0591 430.301 96.2228 452.713 81.3753C475.124 66.5277 431.916 117.826 431.916 117.826H403.026L381.735 66.8534" fill="#771D22"/>
</g>
<path d="M412.331 78.9083C439.439 106.016 439.439 149.967 412.331 177.075L314.163 78.9084C341.272 51.8003 385.223 51.8003 412.331 78.9083Z" fill="#BB393C"/>
<mask id="mask6_78_5133" style="mask-type:luminance" maskUnits="userSpaceOnUse" x="314" y="58" width="119" height="120">
<path fill-rule="evenodd" clip-rule="evenodd" d="M412.331 78.9083C439.439 106.016 439.439 149.967 412.331 177.075L314.163 78.9084C341.272 51.8003 385.223 51.8003 412.331 78.9083Z" fill="white"/>
</mask>
<g mask="url(#mask6_78_5133)">
<path d="M417.949 78.9462C448.97 145.574 369.97 209.446 369.97 209.446H432.662L452.892 140.531L442.247 104.113" fill="#90282A"/>
<path d="M316.042 67.2739L437.904 188.033H363.621L302.175 78.9464L314.164 62.2313" fill="#EFF3FC"/>
</g>
<path d="M393.201 99.6751L390.822 109.192C390.662 109.834 391.029 110.596 391.707 110.751C392.364 110.9 393.095 110.554 393.267 109.866L395.646 100.349C395.806 99.7068 395.439 98.9443 394.761 98.7898C394.104 98.6403 393.373 98.987 393.201 99.6751Z" fill="#90282A"/>
<path d="M529.338 349.213L525.798 351.053C525.198 351.409 524.996 352.182 525.344 352.787C525.707 353.378 526.471 353.579 527.078 353.242L530.618 351.402C531.218 351.045 531.42 350.273 531.072 349.668C530.709 349.077 529.945 348.876 529.338 349.213Z" fill="#90282A"/>
<path d="M279.049 411.013C306.053 346.843 284.498 232.249 231.575 282.682C231.575 282.682 248.273 189.162 187.232 233.975C187.232 233.975 174.528 160.79 139.821 219.4C139.821 219.4 103.455 169.035 84.166 191.629C63.4224 215.927 109.031 249.698 109.031 249.698C109.031 249.698 64.8195 287.353 123.607 300.351C123.607 300.351 85.7077 346.238 153.935 351.766C153.935 351.766 113.491 423.541 222.15 418.998C279.009 416.62 279.049 411.013 279.049 411.013Z" fill="#97CC64"/>
<mask id="mask7_78_5133" style="mask-type:luminance" maskUnits="userSpaceOnUse" x="78" y="185" width="213" height="235">
<path fill-rule="evenodd" clip-rule="evenodd" d="M279.049 411.013C306.053 346.843 284.498 232.249 231.575 282.682C231.575 282.682 248.273 189.162 187.232 233.975C187.232 233.975 174.528 160.79 139.821 219.4C139.821 219.4 103.455 169.035 84.166 191.629C63.4224 215.927 109.031 249.698 109.031 249.698C109.031 249.698 64.8195 287.353 123.607 300.351C123.607 300.351 85.7077 346.238 153.935 351.766C153.935 351.766 113.491 423.541 222.15 418.998C279.009 416.62 279.049 411.013 279.049 411.013Z" fill="white"/>
</mask>
<g mask="url(#mask7_78_5133)">
<path d="M-127.166 365.696C-130.59 257.346 -65.8446 227.919 -24.313 318.418C17.2187 408.918 -1.97878 281.611 2.54123 249.101C2.54123 249.101 21.2575 399.82 55.8147 278.034C90.372 156.249 63.114 313.498 132.687 292.942C202.26 272.386 74.3402 461.601 68.4045 469.206C62.4687 476.812 -104.349 383.504 -104.349 383.504" fill="#75AA3C"/>
<path d="M286.292 419.102C207.663 308.254 290.477 250.074 360.112 321.25C429.746 392.426 368.715 279.065 361.999 246.936C361.999 246.936 430.478 382.499 421.912 256.196C413.346 129.893 440.75 287.116 499.306 244.289C557.862 201.461 501.295 422.744 498.274 431.906C495.253 441.069 306.733 409.526 306.733 409.526" fill="#75AA3C"/>
</g>
<path d="M99.956 215.196C114.32 223.937 273.635 396.859 279.049 411.013C279.049 411.013 123.572 237.553 99.956 215.196Z" fill="#75AA3C"/>
<path d="M105.062 278.374C131.603 279.933 141.803 276.185 141.803 276.185L105.062 278.374Z" fill="#75AA3C"/>
<path d="M156.946 216.661C156.62 243.246 160.837 253.261 160.837 253.261L156.946 216.661Z" fill="#75AA3C"/>
<path d="M124.192 330.125C164.402 321.478 178.088 312.248 178.088 312.248L124.192 330.125Z" fill="#75AA3C"/>
<path d="M168.462 379.672C208.672 371.025 222.358 361.794 222.358 361.794L168.462 379.672Z" fill="#75AA3C"/>
<path d="M197.577 290.415L209.934 239.479C196.431 274.68 197.577 290.415 197.577 290.415Z" fill="#75AA3C"/>
<path d="M237.529 340.689L249.886 289.753C236.383 324.954 237.529 340.689 237.529 340.689Z" fill="#75AA3C"/>
<path d="M219.975 389.267C222.438 389.282 224.849 388.568 226.908 387.217C227.322 386.943 227.538 386.365 227.249 385.916C226.983 385.503 226.392 385.282 225.948 385.575C225.484 385.883 224.999 386.158 224.495 386.396C224.427 386.428 224.358 386.46 224.288 386.491C224.264 386.501 224.068 386.587 224.193 386.534C224.317 386.48 224.12 386.563 224.096 386.573C224.025 386.601 223.955 386.628 223.884 386.655C223.623 386.754 223.36 386.843 223.092 386.922C222.558 387.079 222.014 387.199 221.463 387.282C221.277 387.311 221.573 387.271 221.452 387.283C221.389 387.289 221.327 387.298 221.264 387.304C221.125 387.319 220.987 387.331 220.848 387.34C220.557 387.36 220.266 387.368 219.975 387.366C219.455 387.373 219.037 387.797 219.037 388.317C219.037 388.837 219.455 389.26 219.975 389.267H219.975Z" fill="#75AA3C"/>
<path d="M218.584 311.894L219.564 301.138L219.841 298.101C219.886 297.605 219.371 297.129 218.89 297.151C218.371 297.164 217.953 297.582 217.94 298.101L216.959 308.858L216.683 311.894C216.637 312.391 217.152 312.867 217.633 312.845C218.153 312.832 218.571 312.414 218.584 311.894Z" fill="#75AA3C"/>
<path d="M119.041 263.275C119.305 263.288 119.569 263.307 119.832 263.334C119.964 263.347 120.095 263.362 120.227 263.378C120.492 263.411 120.024 263.347 120.288 263.387C120.341 263.395 120.393 263.403 120.445 263.411C120.981 263.495 121.512 263.606 122.037 263.744C122.549 263.878 123.053 264.038 123.549 264.223C123.673 264.269 123.797 264.316 123.92 264.366C123.981 264.39 124.043 264.413 124.103 264.441C123.982 264.385 124.05 264.418 124.132 264.454C124.386 264.565 124.638 264.683 124.886 264.807C125.331 265.029 125.936 264.941 126.187 264.466C126.414 264.036 126.321 263.402 125.846 263.165C123.725 262.107 121.408 261.496 119.041 261.373C118.517 261.377 118.094 261.8 118.09 262.324C118.102 262.844 118.521 263.263 119.041 263.275V263.275Z" fill="#75AA3C"/>
<path d="M226.772 177.975H384.826C392.157 177.975 399.189 180.887 404.373 186.072C409.557 191.256 412.47 198.287 412.47 205.619V379.395H199.128V205.619C199.128 190.352 211.504 177.975 226.772 177.975Z" fill="#516DDB"/>
<path d="M199.233 177.975H357.287C372.554 177.975 384.931 190.352 384.931 205.619V379.395H171.589V205.619C171.589 198.287 174.501 191.256 179.686 186.072C184.87 180.887 191.901 177.975 199.233 177.975Z" fill="#589BF7"/>
<mask id="mask8_78_5133" style="mask-type:luminance" maskUnits="userSpaceOnUse" x="171" y="177" width="214" height="203">
<path fill-rule="evenodd" clip-rule="evenodd" d="M199.233 177.975H357.287C372.554 177.975 384.931 190.352 384.931 205.619V379.395H171.589V205.619C171.589 198.287 174.501 191.256 179.686 186.072C184.87 180.887 191.901 177.975 199.233 177.975Z" fill="white"/>
</mask>
<g mask="url(#mask8_78_5133)">
<path d="M157.145 304.83C145.418 391.745 326.659 366.068 349.888 379.395C373.117 392.722 177.667 404.449 177.667 404.449L142.486 379.395" fill="#2976DF"/>
</g>
<rect x="182.592" y="206.934" width="191.336" height="24.3808" rx="12.1904" fill="#2976DF"/>
<circle cx="210.569" cy="187.677" r="5.47685" fill="#516DDB"/>
<path d="M211.867 185.452C211.693 185.463 211.517 185.468 211.339 185.468C208.016 185.468 205.021 183.467 203.749 180.397C202.478 177.328 203.181 173.794 205.53 171.445C207.88 169.095 211.413 168.392 214.483 169.664C217.552 170.935 219.554 173.931 219.554 177.253C219.554 177.494 219.543 177.735 219.522 177.975H223.342C223.357 177.734 223.367 177.494 223.367 177.253C223.367 172.389 220.436 168.003 215.942 166.141C211.447 164.28 206.274 165.309 202.834 168.749C199.394 172.189 198.365 177.362 200.227 181.856C202.089 186.351 206.474 189.281 211.339 189.281C211.596 189.281 211.855 189.273 212.109 189.257C212.79 189.215 213.397 188.813 213.701 188.202C214.004 187.591 213.958 186.864 213.58 186.297C213.201 185.729 212.548 185.407 211.867 185.452L211.867 185.452Z" fill="#FFC562"/>
<circle cx="255.183" cy="187.677" r="5.47685" fill="#516DDB"/>
<path d="M256.481 185.452C256.307 185.463 256.131 185.468 255.953 185.468C252.63 185.468 249.635 183.467 248.363 180.397C247.092 177.328 247.795 173.794 250.144 171.445C252.493 169.095 256.027 168.392 259.097 169.664C262.166 170.935 264.168 173.931 264.168 177.253C264.168 177.494 264.157 177.735 264.136 177.975H267.956C267.971 177.734 267.98 177.494 267.98 177.253C267.98 172.389 265.05 168.003 260.556 166.141C256.061 164.28 250.888 165.309 247.448 168.749C244.008 172.189 242.979 177.362 244.841 181.856C246.703 186.351 251.088 189.281 255.953 189.281C256.209 189.281 256.469 189.273 256.723 189.257C257.771 189.187 258.566 188.282 258.499 187.234C258.433 186.185 257.53 185.388 256.481 185.452L256.481 185.452Z" fill="#FFC562"/>
<circle cx="299.797" cy="187.677" r="5.47685" fill="#516DDB"/>
<path d="M301.095 185.452C300.921 185.463 300.744 185.468 300.567 185.468C297.244 185.468 294.249 183.467 292.977 180.397C291.706 177.328 292.408 173.794 294.758 171.445C297.107 169.095 300.641 168.392 303.71 169.664C306.78 170.935 308.782 173.931 308.782 177.253C308.782 177.494 308.771 177.735 308.75 177.975H312.57C312.584 177.734 312.594 177.494 312.594 177.253C312.594 172.389 309.664 168.003 305.169 166.141C300.675 164.28 295.502 165.309 292.062 168.749C288.622 172.189 287.593 177.362 289.455 181.856C291.316 186.351 295.702 189.281 300.567 189.281C300.823 189.281 301.082 189.273 301.337 189.257C302.385 189.187 303.18 188.282 303.113 187.234C303.047 186.185 302.144 185.388 301.095 185.452L301.095 185.452Z" fill="#FFC562"/>
<circle cx="344.411" cy="187.677" r="5.47685" fill="#516DDB"/>
<path d="M345.709 185.452C345.534 185.463 345.358 185.468 345.181 185.468C341.858 185.468 338.863 183.467 337.591 180.397C336.32 177.328 337.022 173.794 339.372 171.445C341.721 169.095 345.255 168.392 348.324 169.664C351.394 170.935 353.396 173.931 353.396 177.253C353.396 177.494 353.385 177.735 353.364 177.975H357.184C357.198 177.734 357.208 177.494 357.208 177.253C357.208 172.389 354.278 168.003 349.783 166.141C345.289 164.28 340.116 165.309 336.676 168.749C333.236 172.189 332.207 177.362 334.069 181.856C335.93 186.351 340.316 189.281 345.181 189.281C345.437 189.281 345.696 189.273 345.951 189.257C346.999 189.187 347.794 188.282 347.727 187.234C347.661 186.185 346.758 185.388 345.709 185.452L345.709 185.452Z" fill="#FFC562"/>
<rect x="182.588" y="240.248" width="16.4879" height="16.4879" rx="8.24396" fill="#EFF3FC"/>
<rect x="211.691" y="240.248" width="16.4879" height="16.4879" rx="8.24396" fill="#EFF3FC"/>
<rect x="240.795" y="240.248" width="16.4879" height="16.4879" rx="8.24396" fill="#EFF3FC"/>
<rect x="269.898" y="240.248" width="16.4879" height="16.4879" rx="8.24396" fill="#EFF3FC"/>
<rect x="299.001" y="240.248" width="16.4879" height="16.4879" rx="8.24396" fill="#EFF3FC"/>
<rect x="328.105" y="240.248" width="16.4879" height="16.4879" rx="8.24396" fill="#EFF3FC"/>
<rect x="357.208" y="240.248" width="16.4879" height="16.4879" rx="8.24396" fill="#EFF3FC"/>
<rect x="182.588" y="263.97" width="16.4879" height="12.9262" fill="#EFF3FC"/>
<rect x="211.691" y="263.97" width="16.4879" height="12.9262" fill="#EFF3FC"/>
<rect x="240.795" y="263.97" width="16.4879" height="12.9262" fill="#EFF3FC"/>
<rect x="269.898" y="263.97" width="16.4879" height="12.9262" fill="#EFF3FC"/>
<rect x="299.001" y="263.97" width="16.4879" height="12.9262" fill="#EFF3FC"/>
<rect x="328.105" y="263.97" width="16.4879" height="12.9262" fill="#EFF3FC"/>
<rect x="357.208" y="263.97" width="16.4879" height="12.9262" fill="#EFF3FC"/>
<rect x="182.588" y="284.4" width="16.4879" height="12.9262" fill="#EFF3FC"/>
<rect x="211.691" y="284.4" width="16.4879" height="12.9262" fill="#EFF3FC"/>
<rect x="269.898" y="284.4" width="16.4879" height="12.9262" fill="#EFF3FC"/>
<rect x="299.001" y="284.4" width="16.4879" height="12.9262" fill="#EFF3FC"/>
<rect x="357.208" y="284.4" width="16.4879" height="12.9262" fill="#EFF3FC"/>
<rect x="182.588" y="304.83" width="16.4879" height="12.9262" fill="#EFF3FC"/>
<rect x="211.691" y="304.83" width="16.4879" height="12.9262" fill="#EFF3FC"/>
<rect x="240.795" y="304.83" width="16.4879" height="12.9262" fill="#EFF3FC"/>
<rect x="269.898" y="304.83" width="16.4879" height="12.9262" fill="#EFF3FC"/>
<rect x="299.001" y="304.83" width="16.4879" height="12.9262" fill="#EFF3FC"/>
<rect x="328.105" y="304.83" width="16.4879" height="12.9262" fill="#EFF3FC"/>
<rect x="357.208" y="304.83" width="16.4879" height="12.9262" fill="#EFF3FC"/>
<rect x="182.588" y="325.26" width="16.4879" height="12.9262" fill="#EFF3FC"/>
<rect x="211.691" y="325.26" width="16.4879" height="12.9262" fill="#EFF3FC"/>
<rect x="269.898" y="325.26" width="16.4879" height="12.9262" fill="#EFF3FC"/>
<rect x="328.105" y="325.26" width="16.4879" height="12.9262" fill="#EFF3FC"/>
<rect x="357.208" y="325.26" width="16.4879" height="12.9262" fill="#EFF3FC"/>
<rect x="182.588" y="345.69" width="16.4879" height="12.9262" fill="#EFF3FC"/>
<rect x="211.691" y="345.69" width="16.4879" height="12.9262" fill="#EFF3FC"/>
<rect x="240.795" y="345.69" width="16.4879" height="12.9262" fill="#EFF3FC"/>
<rect x="269.898" y="345.69" width="16.4879" height="12.9262" fill="#EFF3FC"/>
<rect x="299.001" y="345.69" width="16.4879" height="12.9262" fill="#EFF3FC"/>
<rect x="328.105" y="345.69" width="16.4879" height="12.9262" fill="#EFF3FC"/>
<rect x="357.208" y="345.69" width="16.4879" height="12.9262" fill="#EFF3FC"/>
<rect x="240.795" y="284.4" width="16.4879" height="12.9262" fill="#EFF3FC"/>
<rect x="328.105" y="284.4" width="16.4879" height="12.9262" fill="#EFF3FC"/>
<rect x="240.795" y="325.26" width="16.4879" height="12.9262" fill="#EFF3FC"/>
<rect x="299.001" y="325.26" width="16.4879" height="12.9262" fill="#EFF3FC"/>
<path d="M403.741 246.128L397.175 255.358L395.324 257.96C395.154 258.25 395.107 258.596 395.192 258.921C395.277 259.246 395.489 259.524 395.779 259.694C396.432 260.039 397.101 259.818 397.513 259.239L404.079 250.009L405.93 247.407C406.099 247.117 406.147 246.771 406.061 246.446C405.976 246.121 405.765 245.843 405.475 245.673C404.822 245.328 404.152 245.549 403.741 246.128H403.741Z" fill="#274B69"/>
<path d="M216.789 218.074H214.409C214.074 218.078 213.753 218.211 213.513 218.445C213.276 218.682 213.142 219.005 213.142 219.341C213.142 219.677 213.276 220 213.513 220.237C213.754 220.471 214.074 220.603 214.409 220.608H216.789C217.124 220.604 217.445 220.471 217.685 220.237C217.923 220 218.056 219.677 218.056 219.341C218.056 219.005 217.923 218.682 217.685 218.445C217.444 218.212 217.124 218.079 216.789 218.074V218.074Z" fill="#274B69"/>
<rect x="100.095" y="432.081" width="202.94" height="37.2284" fill="#FFC562"/>
<mask id="mask9_78_5133" style="mask-type:luminance" maskUnits="userSpaceOnUse" x="100" y="432" width="204" height="38">
<rect x="100.095" y="432.081" width="202.94" height="37.2284" fill="white"/>
</mask>
<g mask="url(#mask9_78_5133)">
<rect x="125.519" y="425.725" width="25.8782" height="48.5785" fill="#BB393C"/>
<path d="M177.016 430.284C168.408 438.033 320.741 445.792 323.465 462.929C326.189 480.065 313.69 417.837 313.69 417.837L293.84 419.349" fill="#D89D35"/>
</g>
<rect x="355.706" y="382.443" width="202.94" height="37.2284" transform="rotate(-180 355.706 382.443)" fill="#BB393C"/>
<mask id="mask10_78_5133" style="mask-type:luminance" maskUnits="userSpaceOnUse" x="152" y="345" width="204" height="38">
<rect x="355.706" y="382.443" width="202.94" height="37.2284" transform="rotate(-180 355.706 382.443)" fill="white"/>
</mask>
<g mask="url(#mask10_78_5133)">
<rect x="330.282" y="387.437" width="25.8782" height="48.5785" transform="rotate(-180 330.282 387.437)" fill="#90282A"/>
<rect x="297.751" y="387.437" width="4.84272" height="48.5785" transform="rotate(-180 297.751 387.437)" fill="#90282A"/>
<path d="M150.552 374.472C143.893 380.223 281.003 380.223 277.976 382.644C274.949 385.066 156 391.725 156 391.725L145.104 375.986" fill="#90282A"/>
</g>
<path d="M344.16 405.749H164.312C171.316 411.991 164.312 429.924 164.312 429.924H344.16C344.16 429.924 337.156 411.991 344.16 405.749Z" fill="#EFF3FC"/>
<mask id="mask11_78_5133" style="mask-type:luminance" maskUnits="userSpaceOnUse" x="164" y="405" width="181" height="25">
<path fill-rule="evenodd" clip-rule="evenodd" d="M344.16 405.749H164.312C171.316 411.991 164.312 429.924 164.312 429.924H344.16C344.16 429.924 337.156 411.991 344.16 405.749Z" fill="white"/>
</mask>
<g mask="url(#mask11_78_5133)">
<path d="M161.826 415.106L165.457 415.169L227.657 416.241L158.194 417.837" fill="#D6DCF2"/>
<path d="M372.12 422.036L368.489 421.973L306.29 420.901L375.752 419.305" fill="#D6DCF2"/>
</g>
<rect x="157.307" y="401.208" width="193.86" height="6.81006" fill="#75AA3C"/>
<rect x="157.307" y="425.271" width="193.86" height="6.81006" fill="#75AA3C"/>
<rect x="107.663" y="391.826" width="215.803" height="11.5015" fill="#9A7ED9"/>
<mask id="mask12_78_5133" style="mask-type:luminance" maskUnits="userSpaceOnUse" x="107" y="391" width="217" height="13">
<rect x="107.663" y="391.826" width="215.803" height="11.5015" fill="white"/>
</mask>
<g mask="url(#mask12_78_5133)">
<path d="M215.564 389.909C185.661 399.443 325.495 394.348 329.581 397.577C333.667 400.805 332.305 388.194 332.305 388.194L292.352 383.553" fill="#6F4EB9"/>
</g>
<rect x="125.218" y="382.443" width="215.803" height="11.5015" fill="#589BF7"/>
<path d="M223.985 454.489L228.448 458.033C228.63 458.204 228.869 458.303 229.119 458.311C229.37 458.309 229.61 458.21 229.789 458.033C230.104 457.69 230.204 457.022 229.789 456.692L225.326 453.148C225.144 452.977 224.905 452.878 224.655 452.87C224.404 452.872 224.164 452.972 223.985 453.148C223.67 453.491 223.57 454.16 223.985 454.489Z" fill="#D89D35"/>
<path d="M213.147 363.84L221.152 362.903C221.643 362.845 222.125 362.508 222.101 361.954C222.08 361.49 221.68 360.944 221.152 361.006L213.147 361.943C212.656 362 212.174 362.338 212.199 362.891C212.219 363.356 212.619 363.901 213.147 363.84Z" fill="#90282A"/>
<path d="M507.705 277.946H617.149V459.244C617.149 467.375 610.558 473.966 602.428 473.966H522.426C514.296 473.966 507.705 467.375 507.705 459.244V277.946Z" fill="#FFC562"/>
<mask id="mask13_78_5133" style="mask-type:luminance" maskUnits="userSpaceOnUse" x="507" y="277" width="111" height="197">
<path fill-rule="evenodd" clip-rule="evenodd" d="M507.705 277.946H617.149V459.244C617.149 467.375 610.558 473.966 602.428 473.966H522.426C514.296 473.966 507.705 467.375 507.705 459.244V277.946Z" fill="white"/>
</mask>
<g mask="url(#mask13_78_5133)">
<rect x="597.808" y="439.211" width="16.9645" height="174.419" transform="rotate(180 597.808 439.211)" fill="#EFF3FC"/>
<path d="M625.529 308.506C596.384 282.335 645.496 429.726 550.33 431.683C455.164 433.64 660.622 430.935 660.622 430.935L652.295 308.506" fill="#D89D35"/>
<rect x="567.295" y="439.211" width="16.9645" height="174.419" transform="rotate(180 567.295 439.211)" fill="#EFF3FC"/>
<rect x="538.022" y="439.211" width="16.9645" height="174.419" transform="rotate(180 538.022 439.211)" fill="#EFF3FC"/>
<rect x="635.967" y="489.182" width="146.361" height="57.4991" transform="rotate(180 635.967 489.182)" fill="#BB393C"/>
<mask id="mask14_78_5133" style="mask-type:luminance" maskUnits="userSpaceOnUse" x="489" y="431" width="147" height="59">
<rect x="635.967" y="489.182" width="146.361" height="57.4991" transform="rotate(180 635.967 489.182)" fill="white"/>
</mask>
<g mask="url(#mask14_78_5133)">
<path d="M514.127 483.366C512.937 431.683 551.599 432.98 620.594 434.764C689.59 436.549 580.844 401.456 580.844 401.456L481.65 417.516L489.606 455.582L495.689 466.883" fill="#90282A"/>
</g>
<rect x="637.143" y="431.683" width="133.293" height="12.9373" transform="rotate(180 637.143 431.683)" fill="#589BF7"/>
</g>
<path d="M562.427 201.629C566.359 201.629 569.94 203.331 571.63 206.002L617.149 277.946H507.705L553.224 206.002C554.914 203.331 558.495 201.629 562.427 201.629Z" fill="#FACCC4"/>
<mask id="mask15_78_5133" style="mask-type:luminance" maskUnits="userSpaceOnUse" x="507" y="201" width="111" height="77">
<path fill-rule="evenodd" clip-rule="evenodd" d="M562.427 201.629C566.359 201.629 569.94 203.331 571.63 206.002L617.149 277.946H507.705L553.224 206.002C554.914 203.331 558.495 201.629 562.427 201.629Z" fill="white"/>
</mask>
<g mask="url(#mask15_78_5133)">
<path d="M501.637 259.897C614.647 262.871 601.796 253.679 591.336 237.148C580.877 220.617 649.739 295.584 649.739 295.584C649.739 295.584 639.033 302.127 637.249 302.127C635.464 302.127 495.689 286.067 495.689 286.067L499.852 247.406" fill="#ED707B"/>
<rect x="639.103" y="288.923" width="153.68" height="21.9542" transform="rotate(180 639.103 288.923)" fill="#FF9763"/>
<ellipse cx="569.202" cy="186.993" rx="47.9476" ry="39.204" fill="#6D3417"/>
</g>
<path d="M544.8 237.137C544.771 237.176 544.742 237.214 544.713 237.252C544.837 237.091 544.859 237.063 544.778 237.167C544.718 237.242 544.659 237.318 544.598 237.393C544.477 237.543 544.353 237.691 544.228 237.837C543.976 238.129 543.716 238.413 543.448 238.689C542.911 239.242 542.341 239.762 541.742 240.247C541.667 240.308 541.591 240.367 541.516 240.427C541.412 240.509 541.44 240.487 541.601 240.362C541.563 240.391 541.525 240.421 541.486 240.45C541.333 240.566 541.177 240.68 541.02 240.791C540.706 241.014 540.386 241.228 540.059 241.432C539.404 241.839 538.727 242.207 538.029 242.534C537.744 242.701 537.535 242.973 537.446 243.291C537.358 243.621 537.404 243.972 537.574 244.268C537.973 244.888 538.664 245.025 539.308 244.723C541.623 243.631 543.712 242.112 545.465 240.247C546.005 239.664 546.514 239.053 546.989 238.417C547.174 238.173 547.194 237.721 547.117 237.44C547.026 237.123 546.818 236.852 546.534 236.683C546.239 236.511 545.887 236.465 545.558 236.555C545.248 236.66 544.982 236.865 544.8 237.137L544.8 237.137Z" fill="#ED707B"/>
<path d="M596.979 453.118C597.642 453.118 598.277 452.535 598.247 451.85C598.235 451.155 597.674 450.594 596.979 450.583C596.316 450.583 595.681 451.166 595.712 451.85C595.724 452.545 596.284 453.106 596.979 453.118Z" fill="#90282A"/>
<rect x="292.034" y="273.1" width="291.513" height="204.517" rx="7.23462" fill="#516DDB"/>
<mask id="mask16_78_5133" style="mask-type:luminance" maskUnits="userSpaceOnUse" x="292" y="273" width="292" height="205">
<rect x="292.034" y="273.1" width="291.513" height="204.517" rx="7.23462" fill="white"/>
</mask>
<g mask="url(#mask16_78_5133)">
<path d="M275.343 447.162C279.507 424.56 548.351 472.738 597.124 428.724C645.897 384.71 613.183 494.745 613.183 494.745L343.149 548.276" fill="#3152BA"/>
</g>
<rect x="304.71" y="289.551" width="266.161" height="165.661" rx="6.59139" fill="#97CC64"/>
<mask id="mask17_78_5133" style="mask-type:luminance" maskUnits="userSpaceOnUse" x="304" y="289" width="267" height="167">
<rect x="304.71" y="289.551" width="266.161" height="165.661" rx="6.59139" fill="white"/>
</mask>
<g mask="url(#mask17_78_5133)">
<path d="M565.969 273.1C551.315 479.328 237.241 552.465 3.43458 559.928C-230.372 567.391 590.616 517.296 590.616 517.296L637.244 387.404L601.94 284.833L559.308 279.682" fill="#75AA3C"/>
<path d="M355.041 337.284C355.583 347.002 356.016 356.726 356.341 366.455C356.665 376.183 356.88 385.914 356.986 395.648C357.045 401.11 357.07 406.573 357.06 412.035C357.059 413.055 358.643 413.057 358.645 412.035C358.661 402.302 358.569 392.569 358.368 382.837C358.166 373.106 357.856 363.377 357.436 353.652C357.2 348.194 356.93 342.738 356.626 337.284C356.569 336.27 354.985 336.264 355.041 337.284V337.284Z" fill="white"/>
<path d="M324.193 391.234C342.294 390.421 360.4 389.608 378.465 388.178C396.386 386.76 414.252 384.706 432.184 383.429C442.276 382.71 452.389 382.243 462.508 382.268C463.527 382.27 463.529 380.686 462.508 380.684C444.535 380.639 426.612 382.159 408.734 383.843C390.765 385.536 372.811 387.16 354.788 388.165C344.593 388.734 334.393 389.192 324.193 389.65C323.178 389.695 323.172 391.28 324.193 391.234Z" fill="white"/>
<path d="M459.052 375.134L465.076 380.165L466.615 381.451C466.836 381.635 467.064 381.812 467.275 382.006C467.316 382.044 467.353 382.087 467.395 382.124L467.44 382.173C467.387 382.098 467.385 382.097 467.435 382.17L467.467 382.225C467.433 382.129 467.429 382.123 467.455 382.207C467.445 382.138 467.505 381.963 467.441 382.095C467.463 382.05 467.572 381.917 467.462 382.025C467.413 382.074 467.365 382.122 467.315 382.169C467.217 382.261 467.117 382.35 467.018 382.44C466.779 382.655 466.538 382.868 466.295 383.077C465.848 383.462 465.394 383.836 464.931 384.201C464.868 384.251 464.805 384.3 464.742 384.35C464.667 384.407 464.657 384.415 464.712 384.373C464.68 384.398 464.648 384.422 464.616 384.447C464.478 384.552 464.339 384.657 464.199 384.761C463.942 384.953 463.682 385.142 463.42 385.328C462.852 385.73 462.274 386.118 461.686 386.492C461.442 386.634 461.292 386.897 461.294 387.18C461.295 387.463 461.448 387.724 461.693 387.864C461.939 388.004 462.241 388.002 462.486 387.86C463.605 387.147 464.688 386.384 465.735 385.568C466.243 385.175 466.742 384.77 467.232 384.354C467.728 383.969 468.194 383.548 468.628 383.094C468.893 382.815 469.035 382.441 469.023 382.056C468.98 381.633 468.782 381.242 468.468 380.955C468.019 380.506 467.487 380.123 466.999 379.716L463.786 377.032L460.172 374.014C459.854 373.748 459.359 373.679 459.052 374.014C458.783 374.307 458.712 374.85 459.052 375.134H459.052Z" fill="white"/>
<path d="M352.045 394.382C354.694 387.936 357.472 381.546 360.381 375.212C363.229 369.007 366.122 362.788 369.31 356.749C370.453 354.584 371.833 352.245 374.018 350.989C375.102 350.359 376.367 350.11 377.609 350.284C379.049 350.495 380.363 351.203 381.535 352.036C383.949 353.75 385.99 356.109 387.852 358.391C389.763 360.755 391.497 363.257 393.039 365.876C396.136 371.086 398.43 376.638 400.631 382.268C402.704 387.569 405.005 393.04 409.23 397.017C409.787 397.541 410.405 398.093 411.166 398.285C411.924 398.47 412.724 398.246 413.277 397.694C413.82 397.195 414.258 396.54 414.699 395.951C415.161 395.334 415.603 394.702 416.024 394.055C417.723 391.45 419.086 388.649 420.289 385.786C421.486 382.939 422.51 380.025 423.522 377.11C424.693 373.735 425.864 370.36 427.034 366.985L428.798 361.899L429.681 359.355L430.122 358.084C430.216 357.811 430.297 357.273 430.524 357.073C430.861 356.776 431.684 357.252 432 357.435C432.547 357.767 433.035 358.187 433.446 358.678C434.384 359.748 435.06 361.039 435.761 362.268C439.11 368.137 442.139 374.183 444.836 380.379C445.498 381.9 446.138 383.43 446.757 384.968C446.917 385.365 447.285 385.644 447.732 385.522C448.108 385.418 448.446 384.946 448.285 384.547C445.702 378.131 442.771 371.86 439.505 365.762C438.703 364.267 437.881 362.783 437.039 361.31C436.306 360.03 435.581 358.734 434.614 357.612C433.732 356.589 432.523 355.661 431.154 355.453C430.361 355.333 429.607 355.582 429.156 356.273C428.706 356.964 428.515 357.889 428.247 358.662C425.908 365.405 423.602 372.16 421.225 378.89C419.144 384.779 416.816 390.771 412.899 395.714C412.578 396.119 412.128 396.922 411.512 396.738C410.845 396.538 410.276 395.841 409.803 395.362C408.805 394.344 407.904 393.234 407.114 392.047C405.508 389.656 404.27 387.034 403.172 384.377C402.032 381.619 401.019 378.811 399.864 376.06C398.661 373.165 397.313 370.332 395.825 367.572C392.875 362.147 389.258 356.987 384.782 352.707C382.637 350.656 379.93 348.658 376.83 348.646C374.067 348.636 371.803 350.3 370.172 352.401C368.351 354.749 367.13 357.522 365.816 360.167C364.238 363.347 362.692 366.542 361.179 369.753C358.167 376.148 355.286 382.601 352.536 389.115C351.855 390.727 351.182 392.342 350.517 393.961C350.354 394.357 350.693 394.832 351.07 394.935C351.525 395.06 351.882 394.779 352.045 394.382L352.045 394.382Z" fill="white"/>
<path d="M460.258 335.672L458.983 343.171C458.881 343.553 459.077 343.952 459.441 344.106C459.806 344.259 460.228 344.121 460.43 343.781C462.763 340.287 464.776 336.589 466.443 332.733C466.927 331.614 467.383 330.485 467.812 329.344L466.256 329.133C466.159 330.996 465.991 332.852 465.753 334.703C465.745 334.759 465.738 334.815 465.731 334.871C465.709 335.037 465.721 334.949 465.726 334.913C465.71 335.025 465.695 335.137 465.679 335.249C465.646 335.487 465.612 335.724 465.576 335.962C465.507 336.423 465.433 336.883 465.355 337.343C465.199 338.262 465.026 339.178 464.834 340.091C464.467 341.845 464.061 343.605 463.526 345.317C463.411 345.684 463.287 346.047 463.145 346.405C463.133 346.436 463.024 346.693 463.088 346.547C463.05 346.634 463.011 346.721 462.971 346.808C462.881 347.001 462.785 347.192 462.682 347.379C462.596 347.533 462.505 347.685 462.409 347.834C462.357 347.913 462.305 347.99 462.25 348.067C462.223 348.106 462.194 348.143 462.167 348.182C462.117 348.255 462.232 348.105 462.14 348.217C461.9 348.513 461.632 348.784 461.34 349.028C461.469 348.921 461.292 349.061 461.246 349.092C461.159 349.153 461.07 349.21 460.979 349.264C460.815 349.362 460.643 349.442 460.472 349.527C460.617 349.455 460.521 349.507 460.486 349.521C460.426 349.544 460.368 349.567 460.308 349.587C460.219 349.619 460.128 349.647 460.037 349.673C459.947 349.698 459.855 349.721 459.763 349.74C459.723 349.749 459.682 349.757 459.641 349.764C459.617 349.769 459.441 349.796 459.562 349.779C459.674 349.763 459.542 349.78 459.514 349.783C459.463 349.788 459.412 349.792 459.36 349.795C459.259 349.8 459.157 349.802 459.054 349.799C458.963 349.797 458.873 349.787 458.782 349.781C458.667 349.774 458.925 349.808 458.813 349.785C458.763 349.775 458.713 349.768 458.664 349.758C458.487 349.72 458.314 349.667 458.146 349.599C458.332 349.673 458.058 349.549 458.007 349.52C457.918 349.47 457.832 349.413 457.747 349.354C457.369 349.135 456.886 349.262 456.664 349.638C456.455 350.017 456.58 350.494 456.948 350.722C458.311 351.681 460.145 351.502 461.557 350.756C463.105 349.94 464.048 348.406 464.673 346.826C464.975 346.028 465.231 345.214 465.439 344.387C465.687 343.459 465.917 342.526 466.128 341.589C466.557 339.687 466.908 337.77 467.183 335.838C467.5 333.613 467.723 331.377 467.841 329.133C467.839 328.738 467.545 328.406 467.154 328.355C466.764 328.306 466.397 328.546 466.285 328.922C466.097 329.423 465.904 329.922 465.705 330.419C465.615 330.642 465.525 330.865 465.433 331.087C465.387 331.199 465.341 331.31 465.294 331.421C465.283 331.448 465.216 331.605 465.265 331.49C465.234 331.564 465.202 331.638 465.171 331.712C464.76 332.671 464.328 333.62 463.875 334.56C462.981 336.415 462.005 338.227 460.948 339.998C460.345 341.008 459.717 342.003 459.063 342.982L460.511 343.592L461.786 336.093C461.855 335.686 461.679 335.22 461.233 335.119C460.849 335.031 460.333 335.235 460.258 335.672L460.258 335.672Z" fill="white"/>
<path d="M472.947 334.54L483.25 333.428C483.661 333.384 484.063 333.096 484.043 332.636C484.025 332.245 483.692 331.796 483.25 331.844L472.947 332.956C472.536 333 472.134 333.289 472.155 333.748C472.172 334.139 472.506 334.588 472.947 334.54Z" fill="white"/>
<path d="M472.699 342.718C475.492 342.317 478.254 341.731 480.969 340.964C481.739 340.746 482.504 340.514 483.265 340.268C483.686 340.15 483.932 339.715 483.816 339.294C483.7 338.873 483.265 338.625 482.844 338.74C480.16 339.609 477.421 340.299 474.646 340.805C473.859 340.949 473.07 341.077 472.278 341.191C471.866 341.25 471.605 341.794 471.725 342.165C471.871 342.616 472.258 342.782 472.699 342.718L472.699 342.718Z" fill="white"/>
<path d="M492.04 335.626C494.796 334.821 497.488 333.811 500.093 332.604C500.825 332.266 501.549 331.911 502.265 331.542C502.64 331.319 502.767 330.836 502.549 330.458C502.322 330.088 501.845 329.963 501.466 330.173C500.227 330.812 498.965 331.405 497.682 331.951C497.684 331.95 497.56 332.002 497.625 331.975C497.691 331.947 497.567 331.999 497.569 331.998C497.493 332.03 497.417 332.061 497.341 332.093C497.177 332.16 497.013 332.227 496.848 332.293C496.518 332.426 496.187 332.555 495.855 332.681C495.203 332.929 494.547 333.164 493.887 333.386C493.136 333.64 492.38 333.877 491.618 334.098C491.346 334.173 491.133 334.389 491.062 334.663C490.991 334.937 491.071 335.228 491.273 335.426C491.474 335.625 491.767 335.701 492.04 335.626V335.626Z" fill="white"/>
<path d="M496.27 340.668C497.361 340.284 498.474 339.969 499.603 339.725C500.155 339.607 500.709 339.505 501.267 339.421C501.335 339.41 501.403 339.4 501.471 339.391C501.471 339.391 501.726 339.356 501.588 339.374C501.724 339.356 501.86 339.339 501.997 339.323C502.298 339.288 502.599 339.259 502.9 339.234L502.216 338.042C501.507 339.566 500.658 341.021 499.68 342.389C499.559 342.558 499.435 342.726 499.31 342.893C499.255 342.966 499.2 343.038 499.145 343.111C499.216 343.018 499.136 343.122 499.125 343.136C499.077 343.197 499.028 343.258 498.98 343.32C498.7 343.671 498.39 344.002 498.123 344.363C497.839 344.719 497.721 345.178 497.8 345.626C497.948 346.276 498.594 346.52 499.194 346.419C499.628 346.345 500.059 346.212 500.487 346.108L501.15 345.946C501.261 345.919 501.371 345.891 501.482 345.865C501.528 345.854 501.573 345.844 501.619 345.834C501.767 345.801 501.564 345.829 501.653 345.832C501.774 345.836 501.533 345.787 501.644 345.826C501.789 345.875 501.47 345.713 501.484 345.706L501.467 345.679L501.504 345.739C501.579 345.858 501.529 345.778 501.513 345.741C501.548 345.827 501.577 345.916 501.599 346.006C501.61 346.05 501.618 346.095 501.629 346.139C501.665 346.287 501.632 346.069 501.633 346.162C501.633 346.251 501.643 346.339 501.64 346.429C501.639 346.474 501.637 346.519 501.633 346.563C501.631 346.589 501.61 346.729 501.628 346.625C501.645 346.528 501.623 346.64 501.62 346.654C501.611 346.698 501.602 346.743 501.592 346.788C501.565 346.9 501.532 347.011 501.494 347.12C501.483 347.154 501.47 347.187 501.458 347.22C501.45 347.24 501.394 347.376 501.431 347.29C501.469 347.202 501.407 347.34 501.398 347.359C501.378 347.403 501.356 347.446 501.334 347.489C501.24 347.675 501.135 347.856 501.022 348.032C500.921 348.19 500.814 348.344 500.703 348.494C500.673 348.535 500.643 348.574 500.613 348.614C500.537 348.716 500.681 348.533 500.6 348.631C500.529 348.716 500.461 348.804 500.39 348.889C499.883 349.498 499.353 350.091 498.817 350.675C498.209 351.347 497.561 351.984 496.878 352.581C496.71 352.726 496.537 352.865 496.364 353.005C496.266 353.084 496.45 352.941 496.349 353.016C496.3 353.053 496.251 353.091 496.201 353.127C496.112 353.193 496.022 353.258 495.931 353.321C495.557 353.583 495.168 353.823 494.765 354.039C494.391 354.262 494.264 354.744 494.481 355.123C494.708 355.493 495.186 355.618 495.565 355.407C497.032 354.62 498.304 353.509 499.451 352.313C500.012 351.729 500.548 351.121 501.08 350.51C501.664 349.881 502.18 349.19 502.617 348.45C503.035 347.689 503.31 346.83 503.192 345.956C503.128 345.475 502.973 344.965 502.622 344.613C502.2 344.191 501.598 344.21 501.061 344.337C500.604 344.445 500.149 344.559 499.693 344.671L499.072 344.822C499.017 344.836 498.96 344.847 498.906 344.863C498.748 344.909 498.891 344.857 498.916 344.87C499.016 344.907 499.112 344.955 499.202 345.013C499.288 345.088 499.339 345.195 499.344 345.308C499.35 345.385 499.353 345.388 499.352 345.319C499.351 345.322 499.352 345.488 499.346 345.402C499.344 345.372 499.403 345.264 499.354 345.364C499.303 345.466 499.428 345.255 499.44 345.231C499.49 345.134 499.333 345.348 499.427 345.252C499.463 345.215 499.495 345.173 499.529 345.133C499.605 345.044 499.68 344.954 499.755 344.864C500.056 344.502 500.347 344.131 500.631 343.755C501.786 342.226 502.776 340.579 503.584 338.841C503.722 338.593 503.722 338.29 503.584 338.042C503.444 337.797 503.182 337.647 502.9 337.649C500.496 337.845 498.127 338.346 495.849 339.14C495.459 339.277 495.158 339.688 495.296 340.114C495.421 340.5 495.852 340.815 496.27 340.668L496.27 340.668Z" fill="white"/>
<path d="M496.367 325.648C496.4 325.716 496.431 325.785 496.462 325.855C496.52 325.984 496.456 325.83 496.485 325.91C496.534 326.04 496.587 326.169 496.633 326.3C496.72 326.55 496.797 326.804 496.861 327.062C496.926 327.319 496.98 327.579 497.022 327.842C497.023 327.853 497.056 328.096 497.036 327.931C497.044 327.994 497.051 328.057 497.058 328.12C497.072 328.258 497.083 328.397 497.091 328.535C497.121 329.066 497.105 329.597 497.044 330.125C497.016 330.372 497.071 329.97 497.032 330.215C497.022 330.277 497.012 330.34 497.001 330.402C496.977 330.539 496.95 330.675 496.919 330.811C496.858 331.082 496.783 331.35 496.697 331.614C496.585 332.036 496.831 332.47 497.251 332.589C497.671 332.695 498.101 332.451 498.225 332.036C498.975 329.664 498.8 327.096 497.735 324.848C497.559 324.472 496.989 324.347 496.652 324.564C496.284 324.792 496.159 325.268 496.367 325.648L496.367 325.648Z" fill="white"/>
<path d="M509.668 336.178C509.732 336.097 509.802 336.019 509.876 335.947C509.916 335.908 510.101 335.772 509.954 335.871C510.032 335.819 510.107 335.765 510.189 335.719C510.235 335.693 510.282 335.671 510.327 335.647C510.458 335.575 510.25 335.668 510.339 335.64C510.428 335.612 510.515 335.578 510.607 335.555C510.647 335.544 510.687 335.535 510.728 335.527C510.737 335.525 510.937 335.499 510.808 335.511C510.677 335.523 510.881 335.508 510.889 335.507C510.93 335.505 510.972 335.504 511.013 335.504C511.055 335.504 511.097 335.505 511.138 335.507C511.169 335.509 511.2 335.511 511.231 335.514C511.291 335.52 511.272 335.517 511.175 335.505C511.21 335.48 511.414 335.557 511.448 335.566C511.488 335.578 511.527 335.595 511.567 335.605C511.681 335.633 511.408 335.518 511.583 335.61C511.658 335.65 511.734 335.688 511.806 335.733C511.851 335.761 511.893 335.793 511.937 335.822C511.983 335.856 511.972 335.847 511.902 335.796C511.927 335.816 511.951 335.837 511.974 335.859C512.046 335.923 512.108 335.994 512.175 336.063C512.199 336.087 512.268 336.18 512.172 336.051C512.197 336.085 512.222 336.12 512.246 336.155C512.299 336.234 512.348 336.317 512.392 336.402C512.417 336.449 512.44 336.497 512.461 336.545C512.406 336.42 512.45 336.527 512.472 336.594C512.498 336.675 512.519 336.757 512.537 336.84C512.539 336.85 512.559 337.049 512.552 336.923C512.546 336.812 512.551 336.949 512.552 336.976C512.556 337.076 512.554 337.176 512.547 337.276C512.537 337.433 512.544 337.333 512.548 337.297C512.539 337.375 512.524 337.452 512.512 337.529C512.417 338.136 512.35 338.721 512.625 339.294C513.007 340.092 513.963 340.478 514.811 340.383C515.936 340.256 516.719 339.457 517.399 338.622C517.66 338.301 517.736 337.811 517.399 337.501C517.109 337.236 516.558 337.158 516.278 337.501C516.017 337.842 515.726 338.158 515.409 338.448C515.38 338.474 515.26 338.569 515.383 338.475C515.347 338.503 515.31 338.529 515.272 338.555C515.187 338.612 515.099 338.665 515.009 338.711C514.971 338.731 514.832 338.784 514.979 338.73C514.944 338.743 514.91 338.756 514.874 338.767C514.839 338.778 514.803 338.787 514.767 338.796C514.739 338.803 514.712 338.808 514.684 338.813C514.624 338.824 514.647 338.821 514.755 338.805C514.721 338.837 514.542 338.812 514.502 338.812C514.467 338.813 514.354 338.828 514.467 338.815C514.582 338.801 514.444 338.81 514.407 338.801C514.367 338.792 514.213 338.775 514.196 338.739C514.217 338.783 514.33 338.815 514.212 338.741C514.189 338.728 514.165 338.715 514.143 338.701C514.085 338.662 514.083 338.662 514.135 338.702C514.22 338.726 514.152 338.72 514.114 338.68C514.099 338.665 514.019 338.603 514.023 338.584C514.026 338.57 514.124 338.761 514.054 338.615C514.039 338.583 514.019 338.552 514.004 338.52C514.076 338.676 514.022 338.519 514.006 338.478C513.966 338.372 513.998 338.58 514.005 338.467C514.013 338.327 514.006 338.19 514.023 338.049C514.019 338.084 514.001 338.189 514.028 338.028C514.036 337.976 514.044 337.925 514.052 337.873C514.077 337.713 514.101 337.552 514.119 337.391C514.185 336.686 514.013 335.979 513.631 335.382C513.107 334.559 512.233 334.024 511.262 333.932C510.228 333.844 509.215 334.264 508.547 335.058C508.289 335.381 508.208 335.867 508.547 336.178C508.835 336.442 509.391 336.524 509.667 336.178L509.668 336.178Z" fill="white"/>
<path d="M513.629 330.76C512.172 334.32 510.655 337.833 509.034 341.397C508.578 342.399 508.117 343.398 507.651 344.395C507.476 344.77 507.533 345.267 507.935 345.479C508.286 345.665 508.831 345.596 509.019 345.195C510.707 341.585 512.325 337.943 513.873 334.27C514.306 333.243 514.734 332.213 515.157 331.181C515.314 330.797 514.986 330.294 514.604 330.207C514.143 330.102 513.798 330.348 513.629 330.76L513.629 330.76Z" fill="white"/>
<path d="M448.345 404.991L448.334 412.455C448.333 413 449.031 413.516 449.526 413.139C451.999 411.257 454.603 409.143 455.732 406.145C456.039 405.321 456.197 404.449 456.198 403.569H454.614C454.676 405.824 454.738 408.081 454.62 410.335C454.591 410.883 454.551 411.429 454.499 411.975C454.473 412.241 454.445 412.506 454.412 412.771C454.406 412.827 454.398 412.882 454.392 412.938C454.389 412.98 454.383 413.021 454.375 413.062C454.356 413.201 454.335 413.34 454.314 413.479C454.164 414.475 453.95 415.46 453.675 416.429C453.545 416.881 453.4 417.327 453.24 417.769C453.168 417.967 453.093 418.165 453.015 418.361C452.989 418.426 452.962 418.491 452.935 418.556C452.925 418.583 452.876 418.696 452.933 418.562C452.878 418.691 452.822 418.819 452.764 418.948C452.39 419.777 451.949 420.574 451.446 421.331C451.317 421.524 451.183 421.714 451.046 421.9C451.018 421.937 450.991 421.975 450.963 422.012C450.967 422.006 450.827 422.186 450.898 422.097C450.968 422.007 450.827 422.186 450.831 422.18C450.788 422.235 450.744 422.288 450.7 422.342C450.405 422.7 450.093 423.041 449.763 423.366C449.605 423.521 449.444 423.672 449.279 423.818C449.201 423.887 449.122 423.956 449.042 424.023C448.988 424.069 448.935 424.113 448.88 424.157C448.858 424.175 448.688 424.306 448.803 424.22C448.622 424.356 448.429 424.477 448.228 424.58C448.034 424.678 448.35 424.561 448.139 424.612C448.091 424.624 448.044 424.641 447.995 424.652C447.951 424.663 447.903 424.667 447.86 424.68C447.798 424.69 447.824 424.686 447.936 424.669C447.901 424.673 447.866 424.675 447.83 424.676C447.743 424.68 447.656 424.674 447.569 424.67C447.397 424.662 447.703 424.71 447.6 424.674C447.544 424.655 447.479 424.65 447.422 424.635C447.337 424.613 447.253 424.587 447.171 424.557L447.121 424.538C447.041 424.506 447.055 424.513 447.162 424.557C447.109 424.542 447.059 424.519 447.014 424.489C446.643 424.297 446.285 424.079 445.945 423.836C445.201 423.332 444.416 422.788 443.507 422.652C443.099 422.591 442.635 422.754 442.533 423.205C442.447 423.582 442.648 424.114 443.086 424.18C443.27 424.207 443.452 424.252 443.628 424.313C443.682 424.326 443.736 424.346 443.785 424.373C443.771 424.362 443.62 424.296 443.752 424.36C443.855 424.409 443.958 424.459 444.059 424.513C444.402 424.699 444.726 424.919 445.048 425.138C445.705 425.584 446.405 426.068 447.204 426.206C447.704 426.304 448.222 426.264 448.701 426.088C449.248 425.852 449.751 425.525 450.189 425.121C450.943 424.471 451.625 423.743 452.225 422.949C454.766 419.646 455.809 415.476 456.135 411.387C456.342 408.786 456.27 406.174 456.198 403.569C456.198 403.132 455.843 402.777 455.406 402.777C454.968 402.777 454.613 403.132 454.613 403.569C454.613 403.743 454.607 403.916 454.594 404.089C454.587 404.174 454.578 404.259 454.569 404.344C454.564 404.384 454.54 404.496 454.572 404.323C454.562 404.375 454.555 404.428 454.546 404.48C454.486 404.822 454.4 405.158 454.289 405.487C454.235 405.646 454.175 405.803 454.111 405.958C454.171 405.812 454.104 405.971 454.077 406.029C454.038 406.115 453.997 406.201 453.954 406.285C453.796 406.599 453.619 406.904 453.426 407.198C453.331 407.343 453.233 407.485 453.131 407.625C453.086 407.687 453.041 407.748 452.995 407.809C452.906 407.927 452.981 407.827 452.999 407.804C452.958 407.856 452.918 407.907 452.876 407.959C452.653 408.235 452.419 408.501 452.177 408.76C451.665 409.301 451.124 409.814 450.558 410.298C450.25 410.563 449.937 410.823 449.619 411.076C449.453 411.209 449.286 411.341 449.118 411.471C449.092 411.491 449.065 411.512 449.039 411.532C449.18 411.422 449.004 411.559 448.989 411.571C448.901 411.638 448.814 411.704 448.726 411.771L449.918 412.455L449.93 404.991C449.93 404.553 449.575 404.199 449.138 404.199C448.7 404.199 448.345 404.553 448.345 404.991L448.345 404.991Z" fill="white"/>
<path d="M465.957 414.285L469.1 413.388C469.522 413.271 469.77 412.835 469.654 412.413C469.537 411.991 469.101 411.743 468.679 411.86L465.536 412.758C465.114 412.874 464.867 413.31 464.983 413.732C465.099 414.154 465.536 414.402 465.957 414.285Z" fill="white"/>
<path d="M480.162 413.797C481.094 412.37 480.221 410.555 478.895 409.744C478.205 409.309 477.367 409.178 476.578 409.38C475.811 409.612 475.15 410.104 474.707 410.771C473.835 412.085 473.75 413.771 474.488 415.165C474.96 416.031 475.783 416.706 476.788 416.788C477.665 416.86 478.498 416.373 479.039 415.712C479.673 414.94 479.974 414.043 480.19 413.082C480.284 412.618 480.403 412.16 480.547 411.709C480.561 411.667 480.576 411.625 480.591 411.584C480.6 411.561 480.686 411.36 480.609 411.529C480.654 411.43 480.7 411.331 480.752 411.235C480.804 411.14 480.861 411.047 480.922 410.957C480.922 410.957 481.052 410.791 480.976 410.88C480.913 410.955 481.072 410.777 481.087 410.76L479.763 410.41C480.104 412.283 480.965 414.022 482.248 415.428C482.559 415.735 483.058 415.735 483.368 415.428C483.668 415.115 483.668 414.621 483.368 414.308C483.229 414.154 483.098 413.994 482.966 413.835C482.911 413.769 483.018 413.907 482.933 413.792C482.904 413.753 482.875 413.714 482.846 413.675C482.782 413.586 482.719 413.496 482.658 413.405C482.42 413.05 482.207 412.68 482.019 412.297C481.976 412.209 481.935 412.121 481.895 412.032C481.888 412.016 481.81 411.838 481.847 411.925C481.879 412 481.823 411.864 481.817 411.851C481.741 411.658 481.67 411.464 481.606 411.266C481.471 410.849 481.366 410.422 481.291 409.989C481.188 409.4 480.349 409.231 479.967 409.64C479.432 410.248 479.057 410.979 478.874 411.768C478.688 412.463 478.583 413.18 478.334 413.856C478.283 413.993 478.33 413.866 478.342 413.841C478.325 413.879 478.308 413.917 478.29 413.955C478.254 414.031 478.216 414.106 478.175 414.18C478.094 414.327 478.005 414.469 477.908 414.605C477.824 414.724 477.901 414.612 477.919 414.592C477.892 414.623 477.867 414.655 477.84 414.686C477.787 414.746 477.732 414.805 477.674 414.861C477.617 414.916 477.557 414.967 477.497 415.018C477.637 414.901 477.449 415.044 477.396 415.075C477.369 415.091 477.157 415.191 477.263 415.149C477.372 415.106 477.176 415.175 477.146 415.183C477.109 415.193 477.073 415.2 477.036 415.209C476.877 415.249 477.08 415.203 477.079 415.205C476.982 415.214 476.885 415.213 476.788 415.204C476.789 415.192 476.988 415.249 476.813 415.204C476.783 415.196 476.752 415.189 476.721 415.18C476.681 415.169 476.641 415.153 476.601 415.142C476.493 415.112 476.712 415.206 476.617 415.148C476.545 415.103 476.469 415.068 476.398 415.021C476.377 415.007 476.272 414.924 476.35 414.988C476.434 415.058 476.299 414.94 476.283 414.926C476.22 414.867 476.16 414.805 476.103 414.74C476.074 414.707 476.047 414.674 476.019 414.64C476.039 414.664 476.105 414.764 476.027 414.643C475.934 414.499 475.852 414.354 475.773 414.203C475.705 414.073 475.78 414.236 475.787 414.245C475.77 414.213 475.757 414.179 475.748 414.144C475.724 414.077 475.701 414.009 475.681 413.94C475.661 413.871 475.643 413.802 475.627 413.731C475.619 413.696 475.612 413.661 475.605 413.626C475.597 413.584 475.542 413.47 475.594 413.571C475.639 413.659 475.596 413.594 475.591 413.542C475.588 413.506 475.584 413.47 475.582 413.434C475.577 413.371 475.575 413.308 475.574 413.245C475.571 413.091 475.594 412.938 475.595 412.785C475.595 412.676 475.566 412.941 475.587 412.834C475.595 412.799 475.599 412.763 475.605 412.727C475.618 412.657 475.633 412.586 475.651 412.516C475.687 412.368 475.736 412.225 475.786 412.081C475.82 411.986 475.762 412.061 475.767 412.122C475.778 412.088 475.793 412.056 475.812 412.026C475.842 411.962 475.874 411.899 475.909 411.838C475.949 411.765 476.058 411.512 476.137 411.486C476.1 411.498 476.037 411.604 476.11 411.524C476.133 411.499 476.154 411.472 476.177 411.446C476.224 411.395 476.272 411.345 476.321 411.298C476.334 411.285 476.463 411.154 476.476 411.161C476.479 411.163 476.313 411.276 476.438 411.191C476.474 411.167 476.509 411.142 476.545 411.119C476.596 411.086 476.648 411.056 476.701 411.027C476.732 411.01 476.763 410.996 476.794 410.979C476.927 410.906 476.748 410.994 476.748 410.995C476.801 410.911 477.089 410.893 477.181 410.866C477.283 410.836 477.02 410.873 477.126 410.873C477.161 410.873 477.196 410.868 477.231 410.866C477.3 410.864 477.369 410.867 477.438 410.869C477.621 410.875 477.321 410.838 477.459 410.87C477.544 410.889 477.628 410.906 477.712 410.931C477.745 410.942 477.778 410.953 477.811 410.964C477.853 410.979 477.942 411.053 477.862 410.982C477.799 410.927 477.827 410.966 477.864 410.986C477.91 411.011 477.958 411.033 478.004 411.059C478.073 411.097 478.141 411.139 478.207 411.184C478.236 411.204 478.264 411.226 478.293 411.246C478.373 411.298 478.173 411.139 478.279 411.237C478.397 411.346 478.508 411.456 478.617 411.574C478.716 411.683 478.598 411.541 478.592 411.538C478.621 411.553 478.65 411.618 478.668 411.644C478.712 411.709 478.753 411.775 478.791 411.844C478.808 411.874 478.824 411.904 478.84 411.935C478.921 412.095 478.828 411.948 478.844 411.932C478.863 411.997 478.885 412.06 478.912 412.122C478.936 412.202 478.952 412.283 478.969 412.365C478.992 412.47 478.93 412.355 478.961 412.301C478.948 412.324 478.967 412.398 478.968 412.424C478.969 412.473 478.939 412.604 478.96 412.644C478.952 412.629 479.001 412.445 478.967 412.579C478.957 412.619 478.95 412.659 478.939 412.699C478.93 412.731 478.919 412.762 478.91 412.794C478.867 412.937 478.908 412.762 478.924 412.769C478.931 412.772 478.802 412.985 478.794 412.997C478.577 413.375 478.703 413.858 479.078 414.081C479.458 414.291 479.935 414.166 480.162 413.797L480.162 413.797Z" fill="white"/>
<path d="M484.412 408.065C484.475 408.196 484.536 408.328 484.595 408.461C484.611 408.498 484.667 408.627 484.625 408.527C484.655 408.6 484.685 408.674 484.715 408.748C484.813 408.993 484.904 409.242 484.988 409.493C485.168 410.032 485.317 410.582 485.432 411.139C485.488 411.412 485.535 411.685 485.577 411.96L485.588 412.039C485.58 411.972 485.579 411.967 485.586 412.025C485.594 412.09 485.602 412.156 485.61 412.222C485.626 412.366 485.64 412.511 485.652 412.656C485.698 413.223 485.71 413.792 485.689 414.361H487.273C487.245 414.014 487.241 413.665 487.262 413.317C487.272 413.165 487.287 413.014 487.305 412.862C487.28 413.071 487.318 412.788 487.325 412.75C487.34 412.664 487.356 412.579 487.373 412.494C487.44 412.174 487.526 411.859 487.632 411.55C487.661 411.467 487.69 411.385 487.721 411.304C487.734 411.272 487.842 411.011 487.764 411.19C487.829 411.04 487.899 410.892 487.972 410.746C488.125 410.444 488.296 410.153 488.486 409.874C488.535 409.802 488.586 409.73 488.637 409.66C488.66 409.629 488.78 409.473 488.671 409.612C488.778 409.475 488.89 409.342 489.006 409.212C489.225 408.969 489.459 408.741 489.707 408.529C489.773 408.473 489.841 408.418 489.908 408.364C489.761 408.482 489.981 408.31 490.008 408.291C490.15 408.189 490.295 408.093 490.444 408.001C490.822 407.78 490.949 407.295 490.728 406.917C490.507 406.54 490.022 406.412 489.644 406.633C487.615 407.904 486.218 409.973 485.797 412.329C485.676 412.999 485.64 413.682 485.689 414.361C485.722 414.773 486.03 415.173 486.481 415.153C486.915 415.144 487.265 414.795 487.273 414.361C487.354 411.91 486.841 409.476 485.78 407.265C485.558 406.889 485.074 406.763 484.696 406.981C484.328 407.209 484.203 407.686 484.412 408.065L484.412 408.065Z" fill="white"/>
<path d="M496.298 406.396C494.775 407.198 493.491 408.635 493.332 410.401C493.191 411.954 494.315 413.396 495.797 413.797C496.643 414.042 497.555 413.835 498.212 413.25C498.519 412.939 498.519 412.44 498.212 412.129C497.899 411.83 497.406 411.83 497.092 412.129C497.098 412.124 497.017 412.199 497.014 412.197C497.004 412.189 497.182 412.088 497.052 412.162C497.003 412.19 496.954 412.22 496.904 412.248C496.752 412.334 497.023 412.218 496.894 412.254C496.832 412.271 496.773 412.292 496.71 412.305C496.501 412.351 496.818 412.309 496.685 412.311C496.629 412.312 496.573 412.316 496.517 412.315C496.461 412.305 496.404 412.301 496.347 412.305C496.43 412.275 496.508 412.334 496.412 412.313C496.372 412.304 496.331 412.297 496.291 412.287C496.174 412.242 496.054 412.203 495.932 412.172C495.939 412.166 496.077 412.243 496.005 412.2C495.975 412.183 495.943 412.17 495.913 412.155C495.851 412.123 495.791 412.089 495.733 412.053C495.681 412.021 495.631 411.986 495.581 411.952C495.456 411.869 495.614 411.982 495.616 411.981C495.605 411.982 495.549 411.926 495.536 411.915C495.432 411.821 495.333 411.722 495.24 411.618C495.146 411.517 495.327 411.753 495.219 411.592C495.185 411.542 495.151 411.492 495.119 411.44C495.083 411.381 495.05 411.32 495.019 411.258C495.008 411.235 494.999 411.21 494.986 411.188C494.939 411.106 495.038 411.346 494.998 411.209C494.989 411.176 494.92 410.863 494.907 410.86C494.94 410.869 494.92 411.037 494.915 410.916C494.914 410.872 494.909 410.829 494.907 410.786C494.903 410.7 494.903 410.614 494.907 410.528C494.91 410.482 494.949 410.224 494.911 410.423C494.925 410.35 494.937 410.277 494.953 410.205C494.97 410.133 494.989 410.062 495.011 409.991C495.023 409.951 495.036 409.911 495.05 409.871C495.057 409.85 495.117 409.682 495.078 409.787C495.045 409.878 495.082 409.779 495.089 409.765C495.107 409.726 495.125 409.687 495.144 409.649C495.177 409.582 495.212 409.516 495.25 409.451C495.337 409.301 495.433 409.156 495.536 409.017C495.604 408.922 495.454 409.109 495.533 409.022C495.57 408.981 495.604 408.937 495.64 408.896C495.698 408.83 495.758 408.765 495.82 408.701C495.952 408.566 496.091 408.438 496.236 408.317C496.254 408.303 496.363 408.213 496.287 408.275C496.207 408.339 496.367 408.215 496.366 408.216C496.438 408.164 496.511 408.113 496.585 408.064C496.751 407.955 496.922 407.856 497.098 407.764C497.472 407.541 497.599 407.058 497.382 406.68C497.155 406.31 496.677 406.185 496.298 406.396L496.298 406.396Z" fill="white"/>
<path d="M501.878 406.26C500.38 406.6 498.584 407.246 498.117 408.887C497.844 409.845 498.182 410.814 498.821 411.542C499.479 412.255 500.382 412.694 501.349 412.771C502.54 412.9 503.734 412.543 504.858 412.193C505.278 412.075 505.524 411.64 505.408 411.219C505.292 410.799 504.858 410.551 504.437 410.665C504.002 410.801 503.566 410.935 503.123 411.04C502.742 411.145 502.351 411.202 501.956 411.21C501.848 411.213 501.74 411.212 501.632 411.208C501.578 411.206 501.524 411.202 501.471 411.198C501.453 411.197 501.286 411.179 501.374 411.19C501.462 411.201 501.296 411.176 501.278 411.173C501.228 411.164 501.177 411.153 501.127 411.142C501.035 411.12 500.943 411.094 500.853 411.063C500.813 411.049 500.774 411.033 500.734 411.018C500.761 411.029 500.878 411.088 500.747 411.022C500.67 410.983 500.594 410.945 500.52 410.902C500.455 410.864 500.391 410.824 500.33 410.782C500.31 410.768 500.198 410.689 500.28 410.749C500.367 410.813 500.227 410.704 500.211 410.69C500.084 410.579 499.967 410.457 499.861 410.325C499.969 410.458 499.834 410.277 499.806 410.232C499.757 410.153 499.718 410.071 499.676 409.989C499.625 409.889 499.715 410.118 499.687 410.01C499.68 409.981 499.667 409.953 499.658 409.924C499.642 409.871 499.586 409.743 499.602 409.691C499.576 409.775 499.611 409.813 499.608 409.722C499.606 409.682 499.603 409.642 499.603 409.601C499.603 409.561 499.606 409.52 499.606 409.48C499.606 409.329 499.581 409.568 499.605 409.476C499.625 409.402 499.638 409.328 499.661 409.255C499.672 409.22 499.687 409.186 499.697 409.151C499.725 409.05 499.624 409.279 499.681 409.192C499.715 409.141 499.738 409.08 499.771 409.027C499.789 408.997 499.81 408.968 499.828 408.938C499.921 408.787 499.714 409.061 499.834 408.929C499.924 408.829 500.02 408.734 500.12 408.644C500.264 408.516 500.017 408.708 500.179 408.599C500.249 408.552 500.319 408.505 500.392 408.461C500.542 408.371 500.697 408.296 500.855 408.221C500.984 408.16 500.851 408.222 500.828 408.231C500.883 408.209 500.939 408.187 500.994 408.165C501.068 408.137 501.143 408.11 501.219 408.085C501.573 407.967 501.934 407.867 502.299 407.787C502.719 407.668 502.965 407.234 502.852 406.813C502.728 406.397 502.298 406.153 501.878 406.26L501.878 406.26Z" fill="white"/>
<path d="M507.193 408.594C507.132 409.287 507.428 409.964 507.981 410.388C508.35 410.674 508.864 410.929 509.309 410.65C509.581 410.466 509.829 410.25 510.05 410.008C510.886 409.141 511.472 408.064 511.744 406.891C511.882 406.305 511.938 405.703 511.911 405.102C511.874 404.412 511.795 403.49 511.092 403.142C510.418 402.809 509.608 403.157 508.959 403.411C508.361 403.641 507.783 403.92 507.23 404.244C506.022 404.958 504.959 405.893 504.096 406.999C503.843 407.326 503.754 407.805 504.096 408.119C504.38 408.379 504.946 408.469 505.217 408.119C505.502 407.749 505.811 407.399 506.143 407.069C506.293 406.922 506.446 406.778 506.604 406.64C506.683 406.57 506.763 406.502 506.844 406.435C506.889 406.398 506.935 406.362 506.98 406.325C507.16 406.179 506.856 406.416 507.041 406.277C507.396 406.009 507.766 405.764 508.15 405.541C508.353 405.425 508.559 405.315 508.768 405.212C508.852 405.171 508.937 405.131 509.022 405.092C509.075 405.067 509.128 405.043 509.181 405.02C509.213 405.006 509.246 404.992 509.278 404.978C509.196 405.013 509.198 405.013 509.283 404.978C509.479 404.902 509.675 404.826 509.874 404.76C509.985 404.723 510.096 404.688 510.208 404.654C510.253 404.641 510.298 404.628 510.343 404.615C510.378 404.605 510.413 404.596 510.448 404.588C510.506 404.577 510.495 404.576 510.417 404.586L510.488 404.582C510.452 404.582 510.417 404.572 510.385 404.556C510.327 404.526 510.275 404.485 510.234 404.435C510.216 404.418 510.186 404.27 510.226 404.419C510.237 404.46 510.248 404.501 510.257 404.542C510.269 404.593 510.316 404.913 510.292 404.714C510.306 404.832 510.318 404.951 510.325 405.069C510.337 405.274 510.338 405.48 510.327 405.685C510.323 405.772 510.316 405.858 510.308 405.944C510.305 405.977 510.276 406.194 510.305 405.991C510.296 406.055 510.286 406.119 510.275 406.183C510.199 406.588 510.085 406.985 509.934 407.368C509.994 407.21 509.943 407.348 509.925 407.388C509.898 407.447 509.871 407.506 509.842 407.564C509.79 407.671 509.735 407.777 509.676 407.881C509.557 408.087 509.428 408.287 509.288 408.479C509.268 408.507 509.194 408.594 509.293 408.474C509.252 408.523 509.212 408.574 509.17 408.624C509.086 408.723 508.998 408.818 508.907 408.911C508.832 408.988 508.754 409.063 508.674 409.136C508.633 409.172 508.593 409.208 508.551 409.243C508.523 409.266 508.338 409.414 508.484 409.302L509.094 409.222C508.928 409.171 509.197 409.298 509.06 409.214C509.009 409.182 508.957 409.154 508.908 409.119C509.062 409.229 508.923 409.114 508.889 409.084C508.779 408.987 508.95 409.194 508.849 409.028C508.835 409.006 508.754 408.828 508.794 408.935C508.835 409.045 508.776 408.851 508.768 408.83C508.755 408.771 508.756 408.792 508.771 408.893C508.767 408.863 508.765 408.833 508.765 408.804C508.764 408.733 508.768 408.663 508.778 408.594C508.832 408.181 508.375 407.784 507.986 407.802C507.51 407.823 507.251 408.152 507.193 408.594L507.193 408.594Z" fill="white"/>
<path d="M518.071 398.068C517.304 400.639 516.825 403.287 516.643 405.963C516.553 407.265 516.536 408.571 516.592 409.874C516.641 411.029 516.763 412.376 517.667 413.214C518.132 413.644 518.738 413.89 519.372 413.905C520.055 413.924 520.701 413.593 521.084 413.026C521.302 412.647 521.175 412.164 520.799 411.942C520.42 411.733 519.943 411.858 519.716 412.226C519.836 412.052 519.735 412.192 519.707 412.229C519.611 412.352 519.812 412.182 519.73 412.219C519.692 412.238 519.657 412.26 519.622 412.285C519.483 412.376 519.788 412.246 519.625 412.284C519.591 412.292 519.559 412.304 519.526 412.312C519.338 412.356 519.527 412.299 519.531 412.316C519.531 412.316 519.438 412.32 519.425 412.321C519.39 412.321 519.354 412.32 519.318 412.318C519.23 412.311 519.247 412.315 519.368 412.33C519.332 412.355 519.135 412.279 519.101 412.269C519.089 412.265 518.914 412.212 519.04 412.251C519.162 412.29 519.002 412.231 518.985 412.222C518.936 412.196 518.891 412.165 518.842 412.138C518.788 412.108 518.74 412.115 518.87 412.165C518.781 412.131 518.691 411.998 518.63 411.925C518.744 412.062 518.612 411.89 518.598 411.868C518.574 411.83 518.552 411.792 518.53 411.753C518.498 411.695 518.469 411.635 518.44 411.575C518.511 411.721 518.446 411.588 518.431 411.547C518.348 411.312 518.287 411.07 518.249 410.823C518.242 410.781 518.223 410.626 518.243 410.795C518.235 410.726 518.227 410.658 518.221 410.589C518.21 410.474 518.202 410.36 518.195 410.245C518.177 409.955 518.167 409.665 518.158 409.375C518.124 408.182 518.151 406.988 518.239 405.797C518.282 405.216 518.34 404.636 518.411 404.057C518.421 403.974 518.432 403.892 518.443 403.809C518.427 403.927 518.445 403.789 518.448 403.772C518.469 403.621 518.491 403.47 518.513 403.319C518.559 403.017 518.609 402.716 518.663 402.415C518.9 401.09 519.212 399.779 519.599 398.489C519.711 398.068 519.465 397.635 519.046 397.515C518.625 397.408 518.195 397.652 518.071 398.068L518.071 398.068Z" fill="white"/>
<path d="M527.086 406.105C527.149 406.028 527.219 405.961 527.289 405.89C527.409 405.769 527.139 405.986 527.281 405.893C527.322 405.867 527.361 405.839 527.403 405.814C527.444 405.789 527.487 405.766 527.53 405.745C527.672 405.674 527.582 405.769 527.518 405.747C527.566 405.763 527.746 405.674 527.797 405.662C527.846 405.659 527.894 405.649 527.941 405.634L527.828 405.648C527.86 405.644 527.893 405.641 527.925 405.638C528.024 405.631 528.123 405.629 528.222 405.633C528.271 405.635 528.321 405.64 528.37 405.644C528.51 405.654 528.317 405.644 528.307 405.635C528.363 405.684 528.568 405.69 528.645 405.714C528.692 405.728 528.738 405.746 528.785 405.762C528.951 405.817 528.623 405.678 528.777 405.759C528.864 405.804 528.95 405.848 529.033 405.901C529.06 405.919 529.087 405.938 529.114 405.956C529.257 406.05 528.983 405.833 529.106 405.952C529.159 406.003 529.277 406.172 529.341 406.194C529.255 406.165 529.254 406.072 529.331 406.191C529.357 406.232 529.382 406.275 529.405 406.318C529.436 406.378 529.526 406.468 529.407 406.309C529.429 406.353 529.446 406.399 529.457 406.447C529.543 406.756 529.604 407.07 529.641 407.388C529.712 408.003 529.958 408.584 530.349 409.063C530.694 409.44 531.132 409.72 531.62 409.876C532.65 410.204 533.772 410.084 534.71 409.544C535.901 408.877 536.714 407.734 537.477 406.639C537.696 406.261 537.569 405.777 537.193 405.555C536.814 405.346 536.337 405.471 536.109 405.839C535.948 406.071 535.786 406.302 535.618 406.529C535.576 406.586 535.534 406.643 535.491 406.7C535.399 406.822 535.466 406.733 535.485 406.708C535.383 406.837 535.279 406.965 535.171 407.089C535.004 407.284 534.826 407.469 534.638 407.644C534.537 407.738 534.432 407.829 534.323 407.914C534.461 407.806 534.278 407.944 534.261 407.955C534.186 408.008 534.109 408.058 534.03 408.106C533.931 408.166 533.829 408.222 533.725 408.273L533.662 408.303C533.583 408.339 533.595 408.334 533.699 408.29C533.65 408.316 533.597 408.336 533.542 408.347C533.435 408.382 533.327 408.411 533.217 408.435C533.164 408.454 533.107 408.464 533.051 408.465L533.149 408.452C533.112 408.457 533.075 408.46 533.037 408.464C532.925 408.473 532.812 408.476 532.699 408.473C532.643 408.472 532.587 408.469 532.531 408.465L532.475 408.46C532.386 408.45 532.401 408.452 532.52 408.467C532.468 408.489 532.309 408.426 532.25 408.411C532.197 408.397 532.144 408.382 532.092 408.365C532.058 408.354 532.023 408.342 531.99 408.329C531.909 408.298 531.922 408.304 532.029 408.348C531.968 408.359 531.799 408.229 531.747 408.196C531.711 408.173 531.676 408.143 531.638 408.122C531.545 408.068 531.775 408.251 531.654 408.13C531.603 408.079 531.449 407.976 531.436 407.902L531.495 407.977C531.474 407.948 531.454 407.919 531.435 407.888C531.397 407.827 531.362 407.763 531.331 407.697C531.393 407.826 531.329 407.684 531.317 407.648C531.298 407.59 531.281 407.532 531.266 407.473C531.229 407.33 531.203 407.185 531.18 407.04C531.133 406.748 531.1 406.453 531.025 406.167C530.75 405.158 529.942 404.382 528.922 404.146C527.888 403.894 526.666 404.133 525.965 404.985C525.702 405.304 525.629 405.797 525.965 406.105C526.256 406.372 526.804 406.447 527.085 406.105H527.086Z" fill="white"/>
<path d="M534.286 400.343C531.723 402.856 529.482 405.677 527.614 408.741C527.096 409.59 526.609 410.456 526.153 411.34C525.94 411.719 526.066 412.198 526.437 412.424C526.8 412.616 527.317 412.532 527.521 412.139C528.329 410.577 529.233 409.066 530.228 407.616C530.473 407.258 530.723 406.905 530.979 406.555C531.1 406.391 531.221 406.227 531.344 406.065C531.405 405.983 531.467 405.902 531.529 405.821C531.624 405.697 531.566 405.773 531.545 405.8C531.592 405.739 531.639 405.679 531.686 405.619C532.22 404.937 532.775 404.271 533.35 403.622C534.01 402.879 534.695 402.159 535.406 401.463C535.713 401.154 535.712 400.654 535.404 400.345C535.095 400.037 534.595 400.036 534.285 400.343L534.286 400.343Z" fill="white"/>
</g>
<path d="M254.005 465.598H621.576V468.132C621.576 476.215 615.023 482.769 606.939 482.769H268.642C264.76 482.769 261.037 481.226 258.292 478.481C255.547 475.736 254.005 472.014 254.005 468.132V465.598L254.005 465.598Z" fill="#589BF7"/>
<mask id="mask18_78_5133" style="mask-type:luminance" maskUnits="userSpaceOnUse" x="254" y="465" width="368" height="18">
<path fill-rule="evenodd" clip-rule="evenodd" d="M254.005 465.598H621.576V468.132C621.576 476.215 615.023 482.769 606.939 482.769H268.642C264.76 482.769 261.037 481.226 258.292 478.481C255.547 475.736 254.005 472.014 254.005 468.132V465.598L254.005 465.598Z" fill="white"/>
</mask>
<g mask="url(#mask18_78_5133)">
<path d="M236.176 492.274C234.302 453.705 517.123 487.69 562.031 485.229C606.939 482.768 327.547 531.028 327.547 531.028L225.324 505.452" fill="#2976DF"/>
</g>
<circle cx="437.79" cy="282.258" r="3.21189" fill="#3152BA"/>
<path d="M368.251 465.598H507.33V465.64C507.33 470.358 503.505 474.183 498.786 474.183H376.795C372.076 474.183 368.251 470.358 368.251 465.64V465.598Z" fill="#2976DF"/>
<path d="M346.672 315.215L343.104 317.594C342.823 317.767 342.616 318.036 342.521 318.352C342.434 318.681 342.48 319.032 342.649 319.328C343.003 319.877 343.793 320.176 344.383 319.783L347.952 317.404C348.232 317.231 348.44 316.962 348.534 316.646C348.622 316.317 348.576 315.966 348.407 315.67C348.053 315.12 347.263 314.822 346.672 315.215Z" fill="#75AA3C"/>
<path d="M550.181 435.529L535.226 443.681L531.008 445.98C530.409 446.337 530.207 447.109 530.554 447.714C530.916 448.306 531.682 448.507 532.288 448.169L547.243 440.017L551.461 437.718C552.059 437.361 552.262 436.589 551.915 435.984C551.553 435.392 550.787 435.191 550.181 435.529Z" fill="#75AA3C"/>
</g>
</g>
</svg>
