<svg width="34" height="38" viewBox="0 0 34 38" fill="none" xmlns="http://www.w3.org/2000/svg">
<path d="M28 20.7911H26.7307L22.9973 24.5708H26.5627L29.8667 28.3506H3.73333L7.056 24.5708H10.8827L7.14933 20.7911H5.6L0 26.4607V34.0202C0 36.0991 1.66133 37.8 3.71467 37.8H29.8667C31.92 37.8 33.6 36.118 33.6 34.0202V26.4607L28 20.7911ZM29.8667 34.0202H3.73333V32.1304H29.8667V34.0202ZM15.568 24.6086C16.296 25.3457 17.472 25.3457 18.2 24.6086L30.072 12.589C30.8 11.8519 30.8 10.6613 30.072 9.92426L20.832 0.569349C20.1227 -0.186603 18.9467 -0.186603 18.2187 0.55045L6.328 12.589C5.6 13.326 5.6 14.5167 6.328 15.2537L15.568 24.6086ZM19.5253 4.557L26.1333 11.2472L16.8933 20.6021L10.2853 13.9119L19.5253 4.557Z" fill="#26036E"/>
</svg>
