<svg width="33" height="36" viewBox="0 0 33 36" fill="none" xmlns="http://www.w3.org/2000/svg">
<path d="M16.2 21.6C15.69 21.6 15.2628 21.4272 14.9184 21.0816C14.5728 20.7372 14.4 20.31 14.4 19.8C14.4 19.29 14.5728 18.8622 14.9184 18.5166C15.2628 18.1722 15.69 18 16.2 18C16.71 18 17.1378 18.1722 17.4834 18.5166C17.8278 18.8622 18 19.29 18 19.8C18 20.31 17.8278 20.7372 17.4834 21.0816C17.1378 21.4272 16.71 21.6 16.2 21.6ZM9 21.6C8.49 21.6 8.0622 21.4272 7.7166 21.0816C7.3722 20.7372 7.2 20.31 7.2 19.8C7.2 19.29 7.3722 18.8622 7.7166 18.5166C8.0622 18.1722 8.49 18 9 18C9.51 18 9.9378 18.1722 10.2834 18.5166C10.6278 18.8622 10.8 19.29 10.8 19.8C10.8 20.31 10.6278 20.7372 10.2834 21.0816C9.9378 21.4272 9.51 21.6 9 21.6ZM23.4 21.6C22.89 21.6 22.4628 21.4272 22.1184 21.0816C21.7728 20.7372 21.6 20.31 21.6 19.8C21.6 19.29 21.7728 18.8622 22.1184 18.5166C22.4628 18.1722 22.89 18 23.4 18C23.91 18 24.3372 18.1722 24.6816 18.5166C25.0272 18.8622 25.2 19.29 25.2 19.8C25.2 20.31 25.0272 20.7372 24.6816 21.0816C24.3372 21.4272 23.91 21.6 23.4 21.6ZM16.2 28.8C15.69 28.8 15.2628 28.6272 14.9184 28.2816C14.5728 27.9372 14.4 27.51 14.4 27C14.4 26.49 14.5728 26.0628 14.9184 25.7184C15.2628 25.3728 15.69 25.2 16.2 25.2C16.71 25.2 17.1378 25.3728 17.4834 25.7184C17.8278 26.0628 18 26.49 18 27C18 27.51 17.8278 27.9372 17.4834 28.2816C17.1378 28.6272 16.71 28.8 16.2 28.8ZM9 28.8C8.49 28.8 8.0622 28.6272 7.7166 28.2816C7.3722 27.9372 7.2 27.51 7.2 27C7.2 26.49 7.3722 26.0628 7.7166 25.7184C8.0622 25.3728 8.49 25.2 9 25.2C9.51 25.2 9.9378 25.3728 10.2834 25.7184C10.6278 26.0628 10.8 26.49 10.8 27C10.8 27.51 10.6278 27.9372 10.2834 28.2816C9.9378 28.6272 9.51 28.8 9 28.8ZM23.4 28.8C22.89 28.8 22.4628 28.6272 22.1184 28.2816C21.7728 27.9372 21.6 27.51 21.6 27C21.6 26.49 21.7728 26.0628 22.1184 25.7184C22.4628 25.3728 22.89 25.2 23.4 25.2C23.91 25.2 24.3372 25.3728 24.6816 25.7184C25.0272 26.0628 25.2 26.49 25.2 27C25.2 27.51 25.0272 27.9372 24.6816 28.2816C24.3372 28.6272 23.91 28.8 23.4 28.8ZM3.6 36C2.61 36 1.7622 35.6478 1.0566 34.9434C0.3522 34.2378 0 33.39 0 32.4V7.2C0 6.21 0.3522 5.3628 1.0566 4.6584C1.7622 3.9528 2.61 3.6 3.6 3.6H5.4V1.8C5.4 1.29 5.5722 0.8622 5.9166 0.5166C6.2622 0.1722 6.69 0 7.2 0C7.71 0 8.1378 0.1722 8.4834 0.5166C8.8278 0.8622 9 1.29 9 1.8V3.6H23.4V1.8C23.4 1.29 23.5728 0.8622 23.9184 0.5166C24.2628 0.1722 24.69 0 25.2 0C25.71 0 26.1372 0.1722 26.4816 0.5166C26.8272 0.8622 27 1.29 27 1.8V3.6H28.8C29.79 3.6 30.6378 3.9528 31.3434 4.6584C32.0478 5.3628 32.4 6.21 32.4 7.2V32.4C32.4 33.39 32.0478 34.2378 31.3434 34.9434C30.6378 35.6478 29.79 36 28.8 36H3.6ZM3.6 32.4H28.8V14.4H3.6V32.4Z" fill="#26036E"/>
</svg>
