<svg width="30" height="32" viewBox="0 0 30 32" fill="none" xmlns="http://www.w3.org/2000/svg">
<path d="M4.73684 25.2632H7.89474V28.4211H26.8421V3.15789H7.89474V6.31579H4.73684V1.57895C4.73684 1.16018 4.9032 0.758573 5.19931 0.462463C5.49542 0.166353 5.89703 0 6.31579 0H28.4211C28.8398 0 29.2414 0.166353 29.5375 0.462463C29.8336 0.758573 30 1.16018 30 1.57895V30C30 30.4188 29.8336 30.8204 29.5375 31.1165C29.2414 31.4126 28.8398 31.5789 28.4211 31.5789H6.31579C5.89703 31.5789 5.49542 31.4126 5.19931 31.1165C4.9032 30.8204 4.73684 30.4188 4.73684 30V25.2632ZM7.89474 14.2105H18.9474V17.3684H7.89474V22.1053L0 15.7895L7.89474 9.47368V14.2105Z" fill="white"/>
</svg>
