<svg width="35" height="35" viewBox="0 0 35 35" fill="none" xmlns="http://www.w3.org/2000/svg">
<path d="M17.5004 3.50576C17.0365 3.50576 16.5915 3.69007 16.2635 4.01813C15.9354 4.3462 15.7511 4.79115 15.7511 5.2551C15.7511 8.21497 12.172 9.69841 10.078 7.60445C9.91664 7.43737 9.72361 7.30411 9.51019 7.21243C9.29676 7.12074 9.06721 7.07249 8.83494 7.07047C8.60266 7.06845 8.37231 7.11271 8.15732 7.20067C7.94234 7.28863 7.74702 7.41852 7.58277 7.58277C7.41852 7.74702 7.28863 7.94234 7.20067 8.15732C7.11271 8.37231 7.06845 8.60266 7.07047 8.83494C7.07249 9.06721 7.12075 9.29676 7.21243 9.51019C7.30411 9.72361 7.43738 9.91664 7.60445 10.078C9.69841 12.172 8.21672 15.7511 5.2551 15.7511C4.79115 15.7511 4.3462 15.9354 4.01813 16.2635C3.69007 16.5915 3.50576 17.0365 3.50576 17.5004C3.50576 17.9644 3.69007 18.4093 4.01813 18.7374C4.3462 19.0655 4.79115 19.2498 5.2551 19.2498C8.21497 19.2498 9.69841 22.8289 7.60445 24.9229C7.2858 25.2528 7.10948 25.6947 7.11346 26.1533C7.11745 26.612 7.30142 27.0508 7.62576 27.3751C7.9501 27.6994 8.38886 27.8834 8.84753 27.8874C9.3062 27.8914 9.74808 27.7151 10.078 27.3964C12.172 25.3025 15.7511 26.7842 15.7511 29.7458C15.7511 30.2097 15.9354 30.6547 16.2635 30.9827C16.5915 31.3108 17.0365 31.4951 17.5004 31.4951C17.9644 31.4951 18.4093 31.3108 18.7374 30.9827C19.0655 30.6547 19.2498 30.2097 19.2498 29.7458C19.2498 26.7859 22.8289 25.3025 24.9229 27.3964C25.0842 27.5635 25.2773 27.6968 25.4907 27.7884C25.7041 27.8801 25.9337 27.9284 26.1659 27.9304C26.3982 27.9324 26.6286 27.8882 26.8435 27.8002C27.0585 27.7122 27.2539 27.5823 27.4181 27.4181C27.5824 27.2539 27.7122 27.0585 27.8002 26.8435C27.8882 26.6286 27.9324 26.3982 27.9304 26.1659C27.9284 25.9337 27.8801 25.7041 27.7884 25.4907C27.6968 25.2773 27.5635 25.0842 27.3964 24.9229C25.3025 22.8289 26.7842 19.2498 29.7458 19.2498C30.2097 19.2498 30.6547 19.0655 30.9827 18.7374C31.3108 18.4093 31.4951 17.9644 31.4951 17.5004C31.4951 17.0365 31.3108 16.5915 30.9827 16.2635C30.6547 15.9354 30.2097 15.7511 29.7458 15.7511C26.7859 15.7511 25.3025 12.172 27.3964 10.078C27.7151 9.74808 27.8914 9.3062 27.8874 8.84753C27.8834 8.38886 27.6995 7.9501 27.3751 7.62576C27.0508 7.30142 26.612 7.11745 26.1533 7.11346C25.6947 7.10948 25.2528 7.2858 24.9229 7.60445C22.8289 9.69841 19.2498 8.21672 19.2498 5.2551C19.2498 4.79115 19.0655 4.3462 18.7374 4.01813C18.4093 3.69007 17.9644 3.50576 17.5004 3.50576ZM12.2664 4.865C12.3632 3.54298 12.9566 2.30654 13.9275 1.40408C14.8984 0.501617 16.1749 0 17.5004 0C18.826 0 20.1024 0.501617 21.0734 1.40408C22.0443 2.30654 22.6377 3.54298 22.7344 4.865C23.7382 4.00289 25.0306 3.55179 26.3528 3.60199C27.6751 3.6522 28.9295 4.20002 29.8651 5.13576C30.8006 6.0715 31.3481 7.32609 31.398 8.64832C31.4479 9.97056 30.9965 11.2628 30.1341 12.2664C31.4562 12.3629 32.6927 12.9562 33.5953 13.9269C34.4979 14.8977 34.9998 16.1741 35 17.4996C35.0002 18.8252 34.4988 20.1017 33.5965 21.0728C32.6942 22.0438 31.4579 22.6375 30.1359 22.7344C30.998 23.7382 31.4491 25.0306 31.3989 26.3528C31.3487 27.6751 30.8009 28.9295 29.8651 29.8651C28.9294 30.8006 27.6748 31.3481 26.3525 31.398C25.0303 31.4479 23.738 30.9965 22.7344 30.1341C22.6377 31.4561 22.0443 32.6926 21.0734 33.595C20.1024 34.4975 18.826 34.9991 17.5004 34.9991C16.1749 34.9991 14.8984 34.4975 13.9275 33.595C12.9566 32.6926 12.3632 31.4561 12.2664 30.1341C11.2628 30.9965 9.97056 31.4479 8.64832 31.398C7.32609 31.3481 6.0715 30.8006 5.13576 29.8651C4.20002 28.9295 3.6522 27.6751 3.60199 26.3528C3.55179 25.0306 4.0029 23.7382 4.865 22.7344C3.54298 22.6377 2.30654 22.0443 1.40408 21.0734C0.501617 20.1024 0 18.826 0 17.5004C0 16.1749 0.501617 14.8984 1.40408 13.9275C2.30654 12.9566 3.54298 12.3632 4.865 12.2664C4.00027 11.263 3.54696 9.96974 3.59602 8.64604C3.64508 7.32234 4.19288 6.06616 5.12952 5.12952C6.06616 4.19288 7.32234 3.64508 8.64604 3.59602C9.96974 3.54696 11.263 4.00027 12.2664 4.865Z" fill="#26036E"/>
<path d="M17.5002 14.0018C16.5723 14.0018 15.6824 14.3704 15.0263 15.0265C14.3702 15.6826 14.0016 16.5725 14.0016 17.5004C14.0016 18.4283 14.3702 19.3182 15.0263 19.9744C15.6824 20.6305 16.5723 20.9991 17.5002 20.9991C18.4281 20.9991 19.318 20.6305 19.9741 19.9744C20.6303 19.3182 20.9989 18.4283 20.9989 17.5004C20.9989 16.5725 20.6303 15.6826 19.9741 15.0265C19.318 14.3704 18.4281 14.0018 17.5002 14.0018ZM12.5531 12.5533C13.1986 11.885 13.9707 11.3519 14.8244 10.9852C15.6781 10.6185 16.5963 10.4255 17.5254 10.4174C18.4545 10.4093 19.3759 10.5863 20.2359 10.9382C21.0958 11.29 21.8771 11.8096 22.5341 12.4666C23.1911 13.1236 23.7106 13.9049 24.0625 14.7648C24.4143 15.6247 24.5913 16.5462 24.5833 17.4753C24.5752 18.4044 24.3822 19.3225 24.0154 20.1762C23.6487 21.03 23.1157 21.8021 22.4473 22.4476C21.1276 23.7222 19.3601 24.4275 17.5254 24.4115C15.6907 24.3956 13.9357 23.6597 12.6383 22.3623C11.341 21.065 10.6051 19.3099 10.5891 17.4753C10.5732 15.6406 11.2785 13.873 12.5531 12.5533Z" fill="#26036E"/>
</svg>
