<svg width="34" height="31" viewBox="0 0 34 31" fill="none" xmlns="http://www.w3.org/2000/svg">
<path d="M19.0824 0H11.4495V7.63291H19.0824V0Z" fill="#26036E"/>
<path d="M7.63291 22.8987H0V30.5316H7.63291V22.8987Z" fill="#26036E"/>
<path d="M7.63291 11.4493H0V19.0823H7.63291V11.4493Z" fill="#26036E"/>
<path d="M7.63291 0H0V7.63291H7.63291V0Z" fill="#26036E"/>
<path d="M30.5319 0H22.899V7.63291H30.5319V0Z" fill="#26036E"/>
<path d="M12.7217 26.6898V30.5317H16.5636L29.0052 18.0646L25.1888 14.2482L12.7217 26.6898Z" fill="#26036E"/>
<path d="M19.0824 14.9605V11.4493H11.4495V19.0823H14.9352L19.0824 14.9605Z" fill="#26036E"/>
<path d="M29.7859 9.63362L26.9793 12.4402L30.7934 16.2542L33.5999 13.4477L29.7859 9.63362Z" fill="#26036E"/>
</svg>
