<svg width="34" height="30" viewBox="0 0 34 30" fill="none" xmlns="http://www.w3.org/2000/svg">
<path d="M30.3698 0H3.09896C2.27832 0.00407273 1.49245 0.331877 0.912164 0.912164C0.331877 1.49245 0.00407273 2.27832 0 3.09896V27.8906C0.000349377 28.2075 0.0816705 28.519 0.236245 28.7956C0.390819 29.0722 0.613518 29.3047 0.883203 29.4711C1.15306 29.6392 1.46181 29.7347 1.77946 29.7483C2.09711 29.7618 2.41288 29.6931 2.69609 29.5486L6.81771 27.4878L10.9393 29.5486C11.1992 29.6782 11.4856 29.7456 11.776 29.7456C12.0664 29.7456 12.3529 29.6782 12.6128 29.5486L16.7344 27.4878L20.856 29.5486C21.1152 29.6805 21.4019 29.7493 21.6927 29.7493C21.9835 29.7493 22.2703 29.6805 22.5294 29.5486L26.651 27.4878L30.7727 29.5486C31.0559 29.6931 31.3716 29.7618 31.6893 29.7483C32.0069 29.7347 32.3157 29.6392 32.5856 29.4711C32.8552 29.3047 33.0779 29.0722 33.2325 28.7956C33.3871 28.519 33.4684 28.2075 33.4688 27.8906V3.09896C33.4647 2.27832 33.1369 1.49245 32.5566 0.912164C31.9763 0.331877 31.1904 0.00407273 30.3698 0ZM29.75 24.8846L27.4878 23.7535C27.2279 23.6239 26.9415 23.5565 26.651 23.5565C26.3606 23.5565 26.0742 23.6239 25.8143 23.7535L21.6927 25.8143L17.5711 23.7535C17.3119 23.6215 17.0252 23.5527 16.7344 23.5527C16.4435 23.5527 16.1568 23.6215 15.8977 23.7535L11.776 25.8143L7.65443 23.7535C7.39455 23.6239 7.10811 23.5565 6.81771 23.5565C6.52731 23.5565 6.24087 23.6239 5.98099 23.7535L3.71875 24.8846V3.71875H29.75V24.8846ZM6.60078 20.8715C6.81815 20.9832 7.05555 21.0505 7.29918 21.0696C7.54281 21.0887 7.78781 21.0592 8.01993 20.9828C8.25205 20.9064 8.46667 20.7846 8.65131 20.6245C8.83594 20.4644 8.98691 20.2692 9.09544 20.0503L9.8237 18.5938H14.968L15.6962 20.0503C15.7985 20.2805 15.9465 20.4875 16.1312 20.6588C16.3159 20.83 16.5334 20.962 16.7707 21.0466C17.0079 21.1313 17.2599 21.1668 17.5113 21.1511C17.7627 21.1354 18.0083 21.0688 18.2332 20.9553C18.4581 20.8419 18.6576 20.6839 18.8195 20.4909C18.9815 20.298 19.1026 20.0742 19.1754 19.8331C19.2483 19.5919 19.2713 19.3385 19.2433 19.0882C19.2152 18.8379 19.1366 18.5958 19.0121 18.3768L14.0538 8.46016C13.8983 8.15399 13.6611 7.89684 13.3685 7.71721C13.0759 7.53759 12.7392 7.44251 12.3958 7.44251C12.0525 7.44251 11.7158 7.53759 11.4232 7.71721C11.1305 7.89684 10.8933 8.15399 10.7379 8.46016L5.77956 18.3768C5.66789 18.5942 5.60054 18.8316 5.58143 19.0752C5.56232 19.3189 5.59182 19.5638 5.66824 19.796C5.74465 20.0281 5.86644 20.2427 6.02654 20.4273C6.18663 20.612 6.38183 20.763 6.60078 20.8715ZM13.1086 14.875H11.6831L12.3958 13.4495L13.1086 14.875ZM19.2135 14.2552C19.2135 13.7621 19.4094 13.2891 19.7581 12.9404C20.1068 12.5917 20.5798 12.3958 21.0729 12.3958H21.6927V11.776C21.6927 11.2829 21.8886 10.81 22.2373 10.4613C22.586 10.1126 23.0589 9.91667 23.5521 9.91667C24.0452 9.91667 24.5182 10.1126 24.8669 10.4613C25.2156 10.81 25.4115 11.2829 25.4115 11.776V12.3958H26.0313C26.5244 12.3958 26.9973 12.5917 27.346 12.9404C27.6947 13.2891 27.8906 13.7621 27.8906 14.2552C27.8906 14.7483 27.6947 15.2213 27.346 15.57C26.9973 15.9187 26.5244 16.1146 26.0313 16.1146H25.4115V16.7344C25.4115 17.2275 25.2156 17.7005 24.8669 18.0492C24.5182 18.3979 24.0452 18.5938 23.5521 18.5938C23.0589 18.5938 22.586 18.3979 22.2373 18.0492C21.8886 17.7005 21.6927 17.2275 21.6927 16.7344V16.1146H21.0729C20.5798 16.1146 20.1068 15.9187 19.7581 15.57C19.4094 15.2213 19.2135 14.7483 19.2135 14.2552Z" fill="#26036E"/>
</svg>
