<svg width="34" height="30" viewBox="0 0 34 30" fill="none" xmlns="http://www.w3.org/2000/svg">
<path d="M2.29138 0C1.02508 0 0 1.03874 0 2.3216V27.0784C0 28.3614 1.02508 29.4 2.29138 29.4H31.3086C32.5749 29.4 33.6 28.3614 33.6 27.0784V2.3216C33.6 1.0386 32.5749 0 31.3086 0H2.29138ZM3.05438 3.09467H30.5458V26.3053H26.7285V24.7595H19.8542V26.3053H3.05424V3.09467H3.05438ZM16.8 9.28372C15.5336 9.28372 14.5086 10.3223 14.5086 11.6055C14.5086 12.8885 15.5336 13.9271 16.8 13.9271C18.0664 13.9271 19.0914 12.8885 19.0914 11.6055C19.0914 10.3223 18.0664 9.28372 16.8 9.28372ZM10.6914 11.9933C9.74316 11.9933 8.97148 12.7724 8.97148 13.7332C8.97148 14.6938 9.74316 15.4729 10.6914 15.4729C11.6396 15.4729 12.4086 14.6938 12.4086 13.7332C12.4086 12.7724 11.6396 11.9933 10.6914 11.9933ZM22.9086 11.9933C21.9604 11.9933 21.1914 12.7724 21.1914 13.7332C21.1914 14.6938 21.9604 15.4729 22.9086 15.4729C23.8568 15.4729 24.6285 14.6938 24.6285 13.7332C24.6285 12.7724 23.8568 11.9933 22.9086 11.9933ZM16.8 15.4729C15.1494 15.4729 13.4221 16.042 12.3922 16.8998C11.8546 16.7298 11.2662 16.6338 10.6914 16.6338C8.85234 16.6338 6.87148 17.6196 6.87148 18.8446V20.1163H26.7285V18.8446C26.7285 17.6195 24.7477 16.6338 22.9086 16.6338C22.3338 16.6338 21.7452 16.7298 21.2078 16.8998C20.1779 16.042 18.4506 15.4729 16.8 15.4729Z" fill="#26036E"/>
</svg>
