<svg width="34" height="34" viewBox="0 0 34 34" fill="none" xmlns="http://www.w3.org/2000/svg">
<path d="M0 3.73333C0 2.74319 0.393332 1.7936 1.09347 1.09347C1.7936 0.393332 2.74319 0 3.73333 0H29.8667C30.8568 0 31.8064 0.393332 32.5065 1.09347C33.2067 1.7936 33.6 2.74319 33.6 3.73333V29.8667C33.6 30.8568 33.2067 31.8064 32.5065 32.5065C31.8064 33.2067 30.8568 33.6 29.8667 33.6H3.73333C2.74319 33.6 1.7936 33.2067 1.09347 32.5065C0.393332 31.8064 0 30.8568 0 29.8667V3.73333ZM3.73333 20.5333V29.8667H29.8667V20.5333H25.6107L24.1715 24.8565C24.0476 25.2284 23.8099 25.5518 23.4919 25.781C23.174 26.0102 22.7919 26.1334 22.4 26.1333H11.2C10.8081 26.1334 10.426 26.0102 10.1081 25.781C9.79014 25.5518 9.55238 25.2284 9.42853 24.8565L7.98933 20.5333H3.73333ZM29.8667 16.8V3.73333H3.73333V16.8H7.98933C8.77265 16.8001 9.53611 17.0465 10.1716 17.5045C10.8071 17.9624 11.2825 18.6087 11.5304 19.3517L12.544 22.4H21.0523L22.0677 19.3517C22.3159 18.6081 22.7918 17.9614 23.428 17.5034C24.0643 17.0454 24.8286 16.7993 25.6125 16.8H29.8667Z" fill="#26036E"/>
</svg>
