<svg width="596" height="396" viewBox="0 0 596 396" fill="none" xmlns="http://www.w3.org/2000/svg">
<path d="M481.05 137.396C504.78 201.226 463.486 294.219 463.486 294.219Z" fill="#FFC562"/>
<path d="M436.931 89.0454C481.181 127.599 518.202 191.441 450.713 293.715C450.713 293.715 356.217 204.996 436.931 89.0454Z" fill="#FF9763"/>
<mask id="mask0_5_7138" style="mask-type:luminance" maskUnits="userSpaceOnUse" x="404" y="89" width="84" height="205">
<path fill-rule="evenodd" clip-rule="evenodd" d="M436.931 89.0454C481.181 127.599 518.202 191.441 450.713 293.715C450.713 293.715 356.217 204.996 436.931 89.0454Z" fill="white"/>
</mask>
<g mask="url(#mask0_5_7138)">
<path d="M434.539 73.2842C382.922 156.293 457.869 153.224 460.678 223.722C463.487 294.219 394.282 167.574 394.282 167.574L408.895 89.0455H415.489" fill="#E5713E"/>
</g>
<path d="M438.075 108.941C441.883 115.95 445.132 123.249 447.792 130.769C450.462 138.229 452.452 145.862 454.113 153.54C455.735 161.228 456.891 168.988 457.769 176.77C458.649 184.554 459.054 192.376 459.279 200.196C459.77 215.842 459.033 231.51 457.591 247.118C456.867 254.923 455.928 262.711 454.775 270.482C453.659 278.255 452.33 286.006 450.713 293.715C454.585 278.406 457.105 262.84 458.871 247.221C459.779 239.41 460.31 231.568 460.677 223.722C461.014 215.875 461.174 208.016 460.946 200.16C460.445 184.459 458.863 168.743 455.367 153.323L455.053 151.876L454.682 150.439L453.939 147.565L453.197 144.693C452.939 143.737 452.627 142.794 452.345 141.844C451.751 139.95 451.223 138.042 450.575 136.163L448.566 130.545C445.654 123.126 442.248 115.857 438.075 108.941Z" fill="#E5713E"/>
<path d="M508.364 0.523926C537.92 66.718 555.229 158.454 472.322 242.891C472.322 242.891 410.706 94.1807 508.364 0.523926Z" fill="#FFC562"/>
<mask id="mask1_5_7138" style="mask-type:luminance" maskUnits="userSpaceOnUse" x="453" y="0" width="80" height="243">
<path fill-rule="evenodd" clip-rule="evenodd" d="M508.364 0.523926C537.92 66.718 555.229 158.454 472.322 242.891C472.322 242.891 410.706 94.1807 508.364 0.523926Z" fill="white"/>
</mask>
<g mask="url(#mask1_5_7138)">
<path d="M501.459 -16.1045L508.365 0.523932C508.365 0.523932 531.6 136.788 481.36 230.815C431.12 324.842 605.013 84.2138 605.013 84.2138L539.559 3.2756L501.459 -16.1045Z" fill="#D89D35"/>
</g>
<path d="M504.69 23.9875C506.16 33.19 507.312 42.423 507.847 51.6956C508.011 54.0109 508.063 56.3323 508.176 58.6497L508.325 62.127L508.364 65.6068C508.376 67.9267 508.422 70.2461 508.408 72.5654L508.251 79.523C507.649 98.1003 505.732 116.612 502.515 134.918C500.959 144.093 499.176 153.24 497.094 162.335C495.021 171.433 492.652 180.474 490.168 189.491C487.661 198.504 484.919 207.463 481.941 216.369C479.013 225.284 475.806 234.125 472.322 242.891C479.938 225.572 486.071 207.756 491.413 189.774C496.707 171.822 500.964 153.58 504.164 135.14C505.746 125.94 506.932 116.688 507.877 107.421L508.524 100.465L509.001 93.4973C509.187 91.1761 509.25 88.849 509.343 86.5237C509.413 84.1978 509.547 81.8736 509.529 79.5459L509.572 72.5661C509.549 70.2398 509.464 67.9137 509.413 65.5879L509.317 62.0999L509.111 58.615C508.956 56.2928 508.878 53.967 508.659 51.6489L507.959 44.6992L507.782 42.9627L507.539 41.2317L507.055 37.7705C506.505 33.1454 505.521 28.5729 504.69 23.9875Z" fill="#FFC562"/>
<path d="M320.892 106.021C381.986 115.315 453.358 149.051 463.486 267.257C463.486 267.257 328.922 242.16 320.892 106.021Z" fill="#FFC562"/>
<mask id="mask2_5_7138" style="mask-type:luminance" maskUnits="userSpaceOnUse" x="320" y="106" width="144" height="162">
<path fill-rule="evenodd" clip-rule="evenodd" d="M320.893 106.021C381.987 115.315 453.359 149.051 463.487 267.257C463.487 267.257 328.923 242.16 320.893 106.021Z" fill="white"/>
</mask>
<g mask="url(#mask2_5_7138)">
<path d="M286.536 128.969L320.893 106.021C320.893 106.021 362.748 227.593 459.451 257.19C556.154 286.787 256.495 307.746 256.495 307.746L279.209 133.439" fill="#D89D35"/>
</g>
<path d="M334.593 121.794C342.212 125.624 349.558 129.976 356.579 134.816C363.557 139.597 370.089 144.863 376.377 150.332C382.642 155.83 388.569 161.623 394.282 167.574C399.997 173.527 405.347 179.75 410.547 186.063C420.985 198.674 430.428 211.923 439.254 225.48C443.664 232.262 447.888 239.137 451.924 246.108C455.992 253.061 459.87 260.104 463.486 267.258C456.85 252.716 448.938 238.648 440.371 224.918C436.108 218.039 431.515 211.325 426.785 204.69C422.028 198.071 417.12 191.531 411.894 185.19C401.412 172.54 390.033 160.424 377.27 149.519L376.083 148.489L374.856 147.496L372.403 145.51L369.951 143.525C369.126 142.87 368.264 142.252 367.423 141.615C365.721 140.359 364.062 139.058 362.325 137.841L357.071 134.241C349.92 129.617 342.459 125.366 334.593 121.794Z" fill="#FFC562"/>
<path d="M592.784 100.201C603.127 154.486 590.904 225.474 468.675 273.078C468.675 273.078 450.811 151.981 592.784 100.201Z" fill="#FF9763"/>
<mask id="mask3_5_7138" style="mask-type:luminance" maskUnits="userSpaceOnUse" x="467" y="100" width="129" height="174">
<path fill-rule="evenodd" clip-rule="evenodd" d="M592.784 100.201C603.127 154.486 590.904 225.474 468.675 273.078C468.675 273.078 450.811 151.981 592.784 100.201Z" fill="white"/>
</mask>
<g mask="url(#mask3_5_7138)">
<path d="M438.075 232.034C541.815 279.778 591.961 160.218 591.961 160.218L603.058 259.388L532.816 300.419L422.327 262.186L426.235 238.801" fill="#E5713E"/>
</g>
<path d="M580.562 116.904C578.988 124.647 576.795 132.251 574.002 139.642C571.233 147.073 567.8 154.291 564.07 161.372C560.302 168.442 556.109 175.327 551.677 182.085C547.244 188.845 542.403 195.389 537.416 201.837C527.473 214.759 516.522 227.058 505.04 238.942C499.295 244.883 493.388 250.698 487.318 256.388C481.277 262.099 475.063 267.662 468.675 273.078C481.927 262.704 494.255 251.416 506.007 239.692C511.904 233.843 517.518 227.771 523 221.611C528.459 215.434 533.782 209.155 538.79 202.677C548.761 189.704 557.867 176.157 565.229 161.85L565.931 160.515L566.58 159.158L567.878 156.445L569.175 153.732C569.597 152.824 569.969 151.897 570.368 150.981C571.139 149.139 571.973 147.318 572.69 145.46L574.776 139.864C577.322 132.34 579.37 124.679 580.562 116.904Z" fill="#E5713E"/>
<path d="M399.04 388.715H525.515L548.594 244.683H375.961L399.04 388.715V388.715Z" fill="#9A7ED9"/>
<mask id="mask4_5_7138" style="mask-type:luminance" maskUnits="userSpaceOnUse" x="375" y="244" width="174" height="145">
<path fill-rule="evenodd" clip-rule="evenodd" d="M399.04 388.715H525.515L548.594 244.683H375.961L399.04 388.715V388.715Z" fill="white"/>
</mask>
<g mask="url(#mask4_5_7138)">
<path d="M361.912 262.186C585.474 275.507 509.572 388.715 509.572 388.715L548.594 392.738L580.562 253.432L548.594 226.322L345.15 242.891" fill="#6F4EB9"/>
</g>
<rect x="563.121" y="262.186" width="201.208" height="23.3844" transform="rotate(-180 563.121 262.186)" fill="#9A7ED9"/>
<path d="M437.933 352.729L440.119 354.212C440.531 354.453 441.047 354.42 441.424 354.13C441.802 353.839 441.966 353.349 441.84 352.89C441.748 352.601 441.557 352.353 441.302 352.19L439.115 350.707C438.704 350.467 438.188 350.499 437.811 350.79C437.433 351.08 437.269 351.57 437.395 352.029C437.487 352.318 437.678 352.566 437.933 352.729V352.729Z" fill="#D89D35"/>
<path d="M378.443 179.054C379.427 181.718 380.701 184.267 382.241 186.654C382.574 187.167 383.295 187.428 383.843 187.074C384.356 186.743 384.62 186.022 384.263 185.472C383.526 184.336 382.851 183.162 382.24 181.953C381.936 181.349 381.648 180.736 381.376 180.116C381.347 180.049 381.317 179.981 381.288 179.913C381.271 179.873 381.254 179.832 381.236 179.792C381.291 179.923 381.302 179.948 381.268 179.868C381.206 179.719 381.144 179.569 381.084 179.419C380.951 179.092 380.824 178.762 380.701 178.431C380.488 177.859 379.899 177.407 379.261 177.613C378.7 177.795 378.214 178.439 378.443 179.054V179.054Z" fill="#D89D35"/>
<path d="M518.392 72.0766C518.423 72.2593 518.453 72.4422 518.482 72.6252C518.531 72.8363 518.563 73.0509 518.577 73.267C518.577 73.2591 518.548 73.0479 518.566 73.1853C518.572 73.2314 518.578 73.2772 518.584 73.3232C518.595 73.4151 518.607 73.5071 518.618 73.5991C518.643 73.8138 518.667 74.0287 518.689 74.2439C518.771 75.0429 518.825 75.844 518.854 76.6472C518.91 78.2376 518.863 79.83 518.712 81.4143C518.67 81.8574 518.639 82.3109 518.56 82.7492C518.561 82.7411 518.59 82.5308 518.57 82.6675C518.561 82.7286 518.553 82.7899 518.544 82.851C518.529 82.958 518.513 83.0649 518.496 83.1718C518.459 83.4161 518.419 83.6599 518.376 83.9034C518.303 84.2084 518.345 84.5299 518.494 84.8057C518.65 85.0679 518.901 85.2605 519.194 85.3439C519.763 85.4734 520.523 85.1714 520.635 84.526C521.221 81.2091 521.362 77.8287 521.054 74.4745C520.958 73.4634 520.823 72.4566 520.651 71.4541C520.547 70.8486 519.77 70.4549 519.21 70.6362C518.557 70.8475 518.281 71.428 518.392 72.0767L518.392 72.0766Z" fill="#D89D35"/>
<path d="M524.805 196.871L519.688 203.84C519.529 204.113 519.487 204.438 519.57 204.742C519.653 205.036 519.846 205.286 520.108 205.442C520.718 205.764 521.322 205.551 521.71 205.022L526.827 198.053C526.986 197.78 527.028 197.455 526.945 197.15C526.862 196.857 526.669 196.606 526.407 196.45C525.797 196.128 525.193 196.342 524.805 196.871V196.871Z" fill="#E5713E"/>
<path d="M365.365 58.4917C365.163 52.9053 363.784 47.4245 361.317 42.408C360.381 40.5033 359.291 38.6777 358.06 36.9489C348.868 24.0253 332.388 17.371 316.082 21.4748C299.776 25.5786 288.409 39.2419 286.431 54.9771C286.165 57.0828 286.069 59.2066 286.146 61.3277C286.348 66.9142 287.727 72.3949 290.194 77.4115C299.868 77.1006 312.86 75.4125 328.657 71.4366C344.453 67.4608 356.697 62.7973 365.365 58.4917Z" fill="#9A7ED9"/>
<mask id="mask5_5_7138" style="mask-type:luminance" maskUnits="userSpaceOnUse" x="286" y="20" width="80" height="58">
<path fill-rule="evenodd" clip-rule="evenodd" d="M365.365 58.4917C365.163 52.9053 363.784 47.4245 361.317 42.408C360.381 40.5033 359.291 38.6777 358.06 36.9489C348.868 24.0253 332.388 17.371 316.082 21.4748C299.776 25.5786 288.409 39.2419 286.431 54.9771C286.165 57.0828 286.069 59.2066 286.146 61.3277C286.348 66.9142 287.727 72.3949 290.194 77.4115C299.868 77.1006 312.86 75.4125 328.657 71.4366C344.453 67.4608 356.697 62.7973 365.365 58.4917Z" fill="white"/>
</mask>
<g mask="url(#mask5_5_7138)">
<path d="M300.243 14.941C384.598 19.9356 367.279 66.2022 307.129 75.7984C246.98 85.3946 386.623 69.4654 386.623 69.4654L384.343 23.5438L320.376 11.1206L303.301 19.7461" fill="#6F4EB9"/>
</g>
<path d="M293.451 82.8706C302.643 95.7946 319.123 102.449 335.429 98.3448C351.734 94.2408 363.102 80.5777 365.08 64.8428C355.318 69.3644 343.123 73.556 330.02 76.8538C316.917 80.1516 304.19 82.2327 293.451 82.8706Z" fill="#9A7ED9"/>
<mask id="mask6_5_7138" style="mask-type:luminance" maskUnits="userSpaceOnUse" x="293" y="64" width="73" height="36">
<path fill-rule="evenodd" clip-rule="evenodd" d="M293.451 82.8706C302.643 95.7946 319.123 102.449 335.429 98.3448C351.734 94.2408 363.102 80.5777 365.08 64.8428C355.318 69.3644 343.123 73.556 330.02 76.8538C316.917 80.1516 304.19 82.2327 293.451 82.8706Z" fill="white"/>
</mask>
<g mask="url(#mask6_5_7138)">
<path d="M311.496 103.181C287.323 83.083 334.687 78.9711 355.84 67.3253C376.992 55.6795 273.715 76.0023 273.715 76.0023L292.383 98.2391" fill="#6F4EB9"/>
</g>
<path d="M386.421 44.6411C385.082 39.3194 377.601 36.6591 364.188 36.7365C362.234 36.7478 360.182 36.823 358.06 36.949C359.291 38.6778 360.381 40.5034 361.317 42.4081C373.535 42.0156 380.455 43.8209 381.004 46.0045C381.554 48.188 376.313 53.0539 365.365 58.4917C356.697 62.7973 344.454 67.4608 328.657 71.4367C312.86 75.4125 299.868 77.1006 290.194 77.4115C277.977 77.8042 271.057 75.9987 270.507 73.8153C269.958 71.6317 275.198 66.7656 286.146 61.3277C286.069 59.2066 286.165 57.0827 286.431 54.977C284.502 55.8706 282.659 56.7758 280.932 57.6911C269.08 63.9725 263.751 69.8568 265.09 75.1784C266.43 80.5003 273.91 83.1604 287.323 83.0829C289.277 83.0718 291.329 82.9968 293.452 82.8705C304.191 82.2325 316.917 80.1514 330.02 76.8536C343.123 73.5558 355.318 69.3642 365.08 64.8426C367.009 63.9488 368.853 63.0436 370.579 62.1285C382.431 55.847 387.761 49.9627 386.421 44.6411Z" fill="#97CC64"/>
<mask id="mask7_5_7138" style="mask-type:luminance" maskUnits="userSpaceOnUse" x="264" y="36" width="123" height="48">
<path fill-rule="evenodd" clip-rule="evenodd" d="M386.421 44.6411C385.082 39.3194 377.601 36.6591 364.188 36.7365C362.234 36.7478 360.182 36.823 358.06 36.949C359.291 38.6778 360.381 40.5034 361.317 42.4081C373.535 42.0156 380.455 43.8209 381.004 46.0045C381.554 48.188 376.313 53.0539 365.365 58.4917C356.697 62.7973 344.454 67.4608 328.657 71.4367C312.86 75.4125 299.868 77.1006 290.194 77.4115C277.977 77.8042 271.057 75.9987 270.507 73.8153C269.958 71.6317 275.198 66.7656 286.146 61.3277C286.069 59.2066 286.165 57.0827 286.431 54.977C284.502 55.8706 282.659 56.7758 280.932 57.6911C269.08 63.9725 263.751 69.8568 265.09 75.1784C266.43 80.5003 273.91 83.1604 287.323 83.0829C289.277 83.0718 291.329 82.9968 293.452 82.8705C304.191 82.2325 316.917 80.1514 330.02 76.8536C343.123 73.5558 355.318 69.3642 365.08 64.8426C367.009 63.9488 368.853 63.0436 370.579 62.1285C382.431 55.847 387.761 49.9627 386.421 44.6411Z" fill="white"/>
</mask>
<g mask="url(#mask7_5_7138)">
<path d="M255.899 59.9096C293.107 54.0482 289.539 70.7606 289.539 70.7606L298.714 50.0054L283.933 46.9431" fill="#75AA3C"/>
<path d="M347.899 31.1211C366.503 33.6604 368.542 46.9432 368.542 46.9432L352.741 50.0055L347.645 45.1285" fill="#75AA3C"/>
</g>
<path d="M324.655 38.7393C323.149 41.316 321.042 43.4901 318.514 45.0758Z" fill="#190000"/>
<path d="M324.303 38.5335C322.83 41.0477 320.774 43.1709 318.308 44.7239C317.866 45.0021 318.274 45.7073 318.72 45.4272C321.304 43.8015 323.461 41.5782 325.007 38.9446C325.272 38.4913 324.568 38.0809 324.303 38.5335H324.303Z" fill="#6F4EB9"/>
<path d="M345.293 86.6475C344.684 87.4842 343.902 88.18 343 88.6875Z" fill="#190000"/>
<path d="M344.942 86.442C344.904 86.4934 344.866 86.5446 344.827 86.5949C344.862 86.5498 344.824 86.5981 344.809 86.6177C344.789 86.6425 344.769 86.6673 344.749 86.6919C344.668 86.7902 344.584 86.8864 344.499 86.9804C344.331 87.1636 344.154 87.338 343.969 87.503C343.879 87.5834 343.786 87.6615 343.692 87.7373C343.667 87.7572 343.642 87.7768 343.617 87.7965C343.583 87.8235 343.652 87.7713 343.594 87.8142C343.542 87.8519 343.491 87.8901 343.44 87.927C343.232 88.0744 343.017 88.2109 342.795 88.3359C342.601 88.4494 342.535 88.6989 342.649 88.8931C342.763 89.0874 343.012 89.1528 343.206 89.0392C344.166 88.4927 344.997 87.7474 345.645 86.8532C345.758 86.6588 345.692 86.4099 345.499 86.2959C345.304 86.1888 345.059 86.253 344.942 86.442H344.942Z" fill="#6F4EB9"/>
<path d="M279.525 79.4932L277.242 81.5438Z" fill="#190000"/>
<path d="M279.238 79.2052L276.955 81.2558C276.797 81.4155 276.797 81.6721 276.955 81.8318C277.116 81.9859 277.37 81.9859 277.531 81.8318L279.814 79.7812C279.971 79.6215 279.971 79.3648 279.814 79.2052C279.652 79.0511 279.399 79.0511 279.238 79.2052V79.2052Z" fill="#75AA3C"/>
<rect x="97.2295" y="137.012" width="359.102" height="251.936" rx="6.74905" fill="#516DDB"/>
<mask id="mask8_5_7138" style="mask-type:luminance" maskUnits="userSpaceOnUse" x="97" y="137" width="360" height="252">
<rect x="97.2295" y="137.012" width="359.102" height="251.936" rx="6.74905" fill="white"/>
</mask>
<g mask="url(#mask8_5_7138)">
<path d="M76.6689 351.432C81.7978 323.589 412.975 382.938 473.056 328.718C533.137 274.499 492.839 410.047 492.839 410.047L160.196 475.99" fill="#3152BA"/>
</g>
<rect x="112.845" y="157.277" width="327.872" height="204.07" rx="6.14898" fill="#97CC64"/>
<mask id="mask9_5_7138" style="mask-type:luminance" maskUnits="userSpaceOnUse" x="112" y="157" width="329" height="205">
<rect x="112.845" y="157.277" width="327.872" height="204.07" rx="6.14898" fill="white"/>
</mask>
<g mask="url(#mask9_5_7138)">
<path d="M434.679 137.012C416.627 391.055 29.7332 481.149 -258.283 490.342C-546.299 499.536 465.039 437.826 465.039 437.826L522.479 277.818L478.989 151.466L426.473 145.12" fill="#75AA3C"/>
<path d="M174.846 216.077C175.513 228.049 176.047 240.027 176.447 252.011C176.846 263.995 177.11 275.982 177.241 287.972C177.314 294.701 177.344 301.43 177.333 308.16C177.331 309.416 179.282 309.418 179.284 308.16C179.305 296.17 179.191 284.18 178.943 272.191C178.695 260.204 178.312 248.22 177.795 236.24C177.505 229.517 177.172 222.796 176.797 216.077C176.728 214.828 174.776 214.82 174.846 216.077H174.846Z" fill="white"/>
<path d="M136.845 282.536C159.143 281.535 181.446 280.533 203.7 278.772C225.776 277.024 247.784 274.494 269.875 272.921C282.306 272.036 294.763 271.46 307.228 271.491C308.484 271.494 308.486 269.542 307.228 269.539C285.089 269.485 263.01 271.357 240.986 273.432C218.851 275.517 196.735 277.517 174.533 278.755C161.975 279.456 149.41 280.02 136.845 280.584C135.594 280.64 135.587 282.592 136.845 282.536V282.536Z" fill="white"/>
<path d="M302.972 262.703L310.418 268.921L312.252 270.453C312.549 270.7 312.86 270.938 313.14 271.204C313.194 271.255 313.241 271.313 313.295 271.363C313.382 271.442 313.244 271.313 313.257 271.307C313.278 271.336 313.297 271.366 313.315 271.397C313.323 271.41 313.351 271.483 313.364 271.488C313.362 271.487 313.289 271.312 313.323 271.414C313.356 271.516 313.309 271.325 313.309 271.32C313.309 271.251 313.353 271.143 313.31 271.269C313.312 271.263 313.377 271.103 313.327 271.202C313.273 271.308 313.364 271.145 313.366 271.154C313.372 271.181 313.228 271.297 313.206 271.318C313.07 271.446 312.93 271.571 312.792 271.696C312.508 271.953 312.221 272.206 311.932 272.456C311.375 272.936 310.807 273.404 310.23 273.86C310.137 273.933 310.044 274.005 309.952 274.078C309.864 274.147 309.961 274.071 309.975 274.06C309.928 274.096 309.882 274.132 309.835 274.168C309.671 274.293 309.507 274.417 309.342 274.54C309.012 274.787 308.678 275.029 308.342 275.267C307.646 275.761 306.938 276.236 306.217 276.694C305.787 276.967 305.574 277.574 305.867 278.029C306.144 278.487 306.736 278.642 307.202 278.379C308.554 277.519 309.863 276.598 311.128 275.615C311.767 275.122 312.394 274.615 313.01 274.094C313.313 273.837 313.612 273.576 313.909 273.312C314.203 273.07 314.483 272.81 314.746 272.534C315.139 272.125 315.316 271.553 315.223 270.993C315.126 270.563 314.899 270.173 314.573 269.875C314.294 269.597 313.971 269.356 313.669 269.103L312.679 268.276L308.79 265.029L304.352 261.322C303.961 260.996 303.35 260.91 302.972 261.322C302.641 261.683 302.554 262.353 302.972 262.703L302.972 262.703Z" fill="white"/>
<path d="M171.155 286.414C174.418 278.474 177.84 270.602 181.423 262.799C184.932 255.155 188.495 247.495 192.422 240.055C193.83 237.389 195.531 234.507 198.223 232.96C199.558 232.183 201.116 231.877 202.646 232.092C204.42 232.351 206.039 233.224 207.483 234.25C210.456 236.362 212.97 239.268 215.264 242.078C217.618 244.99 219.754 248.072 221.653 251.299C225.468 257.717 228.294 264.556 231.006 271.491C233.56 278.021 236.394 284.761 241.598 289.66C242.284 290.306 243.045 290.986 243.983 291.221C244.955 291.465 245.86 291.159 246.583 290.494C247.253 289.879 247.792 289.073 248.335 288.347C248.905 287.587 249.448 286.808 249.967 286.011C252.06 282.803 253.74 279.351 255.222 275.824C256.695 272.318 257.957 268.729 259.204 265.137C260.647 260.98 262.089 256.823 263.53 252.665L265.704 246.399L266.79 243.266L267.334 241.7C267.45 241.364 267.55 240.701 267.83 240.455C268.244 240.089 269.258 240.675 269.647 240.901C270.321 241.31 270.923 241.827 271.429 242.432C272.584 243.75 273.417 245.341 274.28 246.854C278.406 254.084 282.138 261.532 285.459 269.165C286.275 271.038 287.063 272.923 287.826 274.818C288.023 275.306 288.477 275.651 289.026 275.499C289.49 275.372 289.906 274.791 289.708 274.299C286.527 266.395 282.916 258.67 278.893 251.159C277.905 249.317 276.892 247.489 275.854 245.675C274.953 244.098 274.059 242.501 272.867 241.119C271.781 239.859 270.292 238.715 268.606 238.459C267.628 238.311 266.7 238.618 266.145 239.47C265.59 240.321 265.355 241.46 265.025 242.412C262.144 250.718 259.303 259.04 256.374 267.33C253.812 274.584 250.943 281.966 246.118 288.054C245.722 288.554 245.169 289.543 244.409 289.316C243.588 289.07 242.887 288.211 242.304 287.621C241.075 286.367 239.966 285 238.991 283.538C237.013 280.592 235.488 277.362 234.135 274.089C232.732 270.692 231.484 267.233 230.061 263.844C228.579 260.277 226.918 256.787 225.086 253.388C221.452 246.706 216.996 240.348 211.482 235.076C208.84 232.55 205.505 230.089 201.686 230.074C198.282 230.061 195.494 232.111 193.485 234.7C191.242 237.591 189.737 241.007 188.119 244.266C186.174 248.183 184.27 252.119 182.407 256.075C178.696 263.952 175.147 271.902 171.76 279.926C170.921 281.911 170.092 283.901 169.273 285.895C169.072 286.383 169.49 286.968 169.954 287.095C170.514 287.249 170.954 286.903 171.155 286.414L171.155 286.414Z" fill="white"/>
<path d="M304.458 214.091L302.887 223.329C302.804 223.814 302.975 224.279 303.452 224.48C303.901 224.666 304.418 224.496 304.67 224.081C307.534 219.792 310.006 215.253 312.055 210.521C312.659 209.127 313.228 207.718 313.763 206.296L311.847 206.036C311.726 208.352 311.516 210.661 311.218 212.963C311.21 213.024 311.202 213.086 311.194 213.147C311.168 213.343 311.186 213.204 311.192 213.163C311.171 213.316 311.15 213.47 311.129 213.623C311.09 213.898 311.05 214.174 311.009 214.449C310.921 215.03 310.829 215.61 310.73 216.189C310.538 217.317 310.325 218.441 310.09 219.56C309.634 221.735 309.132 223.919 308.462 226.039C308.321 226.488 308.166 226.933 307.991 227.37C307.99 227.374 307.894 227.612 307.952 227.47C308.009 227.329 307.91 227.565 307.909 227.569C307.867 227.663 307.824 227.758 307.78 227.852C307.67 228.085 307.553 228.315 307.427 228.541C307.315 228.742 307.195 228.94 307.068 229.133C307.011 229.218 306.953 229.303 306.894 229.386C306.856 229.438 306.817 229.489 306.78 229.541C306.738 229.597 306.749 229.582 306.815 229.496C306.791 229.526 306.767 229.556 306.743 229.586C306.596 229.766 306.442 229.939 306.279 230.104C306.205 230.178 306.13 230.25 306.053 230.32C305.988 230.38 305.828 230.466 305.791 230.543C305.833 230.455 305.917 230.451 305.824 230.517C305.767 230.557 305.712 230.598 305.655 230.637C305.55 230.709 305.442 230.778 305.333 230.843C305.223 230.908 305.112 230.969 304.998 231.027C304.889 231.066 304.784 231.116 304.684 231.175C304.8 231.08 304.81 231.125 304.725 231.157C304.66 231.18 304.596 231.206 304.53 231.229C304.411 231.271 304.29 231.309 304.169 231.343C304.058 231.373 303.948 231.4 303.836 231.424C303.78 231.436 303.724 231.446 303.668 231.456L303.601 231.468C303.492 231.484 303.512 231.482 303.659 231.461C303.599 231.507 303.403 231.486 303.323 231.49C303.212 231.496 303.1 231.497 302.989 231.494C302.867 231.491 302.746 231.479 302.624 231.47C302.479 231.459 302.873 231.518 302.655 231.473C302.59 231.46 302.525 231.45 302.46 231.436C302.353 231.412 302.247 231.384 302.142 231.351C302.1 231.338 302.059 231.324 302.017 231.309C301.937 231.281 301.816 231.189 302.005 231.31C301.798 231.178 301.569 231.089 301.365 230.946C300.946 230.65 300.262 230.857 300.03 231.296C299.772 231.763 299.926 232.35 300.38 232.631C302.071 233.823 304.362 233.589 306.106 232.648C308.003 231.625 309.153 229.73 309.917 227.78C310.275 226.824 310.581 225.85 310.831 224.861C311.143 223.696 311.431 222.525 311.696 221.348C312.222 219.01 312.653 216.654 312.991 214.279C313.38 211.544 313.654 208.795 313.798 206.036C313.796 205.55 313.435 205.141 312.952 205.078C312.472 205.018 312.02 205.314 311.882 205.777C311.656 206.38 311.423 206.981 311.184 207.579C311.064 207.878 310.943 208.177 310.82 208.474C310.764 208.61 310.707 208.745 310.651 208.88C310.542 209.14 310.697 208.773 310.63 208.93C310.589 209.024 310.549 209.119 310.509 209.213C310.008 210.384 309.481 211.544 308.928 212.692C307.816 215 306.601 217.255 305.285 219.458C304.549 220.69 303.783 221.902 302.985 223.096L304.769 223.848L306.34 214.61C306.425 214.109 306.207 213.535 305.658 213.41C305.186 213.302 304.549 213.553 304.458 214.091H304.458Z" fill="white"/>
<path d="M320.089 212.698L329.987 211.63L332.781 211.328C333.287 211.273 333.782 210.918 333.757 210.352C333.735 209.871 333.325 209.318 332.781 209.376L322.883 210.444L320.089 210.746C319.583 210.8 319.087 211.156 319.113 211.722C319.134 212.203 319.545 212.756 320.089 212.698Z" fill="white"/>
<path d="M319.783 222.772C323.224 222.277 326.628 221.555 329.974 220.61C330.921 220.342 331.862 220.056 332.799 219.753C333.283 219.596 333.647 219.069 333.48 218.552C333.323 218.067 332.8 217.702 332.28 217.871C328.972 218.942 325.598 219.792 322.178 220.416C321.21 220.592 320.238 220.75 319.264 220.89C318.757 220.963 318.434 221.632 318.583 222.09C318.762 222.645 319.24 222.85 319.783 222.772L319.783 222.772Z" fill="white"/>
<path d="M343.608 214.035C347.005 213.043 350.323 211.798 353.534 210.31C354.434 209.894 355.324 209.458 356.204 209.004C356.666 208.729 356.822 208.134 356.554 207.669C356.275 207.214 355.686 207.059 355.219 207.318C353.698 208.103 352.149 208.83 350.573 209.501C350.397 209.577 350.52 209.524 350.557 209.508C350.516 209.526 350.474 209.543 350.433 209.56C350.336 209.601 350.239 209.641 350.141 209.681C349.933 209.767 349.725 209.852 349.516 209.936C349.112 210.098 348.706 210.256 348.299 210.411C347.499 210.715 346.693 211.003 345.882 211.277C344.957 211.589 344.026 211.881 343.089 212.153C342.752 212.245 342.49 212.51 342.401 212.848C342.313 213.186 342.412 213.546 342.661 213.791C342.91 214.036 343.271 214.129 343.608 214.035L343.608 214.035Z" fill="white"/>
<path d="M348.82 220.246C350.164 219.772 351.537 219.384 352.931 219.083C353.612 218.937 354.298 218.811 354.988 218.707C355.078 218.694 355.168 218.68 355.258 218.668C355.276 218.665 355.572 218.626 355.359 218.653C355.54 218.63 355.72 218.607 355.901 218.586C356.262 218.545 356.624 218.509 356.987 218.479L356.144 217.011C355.266 218.9 354.213 220.703 352.998 222.396C352.849 222.605 352.696 222.811 352.542 223.016C352.473 223.107 352.404 223.198 352.335 223.289C352.443 223.148 352.351 223.267 352.33 223.294C352.277 223.361 352.224 223.428 352.171 223.495C351.823 223.932 351.444 224.346 351.107 224.791C350.747 225.233 350.601 225.812 350.708 226.372C350.798 226.704 351.009 226.99 351.3 227.173C351.682 227.426 352.162 227.391 352.585 227.295C353.136 227.171 353.684 227.027 354.233 226.893L355.011 226.703C355.135 226.673 355.259 226.645 355.382 226.615C355.581 226.566 355.351 226.629 355.342 226.614C355.339 226.608 355.557 226.61 355.559 226.609C355.514 226.639 355.378 226.578 355.334 226.549L355.255 226.478C355.317 226.543 355.323 226.547 355.274 226.489C355.2 226.38 355.278 226.521 355.296 226.547C355.374 226.661 355.23 226.332 355.303 226.559C355.334 226.656 355.367 226.751 355.391 226.851C355.403 226.899 355.411 226.948 355.423 226.997C355.476 227.214 355.417 226.827 355.427 227.031C355.433 227.142 355.438 227.252 355.434 227.363C355.432 227.424 355.426 227.486 355.423 227.547C355.419 227.624 355.451 227.685 355.43 227.509C355.416 227.737 355.359 227.961 355.263 228.169C355.243 228.23 355.22 228.291 355.197 228.351C355.177 228.402 355.101 228.563 355.19 228.371C355.146 228.468 355.101 228.564 355.053 228.659C354.937 228.888 354.806 229.11 354.667 229.326C354.541 229.523 354.408 229.715 354.269 229.902C354.271 229.9 354.109 230.116 354.196 230.001C354.27 229.904 354.164 230.042 354.146 230.064C354.054 230.181 353.96 230.296 353.864 230.41C353.239 231.158 352.588 231.887 351.928 232.604C351.181 233.428 350.387 234.208 349.549 234.938C349.344 235.114 349.136 235.285 348.925 235.451C348.781 235.565 348.902 235.468 348.931 235.447C348.866 235.495 348.802 235.544 348.737 235.592C348.629 235.672 348.52 235.75 348.41 235.828C347.947 236.152 347.465 236.449 346.966 236.717C346.505 236.992 346.349 237.586 346.616 238.052C346.895 238.508 347.484 238.662 347.951 238.402C349.763 237.431 351.334 236.057 352.749 234.579C353.436 233.863 354.093 233.118 354.745 232.369C355.458 231.6 356.088 230.758 356.625 229.857C357.177 228.86 357.5 227.766 357.328 226.625C357.265 226.055 357.022 225.521 356.635 225.098C356.079 224.554 355.32 224.62 354.629 224.788C354.08 224.921 353.531 225.055 352.982 225.19C352.707 225.257 352.433 225.324 352.158 225.391C352.137 225.396 351.986 225.426 351.985 225.432C351.992 225.395 352.151 225.437 352.176 225.445C352.354 225.498 352.498 225.631 352.564 225.804C352.602 225.876 352.62 225.957 352.615 226.038C352.617 225.961 352.614 225.969 352.604 226.062C352.567 226.246 352.617 226.054 352.624 226.025C352.657 225.883 352.644 226.098 352.595 226.088C352.6 226.089 352.705 225.898 352.72 225.873C352.828 225.694 352.59 226.016 352.705 225.897C352.754 225.846 352.798 225.788 352.844 225.734C352.936 225.626 353.028 225.516 353.119 225.407C353.482 224.969 353.832 224.522 354.176 224.07C355.606 222.18 356.83 220.144 357.83 217.996C358 217.689 358 217.317 357.83 217.011C357.657 216.709 357.335 216.525 356.987 216.527C354.025 216.768 351.107 217.385 348.301 218.363C347.821 218.532 347.449 219.038 347.619 219.564C347.773 220.038 348.304 220.427 348.82 220.245L348.82 220.246Z" fill="white"/>
<path d="M348.939 201.743C348.974 201.818 349.007 201.894 349.043 201.969C349.14 202.178 348.997 201.847 349.075 202.042C349.136 202.197 349.197 202.351 349.252 202.508C349.363 202.822 349.46 203.14 349.542 203.462C349.624 203.785 349.691 204.11 349.743 204.439C349.757 204.52 349.779 204.684 349.756 204.509C349.767 204.591 349.777 204.674 349.786 204.756C349.805 204.935 349.82 205.115 349.83 205.295C349.862 205.959 349.841 206.625 349.769 207.287C349.76 207.359 349.762 207.342 349.777 207.233C349.771 207.274 349.765 207.315 349.759 207.357C349.746 207.439 349.733 207.521 349.718 207.603C349.69 207.766 349.657 207.929 349.621 208.092C349.545 208.43 349.452 208.763 349.345 209.093C349.206 209.612 349.51 210.147 350.027 210.293C350.545 210.424 351.074 210.124 351.227 209.612C352.151 206.69 351.936 203.527 350.624 200.758C350.407 200.294 349.704 200.14 349.289 200.408C348.836 200.689 348.682 201.275 348.939 201.743V201.743Z" fill="white"/>
<path d="M365.323 214.715C365.394 214.626 365.469 214.541 365.55 214.46C365.598 214.412 365.65 214.368 365.7 214.321C365.832 214.198 365.671 214.333 365.662 214.346C365.745 214.268 365.842 214.204 365.947 214.16C366.007 214.126 366.069 214.097 366.128 214.064C366.299 213.969 365.945 214.123 366.146 214.053C366.254 214.016 366.361 213.978 366.472 213.949C366.527 213.935 366.582 213.922 366.638 213.911C366.734 213.891 366.799 213.824 366.615 213.907C366.727 213.882 366.841 213.874 366.955 213.885C367.012 213.884 367.069 213.885 367.126 213.888C367.16 213.89 367.194 213.892 367.228 213.895C367.337 213.906 367.319 213.903 367.171 213.884C367.271 213.925 367.4 213.928 367.504 213.958C367.548 213.97 367.591 213.984 367.635 213.999L367.699 214.022C367.799 214.061 367.786 214.055 367.659 214.004C367.736 213.996 367.901 214.131 367.963 214.17C368.003 214.195 368.04 214.222 368.079 214.247C368.241 214.355 367.939 214.123 368.127 214.288C368.215 214.364 368.297 214.445 368.375 214.531C368.419 214.57 368.457 214.614 368.489 214.663C368.409 214.479 368.437 214.595 368.482 214.661C368.541 214.747 368.596 214.836 368.647 214.928C368.68 214.989 368.71 215.052 368.741 215.114C368.843 215.322 368.681 214.918 368.748 215.139C368.782 215.25 368.819 215.359 368.845 215.472C368.869 215.538 368.882 215.607 368.884 215.677C368.887 215.666 368.868 215.434 368.873 215.624C368.876 215.741 368.883 215.856 368.877 215.972C368.873 216.056 368.863 216.139 368.854 216.223C368.873 216.046 368.853 216.223 368.841 216.299C368.72 217.068 368.623 217.789 368.953 218.522C369.403 219.524 370.605 220.012 371.652 219.895C373.042 219.74 374.007 218.757 374.847 217.725C375.169 217.33 375.262 216.726 374.847 216.345C374.49 216.017 373.811 215.922 373.467 216.345C373.142 216.768 372.78 217.161 372.386 217.521C372.381 217.525 372.189 217.679 372.31 217.586C372.431 217.493 372.233 217.638 372.227 217.642C372.125 217.712 372.018 217.776 371.907 217.834C371.898 217.838 371.676 217.934 371.82 217.879C371.954 217.827 371.765 217.895 371.752 217.899C371.703 217.914 371.654 217.928 371.605 217.939C371.575 217.947 371.545 217.953 371.515 217.959C371.408 217.976 371.434 217.974 371.591 217.95C371.545 217.922 371.337 217.962 371.283 217.96C371.242 217.954 371.201 217.951 371.159 217.952L371.297 217.972C371.257 217.965 371.217 217.958 371.177 217.95C371.118 217.937 370.932 217.846 370.888 217.864C370.908 217.856 371.101 217.975 370.958 217.89C370.901 217.852 370.842 217.817 370.781 217.786C370.672 217.743 370.949 217.951 370.819 217.814C370.788 217.777 370.754 217.743 370.717 217.712C370.625 217.649 370.834 217.913 370.747 217.748C370.726 217.703 370.702 217.66 370.675 217.619C370.617 217.541 370.727 217.841 370.684 217.614C370.669 217.562 370.658 217.509 370.65 217.456C370.663 217.707 370.662 217.429 370.662 217.391C370.663 217.308 370.67 217.227 370.675 217.144C370.692 216.868 370.639 217.346 370.683 217.07C370.691 217.014 370.7 216.958 370.709 216.902C370.74 216.704 370.77 216.506 370.795 216.307C370.833 216.035 370.838 215.759 370.81 215.486C370.75 214.875 370.55 214.285 370.225 213.763C369.566 212.704 368.438 212.026 367.194 211.941C365.949 211.856 364.74 212.375 363.943 213.335C363.626 213.733 363.525 214.331 363.943 214.715C364.297 215.04 364.983 215.141 365.323 214.715L365.323 214.715Z" fill="white"/>
<path d="M370.204 208.041C369.747 209.156 369.285 210.27 368.818 211.381C368.764 211.51 368.709 211.64 368.654 211.77C368.72 211.615 368.641 211.802 368.625 211.84C368.594 211.912 368.564 211.984 368.533 212.056C368.411 212.344 368.289 212.632 368.166 212.92C367.933 213.467 367.698 214.014 367.462 214.56C366.512 216.758 365.542 218.948 364.55 221.128C363.987 222.367 363.416 223.604 362.839 224.837C362.624 225.299 362.695 225.911 363.19 226.172C363.622 226.401 364.294 226.316 364.525 225.822C366.603 221.379 368.594 216.896 370.5 212.375C371.035 211.106 371.564 209.834 372.086 208.56C372.28 208.086 371.876 207.467 371.404 207.359C370.837 207.23 370.412 207.534 370.204 208.041V208.041Z" fill="white"/>
<path d="M289.783 299.482L289.769 308.677C289.77 309.023 289.954 309.343 290.252 309.519C290.555 309.701 290.934 309.701 291.237 309.519C294.287 307.2 297.496 304.592 298.885 300.895C299.262 299.882 299.456 298.811 299.456 297.731H297.504C297.582 300.524 297.659 303.321 297.51 306.113C297.473 306.794 297.422 307.473 297.357 308.151C297.324 308.49 297.286 308.828 297.244 309.165C297.236 309.227 297.229 309.288 297.221 309.35C297.219 309.386 297.214 309.422 297.206 309.458C297.179 309.642 297.153 309.826 297.124 310.009C296.937 311.236 296.671 312.449 296.328 313.642C296.17 314.186 295.994 314.725 295.8 315.258C295.703 315.524 295.601 315.788 295.495 316.05C295.466 316.122 295.439 316.195 295.407 316.265C295.494 316.075 295.433 316.204 295.415 316.245C295.344 316.41 295.272 316.574 295.197 316.738C294.731 317.763 294.182 318.747 293.554 319.682C293.398 319.914 293.236 320.142 293.069 320.366C293.023 320.427 292.979 320.49 292.931 320.549C292.952 320.524 293.055 320.392 292.943 320.532C292.841 320.661 292.738 320.79 292.632 320.917C292.267 321.357 291.878 321.777 291.469 322.176C291.268 322.372 291.063 322.562 290.852 322.746C290.756 322.83 290.658 322.913 290.56 322.995C290.5 323.045 290.439 323.093 290.379 323.143C290.22 323.275 290.506 323.056 290.322 323.188C290.086 323.364 289.834 323.517 289.569 323.645C289.782 323.547 289.543 323.648 289.505 323.66C289.454 323.676 289.403 323.69 289.351 323.702C289.29 323.708 289.231 323.719 289.173 323.738C289.334 323.718 289.362 323.714 289.256 323.725C289.227 323.728 289.198 323.729 289.169 323.731C289.045 323.72 288.921 323.717 288.797 323.721C288.951 323.693 288.989 323.753 288.887 323.733C288.813 323.718 288.738 323.704 288.664 323.686C288.552 323.658 288.442 323.624 288.334 323.584C288.252 323.554 288.137 323.462 288.349 323.596C288.288 323.563 288.225 323.534 288.16 323.509C287.697 323.272 287.252 323.001 286.829 322.699C285.912 322.077 284.943 321.405 283.822 321.238C283.568 321.178 283.301 321.213 283.07 321.337C282.852 321.467 282.691 321.675 282.622 321.92C282.516 322.383 282.764 323.04 283.304 323.12C283.536 323.155 283.765 323.211 283.986 323.29C284.035 323.307 284.082 323.326 284.13 323.343C284.337 323.419 283.927 323.246 284.126 323.342C284.238 323.397 284.352 323.45 284.462 323.509C284.892 323.748 285.309 324.01 285.71 324.293C286.517 324.841 287.385 325.45 288.368 325.615C288.971 325.733 289.594 325.69 290.174 325.489C290.845 325.211 291.463 324.817 291.999 324.326C292.892 323.569 293.703 322.72 294.417 321.792C297.617 317.671 298.961 312.537 299.375 307.411C299.635 304.191 299.546 300.956 299.456 297.731C299.456 297.192 299.019 296.755 298.48 296.755C297.941 296.755 297.504 297.192 297.504 297.731C297.504 297.945 297.497 298.159 297.48 298.373C297.472 298.478 297.459 298.583 297.449 298.688C297.434 298.838 297.489 298.441 297.451 298.671C297.441 298.729 297.433 298.786 297.423 298.844C297.35 299.264 297.244 299.679 297.108 300.083C297.051 300.283 296.977 300.477 296.889 300.665C296.901 300.642 296.978 300.463 296.906 300.623C296.887 300.665 296.868 300.707 296.849 300.749C296.796 300.865 296.741 300.98 296.683 301.094C296.487 301.48 296.27 301.855 296.031 302.216C295.921 302.385 295.806 302.551 295.687 302.714C295.624 302.801 295.56 302.887 295.495 302.973C295.39 303.114 295.5 302.971 295.516 302.947C295.476 303.006 295.426 303.061 295.381 303.116C295.099 303.467 294.802 303.806 294.494 304.134C293.872 304.79 293.216 305.414 292.529 306.002C292.135 306.342 291.733 306.674 291.326 306.999C291.134 307.152 290.941 307.304 290.747 307.454C290.74 307.46 290.549 307.608 290.672 307.513C290.785 307.425 290.62 307.553 290.598 307.57C290.483 307.658 290.368 307.746 290.252 307.834L291.721 308.677L291.734 299.482C291.734 298.943 291.298 298.506 290.759 298.506C290.22 298.506 289.783 298.943 289.783 299.482L289.783 299.482Z" fill="white"/>
<path d="M311.478 310.932L315.35 309.826C315.868 309.681 316.171 309.144 316.028 308.626C315.885 308.108 315.35 307.803 314.831 307.944L310.96 309.05C310.44 309.193 310.135 309.73 310.278 310.25C310.421 310.77 310.959 311.075 311.478 310.932V310.932Z" fill="white"/>
<path d="M328.976 310.33C330.121 308.584 329.058 306.369 327.448 305.358C326.601 304.813 325.567 304.641 324.589 304.882C323.642 305.159 322.823 305.76 322.273 306.579C321.183 308.117 321.086 310.318 321.961 311.97C322.535 313.053 323.539 313.883 324.779 314.011C325.856 314.122 326.906 313.525 327.574 312.713C328.368 311.749 328.744 310.636 329.014 309.434C329.129 308.869 329.274 308.31 329.449 307.76C329.469 307.702 329.49 307.644 329.511 307.587C329.548 307.487 329.573 307.395 329.522 307.548C329.574 307.412 329.638 307.281 329.713 307.157C329.783 307.029 329.864 306.91 329.943 306.788C329.97 306.745 330.025 306.632 329.922 306.811C329.978 306.73 330.043 306.656 330.116 306.589L328.485 306.159C328.904 308.466 329.965 310.608 331.546 312.34C331.929 312.717 332.543 312.717 332.926 312.34C333.295 311.954 333.295 311.346 332.926 310.96C332.747 310.762 332.576 310.557 332.408 310.349C332.493 310.454 332.445 310.398 332.39 310.325C332.35 310.271 332.31 310.218 332.271 310.164C332.193 310.055 332.117 309.946 332.042 309.835C331.753 309.402 331.492 308.95 331.264 308.482C331.211 308.374 331.16 308.266 331.111 308.156C331.111 308.156 331.009 307.928 331.064 308.052C331.118 308.177 331.031 307.971 331.021 307.947C330.922 307.699 330.831 307.448 330.749 307.194C330.586 306.685 330.458 306.166 330.367 305.64C330.24 304.913 329.207 304.707 328.736 305.209C328.023 305.969 327.625 306.924 327.366 307.921C327.251 308.36 327.16 308.805 327.057 309.247C327.006 309.466 326.953 309.684 326.892 309.901C326.854 310.103 326.787 310.298 326.693 310.481C326.814 310.304 326.727 310.402 326.695 310.471C326.67 310.524 326.645 310.577 326.62 310.629C326.578 310.712 326.534 310.794 326.488 310.876C326.437 310.966 326.382 311.056 326.325 311.143C326.294 311.191 326.261 311.239 326.228 311.286C326.209 311.313 326.082 311.462 326.181 311.352C326.287 311.233 326.138 311.4 326.128 311.411C326.099 311.445 326.069 311.478 326.038 311.511C325.97 311.584 325.899 311.654 325.826 311.721C325.793 311.75 325.759 311.777 325.727 311.806C325.624 311.899 325.925 311.676 325.745 311.791C325.655 311.848 325.569 311.908 325.475 311.957C325.461 311.965 325.363 312.012 325.363 312.013C325.357 311.982 325.565 311.942 325.423 311.986C325.324 312.017 325.226 312.044 325.124 312.07C324.986 312.106 325.159 312.02 325.198 312.063C325.156 312.063 325.113 312.066 325.072 312.071C325.029 312.073 324.986 312.073 324.943 312.071C324.899 312.07 324.856 312.067 324.812 312.063L324.936 312.079C324.838 312.042 324.736 312.016 324.632 312.002L324.599 311.991C324.498 311.952 324.512 311.959 324.64 312.009C324.596 311.993 324.555 311.972 324.516 311.946C324.46 311.915 324.308 311.853 324.28 311.797L324.365 311.865C324.337 311.843 324.31 311.821 324.284 311.797C324.23 311.751 324.177 311.703 324.127 311.653C324.051 311.577 323.981 311.496 323.91 311.414C323.809 311.299 323.93 311.442 323.931 311.441C323.927 311.443 323.859 311.339 323.848 311.323C323.789 311.234 323.733 311.142 323.681 311.048C323.638 310.937 323.585 310.83 323.523 310.729C323.536 310.744 323.607 310.952 323.554 310.798C323.541 310.76 323.526 310.723 323.513 310.686C323.484 310.602 323.458 310.517 323.435 310.431C323.411 310.345 323.391 310.258 323.373 310.171C323.365 310.132 323.358 310.093 323.351 310.054C323.329 309.925 323.38 309.891 323.352 310.077C323.354 309.898 323.344 309.719 323.323 309.541C323.324 309.363 323.361 309.182 323.359 309.005C323.362 309.253 323.337 309.143 323.355 309.058C323.365 309.009 323.372 308.96 323.383 308.911C323.399 308.834 323.417 308.757 323.437 308.68C323.485 308.498 323.553 308.325 323.613 308.147C323.657 308.019 323.505 308.373 323.596 308.192C323.614 308.157 323.63 308.121 323.647 308.087C323.682 308.017 323.718 307.949 323.757 307.881C323.804 307.797 323.855 307.715 323.909 307.635C323.931 307.604 323.954 307.573 323.975 307.541C324.077 307.39 323.834 307.704 323.962 307.557C324.067 307.433 324.178 307.316 324.295 307.205C324.33 307.173 324.367 307.143 324.402 307.112C324.468 307.052 324.498 307.088 324.338 307.158C324.42 307.11 324.498 307.057 324.573 306.998C324.646 306.954 324.721 306.912 324.798 306.873C324.843 306.858 324.887 306.837 324.928 306.812C324.913 306.825 324.703 306.895 324.856 306.845C325.02 306.791 325.205 306.769 325.363 306.71C325.158 306.787 325.198 306.724 325.303 306.723C325.351 306.723 325.398 306.719 325.445 306.718C325.521 306.718 325.596 306.725 325.672 306.728C325.833 306.735 325.597 306.721 325.581 306.714C325.627 306.726 325.673 306.735 325.72 306.74C325.813 306.759 325.905 306.784 325.995 306.813C326.041 306.827 326.085 306.844 326.13 306.86C326.303 306.918 325.933 306.761 326.108 306.85C326.194 306.894 326.28 306.935 326.364 306.984C326.447 307.032 326.529 307.084 326.608 307.14C326.637 307.165 326.669 307.188 326.702 307.208C326.494 307.121 326.611 307.137 326.685 307.202C326.829 307.33 326.965 307.469 327.091 307.615C327.224 307.763 326.994 307.464 327.063 307.576C327.092 307.625 327.13 307.669 327.161 307.717C327.213 307.796 327.262 307.877 327.307 307.96C327.329 308.002 327.351 308.043 327.371 308.086C327.418 308.182 327.389 308.279 327.362 308.057C327.386 308.146 327.415 308.233 327.45 308.318C327.465 308.407 327.485 308.496 327.509 308.583C327.44 308.408 327.49 308.389 327.496 308.484C327.499 308.538 327.504 308.591 327.505 308.645C327.508 308.731 327.486 308.827 327.495 308.912C327.474 308.72 327.528 308.719 327.508 308.811C327.496 308.864 327.486 308.917 327.472 308.969C327.46 309.013 327.444 309.056 327.432 309.099C327.375 309.304 327.494 308.993 327.447 309.071C327.393 309.162 327.349 309.256 327.291 309.345C327.023 309.811 327.179 310.406 327.641 310.68C328.108 310.939 328.697 310.785 328.976 310.33L328.976 310.33Z" fill="white"/>
<path d="M334.212 303.269C334.286 303.426 334.359 303.583 334.43 303.742C334.465 303.821 334.5 303.901 334.533 303.981C334.454 303.792 334.551 304.028 334.568 304.068C334.697 304.391 334.817 304.716 334.927 305.046C335.146 305.705 335.327 306.376 335.468 307.056C335.538 307.397 335.595 307.739 335.649 308.082C335.682 308.297 335.632 307.93 335.661 308.166C335.671 308.253 335.682 308.339 335.691 308.425C335.71 308.598 335.727 308.77 335.741 308.943C335.796 309.636 335.811 310.331 335.785 311.025H337.736C337.71 310.704 337.701 310.382 337.709 310.061C337.713 309.906 337.721 309.752 337.733 309.597C337.74 309.514 337.747 309.431 337.756 309.349C337.76 309.313 337.764 309.278 337.768 309.242C337.783 309.111 337.782 309.235 337.761 309.289C337.799 309.139 337.825 308.986 337.838 308.832C337.87 308.668 337.906 308.506 337.947 308.344C338.025 308.032 338.119 307.724 338.228 307.421C338.257 307.343 338.286 307.265 338.316 307.187C338.329 307.154 338.413 306.947 338.361 307.072C338.312 307.191 338.407 306.969 338.427 306.926C338.461 306.85 338.497 306.775 338.534 306.7C338.675 306.41 338.83 306.129 338.999 305.854C339.081 305.722 339.165 305.592 339.253 305.465C339.3 305.396 339.348 305.328 339.397 305.26C339.422 305.226 339.568 305.03 339.492 305.13C339.409 305.238 339.57 305.034 339.594 305.005C339.639 304.95 339.685 304.895 339.731 304.841C339.84 304.715 339.952 304.591 340.067 304.471C340.322 304.204 340.593 303.954 340.879 303.72C340.948 303.664 341.074 303.541 340.934 303.674C341.007 303.612 341.084 303.556 341.164 303.505C341.32 303.395 341.48 303.291 341.642 303.19C342.105 302.917 342.26 302.321 341.989 301.857C341.718 301.393 341.122 301.236 340.657 301.505C338.157 303.07 336.436 305.62 335.918 308.524C335.769 309.348 335.724 310.189 335.785 311.025C335.826 311.532 336.204 312.025 336.761 312C337.295 311.99 337.726 311.559 337.737 311.025C337.836 308.005 337.205 305.007 335.897 302.284C335.677 301.822 334.979 301.665 334.562 301.934C334.108 302.215 333.955 302.801 334.212 303.269L334.212 303.269Z" fill="white"/>
<path d="M348.853 301.213C346.979 302.198 345.396 303.971 345.2 306.144C345.027 308.055 346.402 309.823 348.221 310.326C349.267 310.635 350.398 310.381 351.212 309.656C351.59 309.273 351.59 308.658 351.212 308.276C350.826 307.907 350.218 307.907 349.832 308.276C349.801 308.298 349.772 308.323 349.746 308.35C349.807 308.239 349.901 308.242 349.81 308.298C349.74 308.341 349.671 308.383 349.6 308.423C349.406 308.532 349.799 308.364 349.589 308.429C349.513 308.452 349.438 308.476 349.361 308.493C349.096 308.55 349.551 308.49 349.334 308.499C349.263 308.502 349.193 308.506 349.122 308.505C349.05 308.504 348.98 308.495 348.908 308.492C348.776 308.485 349.171 308.543 348.98 308.499C348.936 308.489 348.891 308.482 348.847 308.471C348.775 308.454 348.704 308.435 348.634 308.412C348.597 308.4 348.362 308.298 348.515 308.375C348.672 308.454 348.416 308.327 348.376 308.306C348.3 308.266 348.225 308.224 348.153 308.179C348.087 308.139 348.025 308.095 347.962 308.051C347.855 307.978 347.926 307.954 347.999 308.082C347.972 308.054 347.942 308.029 347.91 308.008C347.779 307.894 347.656 307.771 347.544 307.639C347.522 307.607 347.498 307.577 347.471 307.549C347.487 307.562 347.606 307.742 347.52 307.609C347.479 307.544 347.434 307.482 347.395 307.416C347.355 307.351 347.319 307.284 347.285 307.215C347.272 307.179 347.255 307.145 347.236 307.112C347.345 307.237 347.295 307.262 347.249 307.133C347.201 306.995 347.195 306.823 347.137 306.692C347.204 306.844 347.156 306.881 347.15 306.781C347.148 306.733 347.143 306.686 347.141 306.638C347.135 306.52 347.135 306.402 347.142 306.284C347.144 306.237 347.148 306.191 347.152 306.144C347.157 306.06 347.204 306.026 347.142 306.196C347.164 306.106 347.182 306.014 347.193 305.922C347.218 305.713 347.281 305.51 347.38 305.323C347.282 305.443 347.327 305.441 347.364 305.363C347.384 305.321 347.403 305.278 347.424 305.236C347.466 305.151 347.51 305.068 347.557 304.986C347.648 304.791 347.767 304.61 347.909 304.448C347.768 304.579 347.851 304.521 347.89 304.475C347.936 304.419 347.982 304.363 348.029 304.308C348.109 304.216 348.192 304.127 348.277 304.041C348.431 303.883 348.593 303.734 348.762 303.593C348.809 303.554 348.857 303.516 348.905 303.477C348.997 303.402 348.762 303.58 348.912 303.474C349.011 303.403 349.11 303.332 349.213 303.265C349.415 303.132 349.624 303.011 349.839 302.898C350.3 302.623 350.456 302.029 350.189 301.563C349.909 301.107 349.321 300.953 348.854 301.213L348.853 301.213Z" fill="white"/>
<path d="M355.727 301.045C353.876 301.465 351.619 302.277 351.081 304.329C350.774 305.499 351.182 306.657 351.956 307.545C352.76 308.47 353.911 308.945 355.107 309.069C356.562 309.221 358.025 308.783 359.398 308.354C359.918 308.211 360.223 307.673 360.08 307.154C359.937 306.634 359.399 306.329 358.88 306.472C358.334 306.642 357.787 306.811 357.23 306.941C356.982 307 356.732 307.051 356.481 307.09C356.432 307.098 356.234 307.12 356.431 307.098C356.372 307.105 356.313 307.112 356.254 307.117C356.107 307.131 355.96 307.14 355.812 307.144C355.547 307.152 355.282 307.14 355.019 307.108C355.207 307.132 355.052 307.111 355.015 307.103C354.946 307.087 354.876 307.076 354.807 307.06C354.684 307.032 354.563 306.996 354.443 306.954C354.402 306.934 354.358 306.917 354.314 306.906C354.404 306.896 354.463 306.974 354.355 306.921C354.261 306.875 354.167 306.829 354.076 306.777C353.985 306.725 353.896 306.669 353.81 306.609C353.77 306.586 353.732 306.559 353.697 306.528C353.85 306.705 353.728 306.55 353.677 306.506C353.599 306.438 353.524 306.367 353.452 306.292C353.394 306.232 353.32 306.103 353.248 306.061C353.354 306.123 353.334 306.183 353.278 306.096C353.248 306.048 353.215 306.003 353.185 305.955C353.16 305.915 352.994 305.682 353.012 305.633C353.012 305.633 353.094 305.865 353.035 305.684C353.022 305.642 353.006 305.601 352.993 305.559C352.964 305.465 352.946 305.37 352.924 305.274C352.892 305.138 352.932 305.524 352.93 305.306C352.93 305.263 352.925 305.219 352.925 305.175C352.924 305.131 352.925 305.087 352.927 305.043C352.929 304.999 352.933 304.954 352.938 304.91L352.922 305.036C352.954 304.947 352.976 304.854 352.988 304.76C353.003 304.712 353.021 304.665 353.036 304.618C353.077 304.494 353.07 304.652 353.007 304.686C353.048 304.664 353.108 304.494 353.132 304.454C353.157 304.412 353.186 304.373 353.212 304.332C353.302 304.188 353.1 304.447 353.182 304.366C353.309 304.241 353.424 304.109 353.556 303.988C353.663 303.888 353.64 303.994 353.523 304.008C353.558 303.988 353.591 303.964 353.621 303.936C353.705 303.877 353.792 303.821 353.88 303.767C354.071 303.653 354.268 303.55 354.471 303.46L354.501 303.447C354.598 303.404 354.58 303.412 354.446 303.469C354.473 303.438 354.562 303.423 354.598 303.409C354.71 303.365 354.823 303.325 354.937 303.286C355.367 303.144 355.804 303.024 356.246 302.927C356.763 302.78 357.066 302.246 356.928 301.727C356.775 301.215 356.245 300.914 355.727 301.045V301.045Z" fill="white"/>
<path d="M362.275 303.92C362.156 304.814 362.651 305.688 363.347 306.21C363.784 306.537 364.413 306.774 364.907 306.434C365.236 306.2 365.541 305.934 365.817 305.639C366.841 304.568 367.557 303.24 367.887 301.795C368.058 301.062 368.124 300.309 368.083 299.557C368.024 298.61 367.882 297.485 366.859 297.113C366.099 296.836 365.147 297.262 364.437 297.541C363.69 297.83 362.968 298.179 362.279 298.587C360.808 299.463 359.513 300.605 358.46 301.956C358.285 302.144 358.183 302.389 358.174 302.646C358.176 302.904 358.279 303.152 358.46 303.336C358.809 303.656 359.507 303.767 359.84 303.336C360.184 302.89 360.556 302.467 360.954 302.069C361.154 301.871 361.359 301.679 361.571 301.494C361.668 301.41 361.765 301.327 361.864 301.246C361.923 301.197 361.983 301.15 362.043 301.101C362.216 300.959 361.923 301.188 362.088 301.066C362.538 300.728 363.008 300.418 363.496 300.136C363.74 299.997 363.988 299.865 364.241 299.742C364.356 299.685 364.472 299.631 364.588 299.578C364.657 299.547 364.727 299.511 364.799 299.485C364.571 299.567 364.815 299.479 364.849 299.466C365.11 299.36 365.374 299.264 365.641 299.176C365.763 299.136 365.885 299.098 366.008 299.062C366.08 299.041 366.152 299.019 366.225 299C366.261 298.991 366.296 298.983 366.332 298.975C366.406 298.961 366.38 298.963 366.254 298.982C366.305 298.938 366.556 299.038 366.275 298.971C366.164 298.94 366.068 298.87 366.007 298.773C366.086 298.879 366.032 298.754 365.995 298.73C366.025 298.75 366.043 298.902 366.051 298.936C366.083 299.05 366.103 299.168 366.112 299.286C366.114 299.024 366.105 299.247 366.111 299.309C366.118 299.38 366.124 299.451 366.129 299.522C366.147 299.782 366.15 300.043 366.137 300.303C366.132 300.422 366.123 300.54 366.112 300.658C366.108 300.729 366.1 300.8 366.088 300.87C366.145 300.605 366.089 300.842 366.081 300.892C365.991 301.407 365.849 301.912 365.657 302.398C365.568 302.625 365.748 302.206 365.644 302.427C365.613 302.491 365.585 302.557 365.554 302.621C365.482 302.77 365.404 302.918 365.322 303.062C365.181 303.31 365.022 303.545 364.857 303.777C364.722 303.968 364.953 303.663 364.858 303.777C364.805 303.841 364.753 303.906 364.7 303.969C364.607 304.077 364.511 304.182 364.412 304.285C364.313 304.387 364.211 304.486 364.106 304.581C364.053 304.629 363.999 304.676 363.945 304.722C363.907 304.755 363.655 304.954 363.865 304.793L364.617 304.694C364.575 304.683 364.533 304.669 364.493 304.653C364.625 304.711 364.643 304.717 364.548 304.67C364.519 304.65 364.396 304.604 364.384 304.565C364.495 304.652 364.51 304.661 364.431 304.592C364.4 304.562 364.369 304.53 364.34 304.498C364.205 304.368 364.444 304.665 364.317 304.459C364.299 304.432 364.283 304.403 364.267 304.374C364.22 304.279 364.226 304.297 364.283 304.429C364.249 304.413 364.224 304.248 364.215 304.211C364.159 303.97 364.198 304.372 364.211 304.181C364.217 304.093 364.215 304.008 364.227 303.92C364.295 303.412 363.73 302.923 363.251 302.944C362.664 302.971 362.348 303.376 362.275 303.92L362.275 303.92Z" fill="white"/>
<path d="M375.675 290.954C374.742 294.082 374.155 297.303 373.924 300.559C373.81 302.149 373.784 303.745 373.846 305.339C373.904 306.806 374.024 308.483 375.139 309.577C375.713 310.127 376.471 310.443 377.266 310.463C378.112 310.491 378.913 310.082 379.386 309.38C379.655 308.914 379.499 308.319 379.036 308.045C378.568 307.787 377.981 307.941 377.701 308.395C377.583 308.564 377.861 308.247 377.709 308.378L377.669 308.418C377.592 308.486 377.615 308.471 377.737 308.373C377.687 308.397 377.64 308.427 377.596 308.462C377.433 308.57 377.816 308.398 377.626 308.453C377.572 308.469 377.52 308.488 377.465 308.501L377.409 308.513C377.305 308.531 377.335 308.528 377.499 308.503C377.441 308.5 377.382 308.503 377.325 308.512C377.247 308.501 377.168 308.497 377.089 308.498C377.276 308.465 377.259 308.532 377.143 308.499C377.094 308.486 377.045 308.477 376.997 308.463C376.938 308.447 376.882 308.425 376.824 308.406C376.623 308.34 377.018 308.515 376.835 308.408C376.777 308.374 376.585 308.217 376.527 308.219L376.63 308.297C376.599 308.271 376.57 308.245 376.541 308.217C376.474 308.165 376.416 308.101 376.369 308.031C376.465 308.234 376.375 308.032 376.344 307.986C376.311 307.934 376.279 307.88 376.248 307.826C376.218 307.772 376.192 307.716 376.162 307.662C376.042 307.447 376.224 307.854 376.141 307.621C376.031 307.311 375.948 306.992 375.894 306.668C375.886 306.619 375.825 306.375 375.885 306.622C375.872 306.546 375.864 306.469 375.861 306.392C375.848 306.264 375.839 306.136 375.83 306.008C375.806 305.634 375.793 305.258 375.782 304.883C375.741 303.426 375.773 301.968 375.879 300.513C375.932 299.786 376.003 299.061 376.093 298.338C376.104 298.247 376.116 298.157 376.127 298.066C376.13 298.032 376.134 297.998 376.141 297.965C376.167 297.784 376.192 297.604 376.219 297.424C376.274 297.063 376.333 296.704 376.397 296.345C376.69 294.7 377.077 293.073 377.557 291.473C377.694 290.954 377.391 290.42 376.875 290.273C376.357 290.141 375.827 290.442 375.675 290.954V290.954Z" fill="white"/>
<path d="M386.78 300.855C386.854 300.764 386.934 300.679 387.021 300.6C387.05 300.574 387.197 300.453 387.067 300.558C386.938 300.661 387.122 300.526 387.166 300.5C387.211 300.473 387.257 300.447 387.305 300.423C387.328 300.411 387.352 300.4 387.376 300.388C387.455 300.347 387.478 300.39 387.289 300.423C387.407 300.402 387.526 300.34 387.645 300.312C387.697 300.3 387.75 300.291 387.802 300.28C387.972 300.243 387.583 300.297 387.756 300.285C387.883 300.277 388.008 300.269 388.135 300.272C388.198 300.274 388.261 300.279 388.325 300.283C388.352 300.288 388.379 300.291 388.406 300.292C388.414 300.291 388.18 300.252 388.281 300.276C388.405 300.305 388.53 300.323 388.652 300.359C388.704 300.374 388.756 300.39 388.807 300.408C388.833 300.417 388.858 300.427 388.883 300.436C389.032 300.486 388.812 300.408 388.8 300.399C388.897 300.47 389.029 300.51 389.132 300.574C389.178 300.602 389.221 300.634 389.266 300.662C389.407 300.753 389.113 300.527 389.237 300.639C389.33 300.72 389.419 300.807 389.502 300.898C389.523 300.927 389.546 300.954 389.57 300.98C389.571 300.981 389.453 300.805 389.497 300.889C389.521 300.935 389.557 300.978 389.584 301.023C389.616 301.078 389.643 301.134 389.673 301.189C389.688 301.217 389.727 301.312 389.668 301.172C389.601 301.014 389.671 301.189 389.682 301.221C389.79 301.575 389.865 301.938 389.908 302.305C390.026 303.091 390.238 303.804 390.744 304.43C391.176 304.932 391.74 305.303 392.372 305.502C393.64 305.904 395.019 305.755 396.172 305.091C397.639 304.27 398.641 302.863 399.581 301.513C399.874 301.093 399.672 300.41 399.231 300.178C398.764 299.92 398.176 300.074 397.896 300.528C397.697 300.813 397.498 301.098 397.291 301.378C397.245 301.44 397.199 301.503 397.152 301.564C397.129 301.595 397.105 301.626 397.081 301.657C397.087 301.649 397.185 301.527 397.115 301.613C397.001 301.753 396.889 301.894 396.772 302.031C396.548 302.294 396.309 302.543 396.056 302.777C395.956 302.892 395.839 302.991 395.71 303.072C395.732 303.063 395.88 302.948 395.727 303.057C395.697 303.079 395.666 303.102 395.635 303.123C395.563 303.174 395.489 303.223 395.415 303.27C395.276 303.358 395.132 303.439 394.985 303.513C394.944 303.533 394.742 303.606 394.886 303.564C395.038 303.519 394.779 303.601 394.743 303.613C394.626 303.653 394.506 303.686 394.385 303.713C394.314 303.73 394.242 303.742 394.171 303.756C394.008 303.788 394.378 303.74 394.151 303.757C394.016 303.767 393.882 303.775 393.746 303.774C393.684 303.773 393.622 303.771 393.56 303.767C393.529 303.765 393.498 303.762 393.467 303.76C393.3 303.75 393.442 303.736 393.512 303.77C393.394 303.735 393.273 303.711 393.151 303.698C393.023 303.639 392.889 303.595 392.75 303.568C392.757 303.567 392.93 303.658 392.847 303.607C392.822 303.592 392.792 303.581 392.766 303.569C392.705 303.538 392.644 303.505 392.585 303.469C392.535 303.439 392.486 303.406 392.437 303.374C392.258 303.257 392.56 303.494 392.405 303.347C392.32 303.266 392.243 303.179 392.161 303.096C392.074 303.008 392.266 303.261 392.206 303.153C392.192 303.128 392.172 303.104 392.156 303.079C392.118 303.021 392.085 302.959 392.051 302.898C391.953 302.724 392.076 303.006 392.016 302.823C391.99 302.746 391.964 302.669 391.943 302.591C391.895 302.406 391.856 302.219 391.827 302.03C391.77 301.679 391.731 301.323 391.644 300.977C391.323 299.731 390.342 298.762 389.093 298.455C387.811 298.12 386.27 298.414 385.4 299.475C385.076 299.869 384.985 300.475 385.4 300.855C385.758 301.184 386.434 301.277 386.78 300.855L386.78 300.855Z" fill="white"/>
<path d="M395.649 293.757C392.496 296.85 389.737 300.321 387.437 304.091C386.797 305.141 386.195 306.211 385.63 307.303C385.396 307.756 385.498 308.384 385.98 308.639C386.428 308.875 387.065 308.773 387.316 308.288C388.304 306.378 389.408 304.53 390.623 302.756C390.931 302.306 391.245 301.862 391.567 301.423C391.723 301.209 391.882 300.996 392.042 300.784C392.117 300.684 392.193 300.584 392.27 300.484C392.299 300.446 392.414 300.297 392.296 300.449C392.348 300.383 392.399 300.317 392.451 300.251C393.105 299.416 393.784 298.601 394.489 297.806C395.304 296.887 396.15 295.997 397.029 295.137C397.41 294.756 397.41 294.138 397.029 293.757C396.648 293.376 396.03 293.376 395.649 293.757V293.757Z" fill="white"/>
</g>
<path d="M50.3838 374.142H503.178V377.262C503.178 387.22 495.106 395.293 485.148 395.293H68.4145C58.4564 395.293 50.3838 387.22 50.3838 377.262V374.142H50.3838Z" fill="#589BF7"/>
<mask id="mask10_5_7138" style="mask-type:luminance" maskUnits="userSpaceOnUse" x="50" y="374" width="454" height="22">
<path fill-rule="evenodd" clip-rule="evenodd" d="M50.3838 374.142H503.178V377.262C503.178 387.22 495.106 395.293 485.148 395.293H68.4145C58.4564 395.293 50.3838 387.22 50.3838 377.262V374.142H50.3838Z" fill="white"/>
</mask>
<g mask="url(#mask10_5_7138)">
<path d="M28.4218 407.002C26.1133 359.491 374.507 401.355 429.827 398.324C485.148 395.293 140.977 454.741 140.977 454.741L15.0537 423.236" fill="#2976DF"/>
</g>
<circle cx="276.781" cy="148.293" r="3.95658" fill="#3152BA"/>
<path d="M191.118 374.142H362.444V374.193C362.444 380.005 357.732 384.717 351.919 384.717H201.643C195.83 384.717 191.118 380.005 191.118 374.193V374.142H191.118Z" fill="#2976DF"/>
<path d="M164.537 188.891L160.141 191.822C159.796 192.035 159.541 192.367 159.424 192.755C159.316 193.161 159.372 193.594 159.581 193.959C160.017 194.635 160.991 195.003 161.717 194.519L166.113 191.588C166.459 191.375 166.714 191.043 166.831 190.655C166.939 190.249 166.882 189.816 166.674 189.452C166.238 188.775 165.264 188.407 164.537 188.891V188.891Z" fill="#75AA3C"/>
<path d="M415.23 337.101L406.027 342.118L396.823 347.134L391.612 349.975C390.875 350.415 390.625 351.365 391.052 352.111C391.499 352.84 392.441 353.088 393.188 352.671L402.392 347.654L411.595 342.638L416.806 339.797C417.544 339.357 417.793 338.407 417.366 337.661C416.92 336.932 415.977 336.684 415.23 337.101V337.101Z" fill="#75AA3C"/>
<ellipse cx="198.306" cy="231.716" rx="17.4167" ry="24.3018" transform="rotate(-44.4573 198.306 231.716)" fill="#3A3530"/>
<path d="M231.521 196.18C229.93 189.107 222.85 183.975 215.708 184.717C213.135 184.958 210.715 186.048 208.83 187.815C204.808 185.994 200.36 185.141 195.89 185.606C183.2 186.925 175.206 198.181 178.033 210.747C180.86 223.313 195.752 228.926 208.441 227.606C219.867 226.419 225.586 220.002 224.552 209.564C229.83 207.572 232.866 202.16 231.521 196.18Z" fill="#3A3530"/>
<path d="M287.183 273.536L299.663 234.873C300.404 232.578 302.492 230.903 304.903 230.878C304.921 230.878 304.938 230.878 304.956 230.878L334.051 230.793C334.051 230.793 346.736 219.896 346.736 225.934L336.904 235.807C336.448 236.259 335.874 236.572 335.247 236.713L313.543 242.014L304.905 286.919L287.183 273.536Z" fill="#FF9763"/>
<mask id="mask11_5_7138" style="mask-type:luminance" maskUnits="userSpaceOnUse" x="287" y="224" width="60" height="63">
<path fill-rule="evenodd" clip-rule="evenodd" d="M287.183 273.536L299.663 234.873C300.404 232.578 302.492 230.903 304.903 230.878C304.921 230.878 304.938 230.878 304.956 230.878L334.051 230.793C334.051 230.793 346.736 219.896 346.736 225.934L336.904 235.807C336.448 236.259 335.874 236.572 335.247 236.713L313.543 242.014L304.905 286.919L287.183 273.536Z" fill="white"/>
</mask>
<g mask="url(#mask11_5_7138)">
<path d="M290.01 245.691C306.288 243.186 315.721 249.781 315.721 249.781L312.699 255.515L298.137 252.62" fill="#E84B23"/>
</g>
<path d="M295.486 244.072C295.486 244.072 309.651 247.508 318.044 254.441L296.854 335.74C294.962 342.999 286.479 347.497 278.072 345.698V345.698C269.596 343.885 264.564 336.396 266.978 329.188L295.486 244.072Z" fill="#BB393C"/>
<path d="M290.01 309.572L242.294 246.945L215.292 269.038L268.884 340.082L290.01 309.572V309.572Z" fill="#BB393C"/>
<mask id="mask12_5_7138" style="mask-type:luminance" maskUnits="userSpaceOnUse" x="215" y="246" width="76" height="95">
<path fill-rule="evenodd" clip-rule="evenodd" d="M290.01 309.572L242.294 246.945L215.292 269.038L268.884 340.082L290.01 309.572V309.572Z" fill="white"/>
</mask>
<g mask="url(#mask12_5_7138)">
<path d="M274.585 344.552C252.837 330.434 255.582 303.38 251.224 287.219C247.342 272.822 218.589 299.87 218.589 299.87L221.037 313.697L223.274 319.165" fill="#90282A"/>
</g>
<path d="M236.827 251.418C236.827 251.418 214.981 240.728 172.898 254.314L165.915 278.424C165.915 278.424 181.82 324.815 177.513 343.04L242.128 352.318C249.418 331.774 247.762 310.235 247.762 310.235C247.762 310.235 253.547 299.682 250.161 277.633" fill="#BB393C"/>
<mask id="mask13_5_7138" style="mask-type:luminance" maskUnits="userSpaceOnUse" x="165" y="247" width="87" height="106">
<path fill-rule="evenodd" clip-rule="evenodd" d="M236.827 251.418C236.827 251.418 214.981 240.728 172.898 254.314L165.915 278.424C165.915 278.424 181.82 324.815 177.513 343.04L242.128 352.318C249.418 331.774 247.762 310.235 247.762 310.235C247.762 310.235 253.547 299.682 250.161 277.633" fill="white"/>
</mask>
<g mask="url(#mask13_5_7138)">
<ellipse cx="208.502" cy="252.331" rx="15.3629" ry="24.3042" transform="rotate(-69.9099 208.502 252.331)" fill="#FF9763"/>
<path d="M217.206 265.693C216.456 281.358 191.984 279.114 177.392 252.335C177.392 252.335 191.988 244.177 192.331 248.884C193.426 263.905 217.206 265.693 217.206 265.693Z" fill="#F0F3FC"/>
<path d="M217.207 265.693C221.031 276.428 236.299 276.318 232.896 256.289C232.896 256.289 218.408 244.068 220.455 248.32C226.285 260.427 217.207 265.693 217.207 265.693Z" fill="#F0F3FC"/>
<path d="M186.476 276.674C191.485 303.965 163.424 331.553 223.361 336.54C268.936 340.331 150.208 340.082 150.208 340.082C150.208 340.082 153.191 308.976 154.682 306.988C156.173 304.999 186.476 276.674 186.476 276.674Z" fill="#90282A"/>
<path d="M258.496 315.862L246.172 305.94L236.281 318.226L223.994 308.334L214.102 320.621L201.816 310.728L191.924 323.015L179.637 313.123L169.716 325.446L181.887 335.246L172.088 347.417L184.411 357.339L194.303 345.052L206.589 354.944L216.481 342.658L228.767 352.55L238.659 340.264L250.946 350.156L260.868 337.833L248.696 328.033L258.496 315.862V315.862Z" fill="#BB393C"/>
<rect x="182.161" y="335.216" width="15.5788" height="15.5788" transform="rotate(-51.1615 182.161 335.216)" fill="#9A7ED9"/>
<rect x="204.339" y="332.822" width="15.5788" height="15.5788" transform="rotate(-51.1615 204.339 332.822)" fill="#9A7ED9"/>
<rect x="226.518" y="330.427" width="15.5789" height="15.5789" transform="rotate(-51.1624 226.518 330.427)" fill="#9A7ED9"/>
</g>
<path d="M359.565 356.859H257.008L286.109 289.314C286.787 287.741 288.336 286.722 290.049 286.722H386.291C387.064 286.722 387.785 287.111 388.21 287.757C388.635 288.402 388.707 289.219 388.401 289.929L359.565 356.859Z" fill="#F0F3FC"/>
<path d="M362.287 356.859H259.73L288.831 289.314C289.509 287.741 291.058 286.722 292.771 286.722H389.012C389.786 286.722 390.507 287.111 390.932 287.757C391.357 288.402 391.429 289.219 391.123 289.929L362.287 356.859Z" fill="#F0F3FC"/>
<mask id="mask14_5_7138" style="mask-type:luminance" maskUnits="userSpaceOnUse" x="259" y="286" width="133" height="71">
<path fill-rule="evenodd" clip-rule="evenodd" d="M362.287 356.859H259.73L288.831 289.314C289.509 287.741 291.058 286.722 292.771 286.722H389.012C389.786 286.722 390.507 287.111 390.932 287.757C391.357 288.402 391.429 289.219 391.123 289.929L362.287 356.859Z" fill="white"/>
</mask>
<g mask="url(#mask14_5_7138)">
<path d="M271.888 306.215C257.009 356.859 397.911 361.265 397.911 361.265L238.446 391.656L222.135 347.21" fill="#D6DCF2"/>
</g>
<ellipse cx="232.044" cy="245.691" rx="21.9481" ry="25.1953" transform="rotate(-44.4573 232.044 245.691)" fill="#3A3530"/>
<path d="M193.572 251.714L191.657 218.246L212.756 230.423C212.29 232.112 217.207 263.167 217.207 263.167" fill="#FF9763"/>
<mask id="mask15_5_7138" style="mask-type:luminance" maskUnits="userSpaceOnUse" x="191" y="218" width="27" height="46">
<path fill-rule="evenodd" clip-rule="evenodd" d="M193.572 251.714L191.657 218.246L212.756 230.423C212.29 232.112 217.207 263.167 217.207 263.167" fill="white"/>
</mask>
<g mask="url(#mask15_5_7138)">
<path d="M226.762 258.023C209.689 252.776 203.541 241.861 203.833 233.173C204.014 227.795 222.739 230.747 222.739 230.747L229.598 237.42L229.905 247.826" fill="#E84B23"/>
</g>
<path d="M203.833 233.174C218.164 240.942 235.094 238.745 224.178 205.296C214.743 205.37 209.753 198.232 208.487 196.12L208.134 196.108C208.016 199.416 206.577 217.117 190.441 218.378" fill="#FF9763"/>
<mask id="mask16_5_7138" style="mask-type:luminance" maskUnits="userSpaceOnUse" x="190" y="196" width="38" height="41">
<path fill-rule="evenodd" clip-rule="evenodd" d="M203.833 233.174C218.164 240.942 235.094 238.745 224.178 205.296C214.743 205.37 209.753 198.232 208.487 196.12L208.134 196.108C208.016 199.416 206.577 217.117 190.441 218.378" fill="white"/>
</mask>
<g mask="url(#mask16_5_7138)">
<ellipse opacity="0.27" cx="230.127" cy="217.926" rx="4.6236" ry="6.23707" transform="rotate(-81.8339 230.127 217.926)" fill="#E84B23"/>
<ellipse opacity="0.27" cx="206.504" cy="219.129" rx="5.56379" ry="4.12448" transform="rotate(-8.9777 206.504 219.129)" fill="#E84B23"/>
<path d="M223.139 213.284V213.284C222.267 213.521 221.368 213.006 221.132 212.134L220.408 209.467C220.171 208.596 220.686 207.697 221.558 207.46V207.46C222.43 207.224 223.329 207.739 223.566 208.61L224.289 211.277C224.403 211.695 224.346 212.142 224.13 212.519C223.914 212.895 223.558 213.17 223.139 213.284L223.139 213.284Z" fill="#190000"/>
<path d="M211.955 215.35V215.35C211.083 215.587 210.184 215.072 209.948 214.2L209.224 211.534C208.987 210.662 209.502 209.763 210.374 209.527V209.527C211.246 209.29 212.145 209.805 212.382 210.677L213.105 213.343C213.342 214.215 212.827 215.114 211.955 215.35L211.955 215.35Z" fill="#190000"/>
<path d="M220.942 203.632C224.419 203.698 224.008 205.695 221.832 205.796C219.656 205.897 218.67 203.59 220.942 203.632Z" fill="#190000"/>
<path d="M209.426 205.656C206.459 207.47 207.542 208.917 209.471 207.904C211.4 206.891 211.364 204.471 209.426 205.656Z" fill="#190000"/>
<path d="M215.632 214.915C215.826 216.185 216.929 215.501 218.384 215.279C219.839 215.056 221.096 215.379 220.902 214.109C220.708 212.839 219.37 211.99 217.915 212.212C216.46 212.435 215.437 213.645 215.632 214.915Z" fill="#E84B23"/>
<path d="M222.557 220.994C222.466 229.103 214.488 227.116 213.501 222.26C213.454 222.008 213.569 221.753 213.79 221.623C214.719 221.06 217.473 219.734 222.021 220.376C222.328 220.42 222.557 220.683 222.557 220.994Z" fill="#C1525F"/>
<mask id="mask17_5_7138" style="mask-type:luminance" maskUnits="userSpaceOnUse" x="213" y="220" width="10" height="7">
<path fill-rule="evenodd" clip-rule="evenodd" d="M222.557 220.994C222.466 229.103 214.488 227.116 213.501 222.26C213.454 222.008 213.569 221.753 213.79 221.623C214.719 221.06 217.473 219.734 222.021 220.376C222.328 220.42 222.557 220.683 222.557 220.994Z" fill="white"/>
</mask>
<g mask="url(#mask17_5_7138)">
<ellipse cx="217.697" cy="226.307" rx="3.62839" ry="4.06526" transform="rotate(-80.7582 217.697 226.307)" fill="#993443"/>
<path d="M220.958 219.97C221.036 220.491 221.093 221.207 220.976 221.357C220.259 222.278 216.142 222.545 215.518 222.176C215.344 222.073 215.067 220.395 215.067 220.395L220.297 219.781" fill="#F0F3FC"/>
</g>
</g>
<path d="M193.024 218.033C173.363 209.522 177.734 233.905 193.901 229.207Z" fill="#FF9763"/>
<path d="M182.952 227.331C179.382 230.598 178.711 235.973 181.37 240.017C184.028 244.061 189.229 245.576 193.644 243.593C198.058 241.61 200.38 236.715 199.122 232.042C197.865 227.369 193.4 224.3 188.587 224.8" stroke="white" stroke-width="1.95169"/>
<path d="M252.651 341.506C252.651 341.506 278.242 341.468 283.3 343.62C289.966 346.455 301.183 353.012 303.57 354.567C303.792 354.71 303.887 354.986 303.8 355.235C303.335 356.536 301.415 360.053 295.105 355.425C295.105 355.425 298.211 359.152 298.46 364.371C298.708 369.59 293.117 369.466 293.365 364.371C293.365 364.371 291.626 371.33 286.282 364.123C286.282 364.123 284.608 369.316 281.809 365.117C279.551 361.731 278.717 358.903 273.117 358.737C265.942 358.525 245.282 359.234 245.282 359.234L255.217 342.253" fill="#FF9763"/>
<mask id="mask18_5_7138" style="mask-type:luminance" maskUnits="userSpaceOnUse" x="245" y="341" width="59" height="28">
<path fill-rule="evenodd" clip-rule="evenodd" d="M252.65 341.506C252.65 341.506 278.241 341.468 283.3 343.62C289.965 346.455 301.183 353.012 303.569 354.567C303.792 354.71 303.887 354.986 303.799 355.235C303.334 356.536 301.414 360.053 295.104 355.425C295.104 355.425 298.211 359.152 298.459 364.371C298.708 369.59 293.116 369.466 293.365 364.371C293.365 364.371 291.625 371.33 286.282 364.123C286.282 364.123 284.607 369.316 281.808 365.117C279.551 361.731 278.717 358.903 273.116 358.737C265.941 358.525 245.282 359.234 245.282 359.234L255.217 342.253" fill="white"/>
</mask>
<g mask="url(#mask18_5_7138)">
<path d="M272.675 364.63C248.496 363.531 269.497 352.182 262.568 341.646C255.64 331.11 250.877 357.853 250.877 357.853L257.008 363.531L269.012 366.645" fill="#E84B23"/>
</g>
<path d="M172.898 254.314C165.307 253.325 158.011 257.605 155.171 264.714L123.986 342.773L159.784 349.833L186.475 276.674" fill="#BB393C"/>
<path d="M129.953 327.838L123.252 344.517C120.241 352.634 126.245 361.265 134.902 361.265H258.199C258.199 361.265 262.176 351.324 263.17 334.922L158.712 329.368" fill="#BB393C"/>
<mask id="mask19_5_7138" style="mask-type:luminance" maskUnits="userSpaceOnUse" x="122" y="327" width="142" height="35">
<path fill-rule="evenodd" clip-rule="evenodd" d="M129.953 327.838L123.252 344.517C120.241 352.634 126.245 361.265 134.902 361.265H258.199C258.199 361.265 262.176 351.324 263.17 334.922L158.712 329.368" fill="white"/>
</mask>
<g mask="url(#mask19_5_7138)">
<circle cx="122.465" cy="361.265" r="27.2698" fill="#9A7ED9"/>
<circle cx="122.465" cy="361.265" r="32.766" stroke="#90282A" stroke-width="1.30113" stroke-linecap="round" stroke-linejoin="round" stroke-dasharray="2.6"/>
</g>
<path d="M246.375 329.441C246.375 329.441 248.207 355.355 243.811 361.265H258.199C258.199 361.265 264.456 343.699 263.17 334.922L246.375 329.441Z" fill="#9A7ED9"/>
<path d="M290.01 259.347L295.486 244.072C295.486 244.072 309.726 246.116 318.044 254.441V267.406C318.044 267.406 301.773 256.66 290.01 259.347Z" fill="#9A7ED9"/>
<circle cx="218.947" cy="275.893" r="1.74015" fill="#190000"/>
<circle cx="220.395" cy="287.22" r="1.74015" fill="#190000"/>
<ellipse cx="334.705" cy="315.715" rx="14.2021" ry="11.0714" transform="rotate(-39.9628 334.705 315.715)" fill="#9A7ED9"/>
<path d="M371.772 310.859L353.137 318.158L349.906 301.57L368.541 294.271L371.772 310.859V310.859Z" fill="#589BF7"/>
<path d="M352.047 333.125L346.249 328.676L352.469 321.85L358.268 326.299L352.047 333.125V333.125Z" fill="#F0F3FC"/>
<path d="M227.401 247.78C229.553 250.28 232.412 252.07 235.602 252.912C236.535 253.153 237.486 253.314 238.446 253.39C238.962 253.434 239.456 252.905 239.434 252.403C239.42 251.863 238.986 251.429 238.446 251.415C238.269 251.401 238.093 251.383 237.916 251.363C237.867 251.357 237.814 251.353 237.766 251.344C237.795 251.35 237.986 251.376 237.802 251.348C237.702 251.333 237.602 251.318 237.502 251.302C237.127 251.24 236.755 251.163 236.385 251.073C235.647 250.888 234.924 250.652 234.219 250.366C234.167 250.346 234.051 250.325 234.244 250.378C234.208 250.365 234.173 250.35 234.14 250.333C234.058 250.297 233.977 250.261 233.897 250.224C233.712 250.14 233.529 250.052 233.348 249.961C233.009 249.789 232.676 249.605 232.35 249.409C232.024 249.214 231.706 249.006 231.395 248.787C231.25 248.684 231.107 248.579 230.966 248.472C230.821 248.363 230.959 248.469 230.985 248.487C230.944 248.459 230.904 248.424 230.866 248.393C230.787 248.33 230.708 248.265 230.63 248.201C229.968 247.648 229.355 247.04 228.797 246.383C228.461 245.988 227.741 246.012 227.401 246.383C227.029 246.774 227.029 247.389 227.401 247.78L227.401 247.78Z" fill="#190000"/>
<path d="M192.396 195.552C190.784 196.061 189.346 197.009 188.241 198.288C188.061 198.477 187.958 198.726 187.952 198.987C187.954 199.248 188.057 199.499 188.241 199.685C188.609 200.023 189.28 200.105 189.637 199.685C189.872 199.408 190.124 199.148 190.393 198.904C190.528 198.783 190.673 198.674 190.809 198.554C190.587 198.749 190.838 198.535 190.899 198.491C190.973 198.438 191.047 198.387 191.123 198.336C191.424 198.135 191.739 197.954 192.065 197.795C192.146 197.755 192.228 197.716 192.311 197.679C192.348 197.663 192.385 197.648 192.422 197.631C192.179 197.747 192.322 197.673 192.381 197.649C192.559 197.578 192.739 197.515 192.921 197.456C193.412 197.298 193.78 196.764 193.611 196.241C193.452 195.75 192.923 195.382 192.396 195.552V195.552Z" fill="#190000"/>
<path d="M157.688 293.324C158.824 295.239 160.604 296.689 162.709 297.415C163.235 297.557 163.776 297.249 163.924 296.726C164.056 296.201 163.752 295.667 163.235 295.511C163.126 295.473 163.018 295.434 162.911 295.392C162.836 295.362 162.702 295.262 162.893 295.386C162.852 295.365 162.81 295.346 162.767 295.331C162.547 295.231 162.332 295.122 162.122 295.003C161.922 294.89 161.727 294.769 161.537 294.64C161.433 294.569 161.33 294.495 161.229 294.42C161.125 294.344 161.23 294.405 161.265 294.449C161.215 294.401 161.161 294.357 161.104 294.319C160.75 294.026 160.421 293.704 160.12 293.357C160.044 293.27 159.972 293.182 159.9 293.092C159.75 292.907 160.025 293.267 159.886 293.074C159.853 293.027 159.818 292.981 159.785 292.934C159.646 292.738 159.516 292.535 159.394 292.327C159.216 292.022 158.888 291.836 158.536 291.837C158.183 291.839 157.858 292.029 157.683 292.336C157.508 292.642 157.51 293.019 157.688 293.324L157.688 293.324Z" fill="#90282A"/>
<path d="M308.442 239.558C309.578 241.651 311.567 243.148 313.893 243.66C314.397 243.766 314.985 243.512 315.108 242.97C315.221 242.475 314.959 241.87 314.418 241.756C314.171 241.704 313.927 241.64 313.686 241.562C313.561 241.521 313.436 241.477 313.313 241.429C313.284 241.418 313.092 241.338 313.231 241.398C313.369 241.458 313.178 241.373 313.151 241.36C312.693 241.147 312.257 240.888 311.85 240.589C311.7 240.48 311.943 240.667 311.85 240.589C311.804 240.551 311.756 240.514 311.71 240.475C311.618 240.398 311.528 240.318 311.44 240.237C311.254 240.065 311.078 239.884 310.912 239.694C310.891 239.67 310.665 239.385 310.659 239.388C310.671 239.382 310.788 239.56 310.662 239.387C310.626 239.338 310.592 239.289 310.558 239.24C310.409 239.021 310.272 238.795 310.147 238.561C309.869 238.094 309.268 237.936 308.796 238.207C308.335 238.489 308.179 239.085 308.442 239.558L308.442 239.558Z" fill="#E84B23"/>
<path d="M275.953 353.084L275.475 355.04C275.41 355.297 275.446 355.57 275.575 355.801C275.776 356.144 276.162 356.333 276.556 356.282C276.95 356.231 277.274 355.948 277.38 355.565L277.857 353.609C277.923 353.352 277.887 353.079 277.758 352.848C277.557 352.505 277.171 352.315 276.777 352.367C276.383 352.418 276.058 352.701 275.953 353.084V353.084Z" fill="#E84B23"/>
<path d="M195.732 346.259L196.709 347.236C197.1 347.607 197.713 347.607 198.105 347.236C198.29 347.05 198.394 346.799 198.394 346.537L198.359 346.275C198.314 346.11 198.226 345.96 198.105 345.839L197.128 344.862C196.737 344.491 196.123 344.491 195.732 344.862C195.547 345.048 195.443 345.299 195.442 345.56L195.478 345.823C195.523 345.988 195.611 346.138 195.732 346.259V346.259Z" fill="#90282A"/>
<path d="M300.004 308.892C298.412 310.678 297.317 312.851 296.829 315.194C296.727 315.699 296.974 316.285 297.519 316.409C298.011 316.521 298.624 316.261 298.734 315.719C298.84 315.191 298.98 314.669 299.152 314.158C299.239 313.903 299.336 313.652 299.437 313.402C299.386 313.529 299.409 313.467 299.448 313.377C299.475 313.315 299.503 313.254 299.531 313.193C299.587 313.07 299.645 312.949 299.705 312.828C299.94 312.357 300.203 311.902 300.494 311.464C300.569 311.352 300.645 311.241 300.724 311.131C300.763 311.076 300.802 311.022 300.842 310.967C300.842 310.968 300.992 310.767 300.911 310.874C300.831 310.981 300.967 310.803 300.983 310.783C301.025 310.73 301.068 310.678 301.111 310.626C301.206 310.512 301.302 310.399 301.401 310.288C301.743 309.902 301.81 309.268 301.401 308.892C301.026 308.548 300.37 308.479 300.004 308.892L300.004 308.892Z" fill="#D6DCF2"/>
<path d="M177.267 72.137C177.267 67.9226 173.85 64.5061 169.636 64.5061H8.31592C4.10151 64.5061 0.685069 67.9226 0.685059 72.137V81.4973H177.267L177.267 72.137Z" fill="#EFF3FC"/>
<mask id="mask20_5_7138" style="mask-type:luminance" maskUnits="userSpaceOnUse" x="0" y="64" width="178" height="18">
<path fill-rule="evenodd" clip-rule="evenodd" d="M177.267 72.137C177.267 67.9226 173.85 64.5061 169.636 64.5061H8.31592C4.10151 64.5061 0.685069 67.9226 0.685059 72.137V81.4973H177.267L177.267 72.137Z" fill="white"/>
</mask>
<g mask="url(#mask20_5_7138)">
<path d="M84.2229 60.1954C55.1568 69.2018 182.474 59.3352 181.656 74.9124C180.837 90.4896 179.199 51.5984 179.199 51.5984L116.155 53.2359" fill="#D6DCF2"/>
</g>
<path d="M0.685059 81.4973V174.922C0.68508 179.136 4.10152 182.552 8.31592 182.553H169.636C173.85 182.552 177.267 179.136 177.267 174.922V81.4973H0.685059Z" fill="#D6DCF2"/>
<mask id="mask21_5_7138" style="mask-type:luminance" maskUnits="userSpaceOnUse" x="0" y="81" width="178" height="102">
<path fill-rule="evenodd" clip-rule="evenodd" d="M0.685059 81.4973V174.922C0.68508 179.136 4.10152 182.552 8.31592 182.553H169.636C173.85 182.552 177.267 179.136 177.267 174.922V81.4973H0.685059Z" fill="white"/>
</mask>
<g mask="url(#mask21_5_7138)">
<path d="M-2.97537 162.902C-3.58948 188.127 169.636 182.552 169.636 182.552L3.16534 212.69L-23.2397 194.882" fill="#BFC8E2"/>
</g>
<circle cx="10.2778" cy="72.7986" r="2.11378" fill="#BB393C"/>
<circle cx="19.1597" cy="72.7986" r="2.11378" fill="#FFC562"/>
<circle cx="28.0425" cy="72.7986" r="2.11378" fill="#75AA3C"/>
<rect x="14.5781" y="90.9109" width="148.795" height="80.6056" rx="3.19537" fill="#9A7ED9"/>
<mask id="mask22_5_7138" style="mask-type:luminance" maskUnits="userSpaceOnUse" x="14" y="90" width="150" height="82">
<rect x="14.5781" y="90.9109" width="148.795" height="80.6056" rx="3.19537" fill="white"/>
</mask>
<g mask="url(#mask22_5_7138)">
<path d="M159.753 82.7395C163.373 168.321 -5.43213 174.987 -5.43213 174.987L185.544 205.321L198.024 123.529" fill="#6F4EB9"/>
</g>
<ellipse opacity="0.36" cx="88.9755" cy="127.5" rx="23.5996" ry="23.6288" fill="#EFF3FC"/>
<path d="M82.4004 127.5V118.794C82.3998 118.265 82.6816 117.776 83.1394 117.511C83.5972 117.247 84.1615 117.247 84.6195 117.511L92.1499 121.864L99.6803 126.217C100.138 126.482 100.42 126.971 100.42 127.5C100.42 128.029 100.138 128.518 99.6803 128.783L92.1499 133.136L84.6195 137.489C84.1615 137.753 83.5972 137.753 83.1394 137.488C82.6816 137.224 82.3998 136.735 82.4004 136.206V127.5Z" fill="#EFF3FC"/>
<path d="M38.9177 112.12C37.6048 113.649 35.9957 114.896 34.1877 115.786C33.8787 115.971 33.7743 116.369 33.9529 116.681C34.1399 116.987 34.5351 117.091 34.8481 116.916C36.755 115.973 38.4534 114.657 39.8431 113.046C40.0898 112.787 40.0898 112.379 39.8431 112.12C39.5862 111.868 39.1746 111.868 38.9178 112.12H38.9177Z" fill="#6F4EB9"/>
<path d="M147.912 156.178L144.228 157.407C143.879 157.503 143.675 157.863 143.771 158.212C143.867 158.56 144.227 158.765 144.576 158.669L148.26 157.44C148.609 157.344 148.813 156.984 148.717 156.635C148.621 156.287 148.261 156.082 147.912 156.178V156.178Z" fill="#6F4EB9"/>
</svg>
