<svg width="594" height="409" viewBox="0 0 594 409" fill="none" xmlns="http://www.w3.org/2000/svg">
<path d="M71.6102 387.06H523.141V390.172C523.141 400.102 515.091 408.152 505.161 408.152H89.5905C79.6602 408.152 71.6101 400.102 71.6101 390.172V387.06H71.6102Z" fill="#589BF7"/>
<mask id="mask0_117_3284" style="mask-type:luminance" maskUnits="userSpaceOnUse" x="71" y="387" width="453" height="22">
<path fill-rule="evenodd" clip-rule="evenodd" d="M71.6102 387.06H523.141V390.172C523.141 400.102 515.091 408.152 505.161 408.152H89.5905C79.6602 408.152 71.6101 400.102 71.6101 390.172V387.06H71.6102Z" fill="white"/>
</mask>
<g mask="url(#mask0_117_3284)">
<path d="M49.7093 419.829C47.4072 372.451 394.829 414.198 449.995 411.175C505.161 408.152 161.951 467.435 161.951 467.435L36.3785 436.017" fill="#2976DF"/>
</g>
<path d="M211.952 387.06H382.8V387.111C382.8 392.907 378.101 397.606 372.305 397.606H222.448C216.651 397.606 211.952 392.907 211.952 387.111V387.06H211.952Z" fill="#2976DF"/>
<path d="M479.029 136.49C502.692 200.143 461.514 292.876 461.514 292.876L479.029 136.49Z" fill="#FFC562"/>
<path d="M435.032 88.2745C479.159 126.721 516.077 190.385 448.776 292.373C448.776 292.373 354.544 203.901 435.032 88.2745Z" fill="#FF9763"/>
<mask id="mask1_117_3284" style="mask-type:luminance" maskUnits="userSpaceOnUse" x="402" y="88" width="84" height="205">
<path fill-rule="evenodd" clip-rule="evenodd" d="M435.032 88.2745C479.159 126.721 516.077 190.385 448.776 292.373C448.776 292.373 354.544 203.901 435.032 88.2745Z" fill="white"/>
</mask>
<g mask="url(#mask1_117_3284)">
<path d="M432.647 72.5572C381.174 155.334 455.912 152.274 458.713 222.575C461.514 292.876 392.503 166.584 392.503 166.584L407.074 88.2745H413.65" fill="#E5713E"/>
</g>
<path d="M436.173 108.115C439.97 115.104 443.211 122.383 445.863 129.882C448.525 137.321 450.51 144.933 452.166 152.589C453.784 160.255 454.937 167.994 455.813 175.754C456.69 183.517 457.094 191.317 457.318 199.115C457.807 214.718 457.073 230.341 455.635 245.906C454.913 253.689 453.976 261.456 452.827 269.205C451.714 276.956 450.388 284.685 448.776 292.373C452.637 277.107 455.15 261.584 456.911 246.008C457.816 238.22 458.346 230.399 458.712 222.575C459.048 214.75 459.207 206.913 458.98 199.079C458.48 183.422 456.903 167.75 453.417 152.372L453.104 150.929L452.734 149.497L451.993 146.631L451.253 143.767C450.995 142.814 450.684 141.873 450.403 140.925C449.811 139.038 449.284 137.134 448.638 135.261L446.635 129.659C443.731 122.26 440.335 115.011 436.173 108.115Z" fill="#E5713E"/>
<path d="M506.266 0C535.739 66.0094 553 157.49 470.325 241.691C470.325 241.691 408.881 93.3955 506.266 0Z" fill="#FFC562"/>
<mask id="mask2_117_3284" style="mask-type:luminance" maskUnits="userSpaceOnUse" x="451" y="0" width="80" height="242">
<path fill-rule="evenodd" clip-rule="evenodd" d="M506.266 0C535.739 66.0094 553 157.49 470.325 241.691C470.325 241.691 408.881 93.3955 506.266 0Z" fill="white"/>
</mask>
<g mask="url(#mask2_117_3284)">
<path d="M499.379 -16.582L506.266 3.8147e-06C506.266 3.8147e-06 529.437 135.884 479.337 229.649C429.237 323.413 602.645 83.4564 602.645 83.4564L537.373 2.744L499.379 -16.582Z" fill="#D89D35"/>
</g>
<path d="M502.602 23.3982C504.068 32.575 505.216 41.7822 505.75 51.0289C505.914 53.3378 505.965 55.6527 506.079 57.9637L506.227 61.4312L506.265 64.9013C506.278 67.2148 506.324 69.5277 506.31 71.8406L506.153 78.7787C505.553 97.3042 503.641 115.764 500.433 134.02C498.882 143.168 497.104 152.29 495.027 161.36C492.961 170.432 490.598 179.448 488.121 188.44C485.621 197.428 482.886 206.362 479.916 215.243C476.996 224.133 473.799 232.949 470.325 241.691C477.919 224.421 484.035 206.654 489.362 188.722C494.641 170.82 498.887 152.629 502.078 134.24C503.655 125.066 504.838 115.84 505.78 106.599L506.426 99.6621L506.901 92.714C507.086 90.3993 507.149 88.0787 507.243 85.7599C507.312 83.4405 507.445 81.1228 507.428 78.8015L507.471 71.8412C507.447 69.5214 507.363 67.2018 507.312 64.8825L507.216 61.4042L507.011 57.929C506.856 55.6134 506.779 53.294 506.56 50.9824L505.862 44.0521L505.685 42.3204L505.444 40.5943L504.961 37.1427C504.412 32.5305 503.43 27.9707 502.602 23.3982Z" fill="#FFC562"/>
<path d="M319.317 105.203C380.241 114.471 451.414 148.113 461.513 265.99C461.513 265.99 327.325 240.962 319.317 105.203Z" fill="#FFC562"/>
<mask id="mask3_117_3284" style="mask-type:luminance" maskUnits="userSpaceOnUse" x="319" y="105" width="143" height="161">
<path fill-rule="evenodd" clip-rule="evenodd" d="M319.318 105.203C380.242 114.471 451.415 148.113 461.514 265.989C461.514 265.989 327.326 240.962 319.318 105.203Z" fill="white"/>
</mask>
<g mask="url(#mask3_117_3284)">
<path d="M285.057 128.087L319.318 105.203C319.318 105.203 361.057 226.436 457.49 255.95C553.923 285.464 255.1 306.365 255.1 306.365L277.75 132.545" fill="#D89D35"/>
</g>
<path d="M332.979 120.932C340.578 124.751 347.903 129.09 354.904 133.918C361.863 138.685 368.377 143.936 374.648 149.39C380.894 154.872 386.805 160.649 392.502 166.584C398.201 172.52 403.536 178.726 408.722 185.022C419.131 197.597 428.548 210.809 437.348 224.329C441.746 231.091 445.958 237.948 449.983 244.899C454.04 251.832 457.908 258.855 461.513 265.99C454.895 251.489 447.005 237.459 438.463 223.768C434.211 216.908 429.631 210.213 424.914 203.597C420.171 196.996 415.276 190.475 410.065 184.151C399.612 171.536 388.265 159.454 375.537 148.579L374.354 147.552L373.131 146.562L370.684 144.582L368.239 142.602C367.416 141.949 366.557 141.333 365.718 140.697C364.021 139.445 362.367 138.147 360.635 136.934L355.395 133.344C348.264 128.733 340.823 124.494 332.979 120.932Z" fill="#FFC562"/>
<path d="M590.451 99.3989C600.765 153.533 588.576 224.323 466.687 271.794C466.687 271.794 448.873 151.034 590.451 99.3989Z" fill="#FF9763"/>
<mask id="mask4_117_3284" style="mask-type:luminance" maskUnits="userSpaceOnUse" x="465" y="99" width="129" height="173">
<path fill-rule="evenodd" clip-rule="evenodd" d="M590.451 99.3989C600.765 153.533 588.576 224.323 466.687 271.794C466.687 271.794 448.873 151.034 590.451 99.3989Z" fill="white"/>
</mask>
<g mask="url(#mask4_117_3284)">
<path d="M436.173 230.865C539.623 278.475 589.629 159.249 589.629 159.249L600.696 258.142L530.649 299.058L420.469 260.932L424.366 237.613" fill="#E5713E"/>
</g>
<path d="M578.262 116.055C576.693 123.777 574.506 131.359 571.721 138.73C568.96 146.14 565.536 153.338 561.816 160.399C558.06 167.449 553.878 174.315 549.459 181.054C545.038 187.796 540.21 194.321 535.237 200.751C525.322 213.637 514.402 225.902 502.951 237.753C497.222 243.677 491.331 249.476 485.279 255.151C479.255 260.845 473.058 266.393 466.688 271.794C479.903 261.449 492.197 250.193 503.916 238.501C509.796 232.668 515.394 226.613 520.862 220.47C526.305 214.31 531.613 208.049 536.607 201.589C546.55 188.653 555.631 175.143 562.972 160.876L563.672 159.545L564.319 158.192L565.614 155.486L566.908 152.781C567.329 151.875 567.699 150.951 568.097 150.037C568.866 148.2 569.697 146.385 570.413 144.531L572.493 138.952C575.032 131.448 577.074 123.809 578.262 116.055Z" fill="#E5713E"/>
<path d="M397.247 387.108H523.37L546.384 243.478H374.233L397.247 387.108Z" fill="#9A7ED9"/>
<mask id="mask5_117_3284" style="mask-type:luminance" maskUnits="userSpaceOnUse" x="374" y="243" width="173" height="145">
<path fill-rule="evenodd" clip-rule="evenodd" d="M397.247 387.108H523.37L546.384 243.478H374.233L397.247 387.108Z" fill="white"/>
</mask>
<g mask="url(#mask5_117_3284)">
<path d="M360.223 260.932C583.161 274.216 507.471 387.108 507.471 387.108L546.384 391.12L578.263 252.203L546.384 225.168L343.508 241.691" fill="#6F4EB9"/>
</g>
<rect x="560.87" y="260.932" width="200.647" height="23.3191" transform="rotate(-180 560.87 260.932)" fill="#9A7ED9"/>
<path d="M436.032 351.223L438.212 352.702C438.622 352.941 439.137 352.909 439.513 352.619C439.89 352.33 440.054 351.841 439.927 351.383C439.836 351.095 439.646 350.848 439.391 350.685L437.211 349.206C436.801 348.966 436.286 348.999 435.91 349.289C435.533 349.578 435.369 350.067 435.495 350.525C435.587 350.813 435.777 351.06 436.032 351.223Z" fill="#D89D35"/>
<path d="M376.707 178.032C377.689 180.689 378.959 183.23 380.495 185.611C380.827 186.123 381.545 186.382 382.093 186.03C382.604 185.7 382.867 184.98 382.511 184.432C381.776 183.299 381.103 182.128 380.494 180.923C380.19 180.32 379.903 179.71 379.632 179.091C379.603 179.024 379.574 178.956 379.545 178.889C379.527 178.849 379.51 178.808 379.493 178.768C379.547 178.898 379.558 178.923 379.525 178.844C379.463 178.695 379.401 178.546 379.34 178.396C379.209 178.07 379.081 177.741 378.959 177.411C378.747 176.84 378.159 176.389 377.522 176.595C376.964 176.776 376.479 177.419 376.707 178.032V178.032Z" fill="#D89D35"/>
<path d="M516.266 71.3532C516.297 71.5354 516.327 71.7177 516.356 71.9003C516.405 72.1107 516.436 72.3248 516.45 72.5403C516.45 72.5324 516.422 72.3218 516.439 72.4588C516.445 72.5047 516.451 72.5504 516.457 72.5963C516.469 72.6879 516.48 72.7797 516.491 72.8714C516.517 73.0855 516.54 73.2998 516.562 73.5144C516.643 74.3112 516.698 75.1101 516.727 75.9111C516.783 77.497 516.735 79.085 516.585 80.6648C516.543 81.1067 516.512 81.5589 516.433 81.9961C516.435 81.9879 516.464 81.7782 516.444 81.9145C516.435 81.9755 516.426 82.0366 516.418 82.0975C516.402 82.2042 516.386 82.3109 516.37 82.4174C516.333 82.661 516.293 82.9042 516.25 83.147C516.177 83.4511 516.219 83.7718 516.368 84.0468C516.523 84.3083 516.773 84.5003 517.066 84.5834C517.633 84.7126 518.391 84.4114 518.502 83.7678C519.087 80.4602 519.228 77.0892 518.92 73.7444C518.824 72.7362 518.69 71.7322 518.518 70.7324C518.415 70.1286 517.64 69.736 517.082 69.9168C516.43 70.1276 516.156 70.7064 516.266 71.3533L516.266 71.3532Z" fill="#D89D35"/>
<path d="M522.661 195.799L517.559 202.749C517.4 203.021 517.358 203.345 517.441 203.649C517.524 203.941 517.716 204.191 517.977 204.347C518.586 204.668 519.188 204.455 519.575 203.928L524.678 196.978C524.836 196.706 524.878 196.382 524.796 196.078C524.712 195.785 524.52 195.536 524.259 195.38C523.651 195.059 523.049 195.272 522.661 195.799Z" fill="#E5713E"/>
<path d="M363.666 57.8062C363.464 52.2354 362.089 46.7699 359.629 41.7673C358.695 39.868 357.609 38.0474 356.381 36.3235C347.215 23.4359 330.78 16.8002 314.52 20.8926C298.26 24.9849 286.925 38.6101 284.952 54.3014C284.686 56.4012 284.591 58.5191 284.667 60.6343C284.869 66.2051 286.245 71.6706 288.704 76.6732C298.351 76.3631 311.307 74.6798 327.06 70.715C342.813 66.7503 355.022 62.0998 363.666 57.8062Z" fill="#9A7ED9"/>
<mask id="mask6_117_3284" style="mask-type:luminance" maskUnits="userSpaceOnUse" x="284" y="19" width="80" height="58">
<path fill-rule="evenodd" clip-rule="evenodd" d="M363.666 57.8062C363.464 52.2354 362.089 46.7699 359.629 41.7673C358.695 39.868 357.609 38.0474 356.381 36.3235C347.215 23.4359 330.78 16.8002 314.52 20.8926C298.26 24.9849 286.925 38.6101 284.952 54.3014C284.686 56.4012 284.591 58.5191 284.667 60.6343C284.869 66.2051 286.245 71.6706 288.704 76.6732C298.351 76.3631 311.307 74.6798 327.06 70.715C342.813 66.7503 355.022 62.0998 363.666 57.8062Z" fill="white"/>
</mask>
<g mask="url(#mask6_117_3284)">
<path d="M298.725 14.377C382.845 19.3577 365.574 65.4952 305.592 75.0647C245.611 84.6341 384.864 68.7493 384.864 68.7493L382.59 22.9558L318.802 10.5673L301.775 19.1687" fill="#6F4EB9"/>
</g>
<path d="M291.953 82.1169C301.119 95.0048 317.554 101.64 333.813 97.5479C350.073 93.4553 361.409 79.8304 363.382 64.1393C353.647 68.6484 341.486 72.8282 328.42 76.1169C315.353 79.4055 302.662 81.4807 291.953 82.1169Z" fill="#9A7ED9"/>
<mask id="mask7_117_3284" style="mask-type:luminance" maskUnits="userSpaceOnUse" x="291" y="64" width="73" height="35">
<path fill-rule="evenodd" clip-rule="evenodd" d="M291.953 82.1169C301.119 95.0048 317.554 101.64 333.813 97.5479C350.073 93.4553 361.409 79.8304 363.382 64.1393C353.647 68.6484 341.486 72.8282 328.42 76.1169C315.353 79.4055 302.662 81.4807 291.953 82.1169Z" fill="white"/>
</mask>
<g mask="url(#mask7_117_3284)">
<path d="M309.947 102.371C285.842 82.3288 333.074 78.2284 354.167 66.6151C375.261 55.0017 272.271 75.2679 272.271 75.2679L290.887 97.4426" fill="#6F4EB9"/>
</g>
<path d="M384.663 43.994C383.328 38.6872 375.868 36.0343 362.493 36.1115C360.544 36.1227 358.498 36.1978 356.381 36.3234C357.609 38.0474 358.695 39.8679 359.63 41.7673C371.813 41.3759 378.714 43.1762 379.262 45.3536C379.81 47.5311 374.583 52.3834 363.666 57.806C355.022 62.0997 342.813 66.7501 327.06 70.7149C311.308 74.6796 298.351 76.363 288.705 76.673C276.521 77.0647 269.621 75.2641 269.072 73.0869C268.525 70.9093 273.751 66.0568 284.668 60.6341C284.592 58.5189 284.687 56.401 284.952 54.3012C283.029 55.1922 281.19 56.0949 279.469 57.0077C267.65 63.2716 262.335 69.1395 263.671 74.4462C265.007 79.7532 272.466 82.4059 285.842 82.3287C287.79 82.3176 289.837 82.2427 291.953 82.1168C302.662 81.4806 315.354 79.4054 328.42 76.1167C341.486 72.8281 353.647 68.6482 363.382 64.1392C365.306 63.248 367.144 62.3452 368.866 61.4327C380.684 55.1687 385.999 49.3008 384.663 43.994Z" fill="#97CC64"/>
<mask id="mask8_117_3284" style="mask-type:luminance" maskUnits="userSpaceOnUse" x="263" y="36" width="122" height="47">
<path fill-rule="evenodd" clip-rule="evenodd" d="M384.663 43.994C383.328 38.6872 375.868 36.0343 362.493 36.1115C360.544 36.1227 358.498 36.1978 356.381 36.3234C357.609 38.0474 358.695 39.8679 359.63 41.7673C371.813 41.3759 378.714 43.1762 379.262 45.3536C379.81 47.5311 374.583 52.3834 363.666 57.806C355.022 62.0997 342.813 66.7501 327.06 70.7149C311.308 74.6796 298.351 76.363 288.705 76.673C276.521 77.0647 269.621 75.2641 269.072 73.0869C268.525 70.9093 273.751 66.0568 284.668 60.6341C284.592 58.5189 284.687 56.401 284.952 54.3012C283.029 55.1922 281.19 56.0949 279.469 57.0077C267.65 63.2716 262.335 69.1395 263.671 74.4462C265.007 79.7532 272.466 82.4059 285.842 82.3287C287.79 82.3176 289.837 82.2427 291.953 82.1168C302.662 81.4806 315.354 79.4054 328.42 76.1167C341.486 72.8281 353.647 68.6482 363.382 64.1392C365.306 63.248 367.144 62.3452 368.866 61.4327C380.684 55.1687 385.999 49.3008 384.663 43.994Z" fill="white"/>
</mask>
<g mask="url(#mask8_117_3284)">
<path d="M254.506 59.2202C291.61 53.3751 288.052 70.0409 288.052 70.0409L297.201 49.3437L282.461 46.2899" fill="#75AA3C"/>
<path d="M346.249 30.5119C364.801 33.0442 366.834 46.2899 366.834 46.2899L351.078 49.3437L345.995 44.4803" fill="#75AA3C"/>
</g>
<path d="M323.069 38.1087C321.568 40.6782 319.467 42.8462 316.946 44.4275L323.069 38.1087Z" fill="#190000"/>
<path d="M322.719 37.9036C321.25 40.4108 319.199 42.5281 316.741 44.0767C316.299 44.3542 316.706 45.0574 317.151 44.7781C319.728 43.1569 321.879 40.9398 323.42 38.3136C323.685 37.8616 322.983 37.4522 322.719 37.9036H322.719Z" fill="#6F4EB9"/>
<path d="M343.65 85.8835C343.043 86.7179 342.263 87.4117 341.364 87.9178L343.65 85.8835Z" fill="#190000"/>
<path d="M343.299 85.6785C343.262 85.7297 343.224 85.7808 343.185 85.831C343.22 85.786 343.182 85.8342 343.167 85.8536C343.147 85.8784 343.127 85.9031 343.107 85.9277C343.026 86.0258 342.943 86.1217 342.858 86.2154C342.691 86.3981 342.514 86.572 342.329 86.7366C342.239 86.8167 342.147 86.8946 342.053 86.9701C342.029 86.99 342.003 87.0096 341.979 87.0292C341.945 87.0562 342.013 87.0041 341.955 87.0469C341.904 87.0845 341.853 87.1225 341.802 87.1593C341.595 87.3063 341.38 87.4424 341.159 87.567C340.965 87.6803 340.9 87.9291 341.013 88.1228C341.126 88.3165 341.375 88.3817 341.569 88.2685C342.526 87.7235 343.355 86.9802 344.001 86.0885C344.113 85.8947 344.048 85.6465 343.855 85.5327C343.661 85.426 343.416 85.49 343.299 85.6785H343.299Z" fill="#6F4EB9"/>
<path d="M278.066 78.749L275.789 80.7939L278.066 78.749Z" fill="#190000"/>
<path d="M277.779 78.4618L275.502 80.5067C275.345 80.6659 275.345 80.9219 275.502 81.0811C275.663 81.2348 275.916 81.2348 276.077 81.0811L278.353 79.0362C278.51 78.8769 278.51 78.621 278.353 78.4618C278.193 78.3081 277.939 78.3081 277.779 78.4618Z" fill="#75AA3C"/>
<rect x="96.2782" y="136.108" width="358.1" height="251.233" rx="6.73022" fill="#516DDB"/>
<mask id="mask9_117_3284" style="mask-type:luminance" maskUnits="userSpaceOnUse" x="96" y="136" width="359" height="252">
<rect x="96.2782" y="136.108" width="358.1" height="251.233" rx="6.73022" fill="white"/>
</mask>
<g mask="url(#mask9_117_3284)">
<path d="M75.7751 349.929C80.8897 322.164 411.143 381.347 471.056 327.279C530.97 273.211 490.784 408.381 490.784 408.381L159.069 474.139" fill="#3152BA"/>
</g>
<rect x="111.85" y="156.316" width="326.958" height="203.501" rx="6.13183" fill="#97CC64"/>
<mask id="mask10_117_3284" style="mask-type:luminance" maskUnits="userSpaceOnUse" x="111" y="156" width="328" height="204">
<rect x="111.85" y="156.316" width="326.958" height="203.501" rx="6.13183" fill="white"/>
</mask>
<g mask="url(#mask10_117_3284)">
<path d="M432.786 136.107C414.784 389.441 28.9699 479.284 -258.243 488.452C-545.455 497.62 463.062 436.082 463.062 436.082L520.341 276.52L476.972 150.521L424.603 144.193" fill="#75AA3C"/>
<path d="M173.677 214.952C174.343 226.89 174.875 238.835 175.274 250.786C175.672 262.736 175.936 274.69 176.066 286.647C176.139 293.357 176.169 300.067 176.157 306.778C176.155 308.03 178.102 308.032 178.104 306.778C178.124 294.821 178.011 282.865 177.764 270.91C177.516 258.955 177.134 247.005 176.619 235.058C176.329 228.354 175.998 221.652 175.624 214.952C175.554 213.706 173.608 213.698 173.677 214.952H173.677Z" fill="white"/>
<path d="M135.783 281.225C158.018 280.227 180.26 279.228 202.451 277.471C224.466 275.729 246.412 273.206 268.441 271.637C280.838 270.754 293.261 270.18 305.691 270.211C306.943 270.214 306.945 268.268 305.691 268.265C283.613 268.21 261.596 270.077 239.634 272.146C217.561 274.226 195.506 276.221 173.366 277.455C160.843 278.154 148.313 278.716 135.783 279.279C134.536 279.335 134.529 281.282 135.783 281.225V281.225Z" fill="white"/>
<path d="M301.447 261.448L308.872 267.649L310.701 269.176C310.996 269.423 311.307 269.66 311.586 269.925C311.64 269.975 311.687 270.034 311.741 270.084C311.827 270.163 311.69 270.034 311.702 270.028C311.723 270.057 311.743 270.086 311.76 270.117C311.768 270.131 311.797 270.203 311.81 270.208C311.807 270.207 311.735 270.033 311.768 270.135C311.802 270.236 311.755 270.046 311.755 270.041C311.755 269.972 311.799 269.865 311.755 269.99C311.757 269.984 311.822 269.824 311.772 269.923C311.719 270.029 311.81 269.866 311.812 269.876C311.817 269.903 311.674 270.018 311.652 270.038C311.517 270.167 311.377 270.291 311.239 270.416C310.956 270.672 310.67 270.924 310.381 271.173C309.826 271.652 309.26 272.119 308.684 272.574C308.592 272.646 308.499 272.718 308.407 272.791C308.32 272.86 308.416 272.784 308.43 272.773C308.383 272.809 308.337 272.845 308.29 272.881C308.127 273.005 307.963 273.129 307.799 273.252C307.469 273.498 307.137 273.739 306.802 273.977C306.108 274.469 305.401 274.943 304.683 275.399C304.253 275.672 304.041 276.277 304.334 276.731C304.61 277.188 305.2 277.343 305.665 277.08C307.013 276.222 308.318 275.304 309.58 274.324C310.217 273.832 310.842 273.326 311.456 272.807C311.758 272.55 312.057 272.291 312.353 272.027C312.647 271.785 312.925 271.527 313.188 271.252C313.58 270.843 313.756 270.274 313.663 269.715C313.566 269.286 313.34 268.897 313.016 268.6C312.737 268.322 312.415 268.082 312.114 267.83L311.126 267.005L307.249 263.767L302.823 260.071C302.433 259.745 301.824 259.66 301.447 260.071C301.116 260.431 301.029 261.099 301.447 261.447L301.447 261.448Z" fill="white"/>
<path d="M169.997 285.092C173.251 277.174 176.664 269.324 180.237 261.543C183.736 253.921 187.289 246.282 191.205 238.863C192.609 236.204 194.305 233.33 196.989 231.788C198.321 231.013 199.874 230.708 201.4 230.922C203.169 231.18 204.784 232.051 206.224 233.074C209.189 235.18 211.696 238.078 213.983 240.88C216.331 243.784 218.461 246.857 220.355 250.075C224.159 256.475 226.977 263.295 229.681 270.211C232.228 276.723 235.054 283.444 240.244 288.329C240.928 288.973 241.687 289.652 242.622 289.886C243.592 290.13 244.493 289.824 245.215 289.161C245.883 288.547 246.421 287.744 246.962 287.02C247.53 286.262 248.072 285.485 248.589 284.691C250.677 281.491 252.352 278.049 253.83 274.532C255.299 271.036 256.557 267.456 257.801 263.875C259.24 259.729 260.678 255.584 262.115 251.438L264.282 245.189L265.366 242.065L265.908 240.503C266.024 240.168 266.124 239.507 266.402 239.261C266.816 238.896 267.827 239.481 268.215 239.706C268.887 240.114 269.487 240.63 269.992 241.233C271.143 242.547 271.974 244.134 272.835 245.643C276.949 252.853 280.67 260.28 283.983 267.891C284.796 269.759 285.582 271.638 286.343 273.529C286.539 274.016 286.992 274.359 287.54 274.208C288.002 274.081 288.417 273.501 288.22 273.011C285.047 265.129 281.447 257.425 277.435 249.935C276.449 248.099 275.439 246.276 274.405 244.467C273.505 242.894 272.614 241.302 271.426 239.924C270.343 238.667 268.857 237.526 267.177 237.271C266.202 237.123 265.275 237.43 264.722 238.279C264.169 239.127 263.934 240.264 263.605 241.213C260.732 249.496 257.899 257.795 254.979 266.062C252.423 273.296 249.563 280.657 244.751 286.728C244.356 287.226 243.805 288.213 243.047 287.986C242.228 287.741 241.529 286.885 240.948 286.296C239.722 285.045 238.616 283.682 237.644 282.224C235.671 279.286 234.151 276.065 232.802 272.801C231.402 269.414 230.158 265.965 228.739 262.585C227.261 259.028 225.605 255.548 223.778 252.158C220.154 245.495 215.71 239.155 210.212 233.898C207.577 231.379 204.251 228.924 200.443 228.91C197.049 228.897 194.268 230.941 192.265 233.523C190.028 236.406 188.527 239.812 186.914 243.062C184.975 246.968 183.076 250.893 181.217 254.838C177.517 262.693 173.978 270.621 170.6 278.622C169.764 280.602 168.937 282.587 168.12 284.575C167.92 285.061 168.337 285.645 168.8 285.772C169.358 285.925 169.796 285.58 169.997 285.092L169.997 285.092Z" fill="white"/>
<path d="M302.928 212.972L301.362 222.184C301.279 222.667 301.449 223.131 301.925 223.332C302.373 223.517 302.889 223.348 303.14 222.933C305.996 218.656 308.461 214.131 310.505 209.411C311.107 208.021 311.674 206.616 312.208 205.198L310.297 204.939C310.176 207.249 309.967 209.551 309.67 211.846C309.662 211.908 309.654 211.969 309.646 212.03C309.62 212.226 309.638 212.087 309.644 212.046C309.623 212.199 309.602 212.352 309.58 212.504C309.542 212.779 309.502 213.054 309.461 213.328C309.374 213.908 309.281 214.486 309.183 215.064C308.992 216.188 308.779 217.309 308.545 218.426C308.09 220.594 307.589 222.772 306.922 224.886C306.78 225.334 306.627 225.778 306.452 226.213C306.451 226.217 306.355 226.454 306.412 226.313C306.47 226.172 306.371 226.407 306.37 226.411C306.328 226.506 306.285 226.6 306.241 226.694C306.132 226.927 306.015 227.156 305.89 227.381C305.777 227.582 305.658 227.779 305.531 227.971C305.475 228.057 305.417 228.141 305.357 228.224C305.32 228.276 305.281 228.327 305.244 228.378C305.202 228.434 305.213 228.419 305.279 228.334C305.255 228.364 305.231 228.394 305.207 228.423C305.061 228.603 304.907 228.775 304.744 228.94C304.671 229.014 304.596 229.086 304.519 229.156C304.454 229.214 304.294 229.301 304.258 229.378C304.3 229.29 304.383 229.286 304.291 229.351C304.234 229.391 304.179 229.433 304.122 229.472C304.017 229.543 303.91 229.612 303.801 229.676C303.692 229.741 303.58 229.802 303.467 229.86C303.358 229.899 303.253 229.949 303.154 230.008C303.27 229.913 303.279 229.958 303.195 229.989C303.13 230.013 303.066 230.039 303.001 230.062C302.882 230.104 302.761 230.141 302.64 230.175C302.53 230.206 302.419 230.233 302.308 230.256C302.252 230.268 302.197 230.278 302.141 230.288L302.074 230.3C301.966 230.316 301.985 230.314 302.132 230.293C302.072 230.339 301.876 230.318 301.797 230.322C301.686 230.327 301.575 230.329 301.463 230.326C301.342 230.323 301.221 230.311 301.1 230.302C300.955 230.291 301.348 230.349 301.13 230.305C301.066 230.292 301.001 230.282 300.936 230.268C300.83 230.244 300.724 230.216 300.619 230.183C300.577 230.17 300.536 230.156 300.494 230.142C300.414 230.113 300.294 230.022 300.482 230.143C300.276 230.011 300.047 229.922 299.844 229.779C299.427 229.485 298.744 229.69 298.513 230.128C298.256 230.594 298.409 231.179 298.862 231.459C300.548 232.649 302.833 232.415 304.572 231.476C306.463 230.456 307.611 228.566 308.372 226.622C308.73 225.669 309.034 224.697 309.284 223.711C309.595 222.549 309.882 221.382 310.146 220.208C310.671 217.877 311.101 215.527 311.438 213.159C311.825 210.432 312.099 207.69 312.243 204.939C312.241 204.454 311.88 204.046 311.399 203.984C310.921 203.924 310.469 204.218 310.331 204.681C310.106 205.282 309.874 205.881 309.636 206.478C309.516 206.776 309.395 207.074 309.272 207.371C309.217 207.505 309.16 207.64 309.104 207.775C308.996 208.035 309.15 207.668 309.083 207.825C309.043 207.919 309.003 208.013 308.963 208.107C308.463 209.275 307.937 210.431 307.386 211.576C306.277 213.878 305.066 216.127 303.754 218.323C303.02 219.552 302.255 220.761 301.46 221.951L303.238 222.701L304.805 213.489C304.89 212.989 304.673 212.417 304.125 212.292C303.654 212.185 303.02 212.435 302.928 212.972H302.928Z" fill="white"/>
<path d="M318.515 211.582L328.386 210.516L331.172 210.216C331.677 210.161 332.171 209.807 332.146 209.243C332.124 208.762 331.714 208.211 331.172 208.27L321.302 209.335L318.515 209.635C318.011 209.69 317.517 210.044 317.542 210.608C317.564 211.089 317.973 211.64 318.515 211.582Z" fill="white"/>
<path d="M318.211 221.628C321.642 221.134 325.037 220.414 328.373 219.472C329.317 219.204 330.256 218.92 331.19 218.617C331.673 218.461 332.036 217.935 331.87 217.42C331.713 216.936 331.191 216.572 330.672 216.74C327.374 217.808 324.009 218.656 320.599 219.278C319.633 219.454 318.665 219.611 317.693 219.751C317.188 219.823 316.866 220.491 317.014 220.948C317.193 221.501 317.669 221.705 318.211 221.627L318.211 221.628Z" fill="white"/>
<path d="M341.969 212.915C345.356 211.926 348.665 210.684 351.867 209.2C352.764 208.786 353.652 208.351 354.53 207.898C354.991 207.624 355.146 207.031 354.879 206.566C354.6 206.113 354.014 205.959 353.548 206.217C352.03 207 350.486 207.725 348.915 208.394C348.739 208.469 348.862 208.417 348.899 208.401C348.857 208.418 348.816 208.436 348.775 208.453C348.678 208.494 348.581 208.534 348.484 208.574C348.277 208.659 348.069 208.744 347.86 208.828C347.457 208.989 347.053 209.147 346.647 209.301C345.849 209.604 345.046 209.892 344.237 210.165C343.315 210.476 342.386 210.767 341.451 211.039C341.115 211.13 340.854 211.395 340.766 211.732C340.678 212.069 340.776 212.427 341.025 212.672C341.273 212.916 341.633 213.009 341.969 212.915L341.969 212.915Z" fill="white"/>
<path d="M347.166 219.109C348.507 218.637 349.876 218.25 351.266 217.95C351.946 217.803 352.63 217.678 353.318 217.575C353.407 217.561 353.497 217.548 353.587 217.535C353.604 217.533 353.899 217.493 353.688 217.521C353.868 217.497 354.048 217.475 354.228 217.454C354.588 217.412 354.949 217.377 355.311 217.347L354.471 215.883C353.595 217.767 352.544 219.565 351.333 221.253C351.184 221.461 351.032 221.667 350.878 221.872C350.81 221.963 350.741 222.053 350.671 222.143C350.78 222.003 350.688 222.121 350.667 222.148C350.614 222.215 350.561 222.283 350.508 222.349C350.161 222.785 349.783 223.198 349.447 223.642C349.088 224.082 348.942 224.66 349.049 225.218C349.139 225.549 349.35 225.834 349.64 226.017C350.021 226.269 350.499 226.234 350.921 226.139C351.471 226.014 352.017 225.871 352.564 225.738L353.34 225.549C353.464 225.518 353.587 225.491 353.711 225.46C353.909 225.411 353.68 225.474 353.67 225.459C353.667 225.454 353.885 225.455 353.886 225.454C353.842 225.485 353.707 225.423 353.662 225.394L353.584 225.323C353.645 225.389 353.652 225.392 353.603 225.335C353.528 225.226 353.607 225.366 353.624 225.392C353.703 225.506 353.559 225.178 353.631 225.405C353.662 225.501 353.696 225.596 353.72 225.695C353.732 225.744 353.74 225.793 353.751 225.841C353.804 226.058 353.746 225.671 353.755 225.875C353.761 225.986 353.766 226.095 353.763 226.206C353.761 226.267 353.754 226.328 353.751 226.39C353.747 226.466 353.779 226.527 353.758 226.351C353.744 226.579 353.688 226.803 353.592 227.01C353.571 227.071 353.549 227.131 353.526 227.191C353.506 227.242 353.43 227.403 353.519 227.212C353.475 227.308 353.43 227.404 353.382 227.498C353.266 227.727 353.136 227.948 352.998 228.164C352.872 228.36 352.739 228.551 352.6 228.738C352.602 228.736 352.441 228.951 352.528 228.836C352.601 228.74 352.496 228.877 352.478 228.899C352.386 229.016 352.292 229.131 352.196 229.245C351.573 229.99 350.924 230.718 350.266 231.433C349.521 232.254 348.729 233.032 347.893 233.76C347.689 233.935 347.482 234.106 347.271 234.272C347.128 234.385 347.249 234.289 347.277 234.267C347.213 234.316 347.149 234.364 347.084 234.412C346.976 234.492 346.868 234.57 346.758 234.647C346.296 234.971 345.815 235.267 345.318 235.534C344.858 235.808 344.702 236.401 344.969 236.865C345.247 237.32 345.834 237.474 346.3 237.214C348.107 236.246 349.673 234.876 351.085 233.402C351.77 232.688 352.425 231.945 353.075 231.199C353.786 230.432 354.415 229.592 354.95 228.693C355.5 227.699 355.822 226.608 355.651 225.47C355.588 224.902 355.346 224.369 354.96 223.947C354.406 223.405 353.648 223.471 352.96 223.638C352.412 223.771 351.864 223.905 351.317 224.039C351.043 224.106 350.769 224.173 350.495 224.24C350.475 224.245 350.324 224.275 350.323 224.281C350.33 224.244 350.488 224.285 350.513 224.293C350.691 224.346 350.834 224.479 350.9 224.652C350.938 224.723 350.956 224.804 350.951 224.885C350.953 224.808 350.95 224.816 350.94 224.909C350.904 225.092 350.953 224.901 350.96 224.872C350.993 224.73 350.98 224.945 350.931 224.935C350.936 224.936 351.041 224.745 351.056 224.72C351.164 224.542 350.926 224.863 351.041 224.744C351.09 224.693 351.134 224.636 351.179 224.582C351.272 224.474 351.363 224.365 351.454 224.255C351.816 223.819 352.165 223.373 352.507 222.922C353.933 221.038 355.155 219.008 356.151 216.865C356.321 216.56 356.321 216.188 356.151 215.883C355.979 215.582 355.657 215.398 355.311 215.401C352.358 215.641 349.447 216.256 346.649 217.232C346.17 217.4 345.8 217.905 345.969 218.429C346.123 218.902 346.652 219.289 347.166 219.108L347.166 219.109Z" fill="white"/>
<path d="M347.285 200.657C347.32 200.733 347.353 200.808 347.389 200.884C347.486 201.091 347.343 200.761 347.42 200.956C347.482 201.11 347.542 201.265 347.597 201.421C347.708 201.733 347.804 202.05 347.886 202.372C347.968 202.694 348.035 203.018 348.087 203.346C348.1 203.427 348.123 203.591 348.1 203.416C348.111 203.498 348.121 203.58 348.129 203.663C348.149 203.841 348.163 204.02 348.174 204.2C348.206 204.862 348.185 205.526 348.113 206.186C348.104 206.258 348.106 206.241 348.121 206.133C348.115 206.174 348.109 206.215 348.102 206.256C348.09 206.338 348.077 206.419 348.062 206.501C348.034 206.664 348.001 206.827 347.965 206.989C347.89 207.326 347.797 207.659 347.69 207.987C347.552 208.505 347.854 209.038 348.37 209.184C348.886 209.315 349.414 209.015 349.567 208.505C350.488 205.591 350.274 202.437 348.965 199.675C348.749 199.213 348.048 199.059 347.634 199.326C347.182 199.606 347.029 200.191 347.285 200.657Z" fill="white"/>
<path d="M363.624 213.594C363.694 213.505 363.77 213.419 363.85 213.339C363.898 213.291 363.95 213.247 363.999 213.201C364.131 213.078 363.971 213.212 363.962 213.226C364.045 213.147 364.141 213.084 364.246 213.04C364.305 213.006 364.367 212.977 364.427 212.944C364.597 212.849 364.244 213.003 364.444 212.934C364.552 212.896 364.658 212.859 364.769 212.83C364.824 212.815 364.88 212.803 364.935 212.792C365.031 212.772 365.096 212.704 364.912 212.788C365.023 212.762 365.138 212.755 365.252 212.765C365.308 212.765 365.365 212.766 365.422 212.769C365.456 212.77 365.489 212.772 365.523 212.775C365.632 212.787 365.614 212.783 365.467 212.765C365.566 212.805 365.695 212.808 365.799 212.838C365.842 212.851 365.886 212.864 365.929 212.879L365.993 212.902C366.093 212.941 366.08 212.935 365.953 212.885C366.03 212.877 366.194 213.011 366.257 213.05C366.296 213.075 366.333 213.102 366.372 213.127C366.534 213.234 366.232 213.003 366.42 213.167C366.507 213.243 366.59 213.324 366.668 213.41C366.711 213.448 366.749 213.493 366.781 213.542C366.701 213.358 366.729 213.474 366.774 213.54C366.833 213.626 366.888 213.714 366.938 213.806C366.972 213.867 367.001 213.929 367.032 213.992C367.134 214.198 366.972 213.796 367.039 214.016C367.073 214.127 367.11 214.236 367.136 214.349C367.16 214.414 367.173 214.483 367.175 214.553C367.177 214.542 367.158 214.31 367.164 214.5C367.167 214.616 367.173 214.731 367.168 214.847C367.163 214.931 367.154 215.014 367.145 215.097C367.164 214.921 367.143 215.097 367.131 215.173C367.011 215.94 366.914 216.658 367.243 217.39C367.693 218.389 368.891 218.875 369.936 218.759C371.321 218.605 372.284 217.624 373.121 216.595C373.442 216.201 373.535 215.599 373.121 215.219C372.765 214.892 372.088 214.797 371.745 215.219C371.421 215.641 371.06 216.033 370.667 216.391C370.662 216.396 370.47 216.549 370.591 216.457C370.712 216.364 370.515 216.509 370.509 216.513C370.406 216.582 370.3 216.646 370.19 216.703C370.181 216.708 369.959 216.803 370.102 216.748C370.236 216.697 370.048 216.764 370.035 216.769C369.986 216.784 369.937 216.797 369.888 216.809C369.858 216.816 369.828 216.822 369.798 216.828C369.692 216.846 369.718 216.843 369.874 216.82C369.829 216.791 369.621 216.832 369.567 216.829C369.526 216.823 369.485 216.821 369.444 216.821L369.581 216.841C369.541 216.835 369.501 216.827 369.461 216.819C369.403 216.806 369.217 216.716 369.173 216.734C369.193 216.726 369.385 216.844 369.243 216.76C369.187 216.721 369.128 216.687 369.067 216.656C368.958 216.613 369.234 216.82 369.104 216.684C369.074 216.647 369.04 216.612 369.003 216.582C368.911 216.519 369.119 216.782 369.032 216.618C369.011 216.573 368.988 216.53 368.961 216.489C368.902 216.412 369.012 216.71 368.97 216.485C368.955 216.433 368.944 216.38 368.936 216.327C368.949 216.577 368.948 216.299 368.948 216.262C368.948 216.18 368.956 216.098 368.961 216.016C368.978 215.74 368.925 216.217 368.968 215.942C368.977 215.886 368.986 215.83 368.995 215.774C369.026 215.577 369.056 215.379 369.081 215.181C369.118 214.909 369.123 214.635 369.096 214.363C369.036 213.753 368.836 213.165 368.512 212.644C367.855 211.588 366.73 210.912 365.489 210.827C364.248 210.743 363.042 211.26 362.248 212.217C361.931 212.615 361.831 213.211 362.248 213.594C362.6 213.917 363.285 214.019 363.624 213.594L363.624 213.594Z" fill="white"/>
<path d="M368.491 206.938C368.035 208.05 367.575 209.16 367.109 210.268C367.055 210.398 367 210.527 366.945 210.657C367.011 210.502 366.932 210.688 366.916 210.726C366.886 210.798 366.855 210.87 366.825 210.942C366.703 211.229 366.581 211.516 366.458 211.804C366.226 212.349 365.992 212.894 365.757 213.439C364.809 215.631 363.842 217.814 362.853 219.988C362.291 221.224 361.722 222.457 361.147 223.687C360.932 224.148 361.002 224.758 361.496 225.019C361.927 225.247 362.597 225.162 362.827 224.67C364.899 220.239 366.886 215.769 368.786 211.26C369.32 209.995 369.847 208.726 370.367 207.455C370.561 206.983 370.158 206.365 369.688 206.258C369.122 206.129 368.698 206.432 368.491 206.938V206.938Z" fill="white"/>
<path d="M288.294 298.124L288.28 307.293C288.281 307.639 288.465 307.958 288.762 308.133C289.064 308.315 289.442 308.315 289.744 308.133C292.785 305.82 295.985 303.22 297.371 299.533C297.747 298.523 297.94 297.455 297.94 296.378H295.994C296.071 299.163 296.148 301.953 295.999 304.737C295.963 305.415 295.912 306.092 295.847 306.769C295.814 307.106 295.776 307.444 295.734 307.78C295.727 307.842 295.719 307.903 295.711 307.964C295.709 308 295.704 308.037 295.696 308.072C295.67 308.255 295.644 308.439 295.615 308.622C295.428 309.845 295.162 311.055 294.821 312.244C294.663 312.787 294.488 313.324 294.294 313.856C294.198 314.121 294.096 314.385 293.99 314.646C293.961 314.717 293.934 314.79 293.902 314.86C293.989 314.671 293.928 314.799 293.911 314.84C293.839 315.004 293.767 315.169 293.693 315.332C293.228 316.354 292.681 317.336 292.055 318.267C291.899 318.499 291.737 318.726 291.571 318.95C291.525 319.011 291.481 319.074 291.433 319.132C291.454 319.107 291.557 318.975 291.446 319.115C291.343 319.244 291.241 319.373 291.135 319.499C290.771 319.938 290.384 320.357 289.975 320.755C289.775 320.95 289.57 321.139 289.36 321.323C289.264 321.407 289.167 321.49 289.069 321.571C289.009 321.621 288.948 321.669 288.889 321.719C288.73 321.85 289.015 321.633 288.832 321.764C288.596 321.939 288.345 322.092 288.081 322.219C288.293 322.122 288.054 322.223 288.017 322.234C287.966 322.25 287.915 322.264 287.863 322.277C287.803 322.282 287.743 322.294 287.686 322.312C287.847 322.293 287.874 322.288 287.769 322.299C287.74 322.302 287.711 322.304 287.682 322.305C287.558 322.295 287.435 322.291 287.311 322.295C287.464 322.268 287.502 322.327 287.401 322.307C287.326 322.292 287.252 322.279 287.178 322.26C287.067 322.232 286.957 322.198 286.849 322.159C286.767 322.129 286.653 322.037 286.864 322.17C286.803 322.138 286.74 322.109 286.676 322.084C286.214 321.847 285.77 321.577 285.348 321.276C284.434 320.656 283.468 319.985 282.35 319.82C282.097 319.76 281.83 319.795 281.6 319.918C281.382 320.047 281.222 320.255 281.153 320.499C281.048 320.962 281.294 321.616 281.833 321.696C282.064 321.731 282.292 321.787 282.513 321.865C282.562 321.882 282.609 321.901 282.657 321.919C282.863 321.994 282.454 321.821 282.652 321.918C282.765 321.972 282.878 322.025 282.988 322.084C283.417 322.323 283.832 322.584 284.233 322.866C285.037 323.413 285.903 324.019 286.883 324.184C287.484 324.302 288.105 324.259 288.684 324.059C289.354 323.781 289.969 323.388 290.504 322.898C291.395 322.144 292.203 321.297 292.915 320.372C296.106 316.262 297.446 311.143 297.859 306.031C298.118 302.82 298.03 299.594 297.94 296.378C297.94 295.84 297.504 295.405 296.967 295.405C296.429 295.405 295.994 295.84 295.994 296.378C295.993 296.591 295.986 296.805 295.969 297.018C295.961 297.123 295.948 297.227 295.938 297.332C295.924 297.482 295.979 297.086 295.94 297.316C295.931 297.373 295.923 297.43 295.913 297.487C295.84 297.907 295.734 298.32 295.598 298.723C295.541 298.922 295.468 299.116 295.38 299.304C295.392 299.281 295.469 299.102 295.397 299.262C295.378 299.304 295.359 299.346 295.34 299.388C295.287 299.503 295.232 299.618 295.175 299.731C294.98 300.116 294.763 300.49 294.525 300.851C294.415 301.019 294.3 301.184 294.182 301.347C294.119 301.434 294.055 301.52 293.99 301.605C293.885 301.745 293.995 301.603 294.011 301.579C293.971 301.638 293.922 301.693 293.877 301.748C293.595 302.098 293.299 302.435 292.992 302.763C292.372 303.418 291.718 304.039 291.032 304.626C290.639 304.965 290.239 305.296 289.832 305.62C289.641 305.772 289.449 305.924 289.255 306.074C289.248 306.08 289.058 306.227 289.181 306.132C289.293 306.045 289.129 306.172 289.106 306.189C288.992 306.277 288.877 306.365 288.762 306.453L290.226 307.293L290.24 298.124C290.24 297.586 289.804 297.151 289.267 297.151C288.729 297.151 288.294 297.586 288.294 298.124L288.294 298.124Z" fill="white"/>
<path d="M309.929 309.542L313.79 308.439C314.306 308.294 314.609 307.76 314.466 307.243C314.324 306.726 313.79 306.421 313.273 306.562L309.412 307.665C308.894 307.808 308.589 308.344 308.732 308.862C308.875 309.38 309.411 309.685 309.929 309.542Z" fill="white"/>
<path d="M327.378 308.942C328.52 307.201 327.459 304.991 325.854 303.984C325.01 303.44 323.979 303.268 323.003 303.509C322.059 303.785 321.242 304.384 320.694 305.201C319.607 306.734 319.51 308.93 320.383 310.577C320.955 311.657 321.956 312.485 323.193 312.612C324.267 312.723 325.313 312.127 325.98 311.318C326.771 310.357 327.147 309.247 327.416 308.048C327.53 307.484 327.675 306.927 327.85 306.379C327.87 306.321 327.89 306.263 327.912 306.206C327.949 306.106 327.974 306.014 327.923 306.168C327.975 306.032 328.038 305.901 328.113 305.777C328.183 305.65 328.263 305.531 328.342 305.409C328.369 305.367 328.424 305.254 328.321 305.432C328.378 305.352 328.442 305.278 328.515 305.211L326.888 304.782C327.306 307.083 328.364 309.219 329.941 310.946C330.322 311.322 330.935 311.322 331.317 310.946C331.685 310.561 331.685 309.955 331.317 309.57C331.138 309.372 330.968 309.168 330.8 308.961C330.885 309.066 330.837 309.009 330.782 308.936C330.742 308.883 330.703 308.829 330.664 308.776C330.586 308.668 330.51 308.558 330.436 308.448C330.147 308.016 329.887 307.566 329.66 307.099C329.607 306.991 329.556 306.883 329.507 306.774C329.507 306.773 329.405 306.546 329.46 306.67C329.514 306.794 329.427 306.589 329.417 306.565C329.318 306.318 329.228 306.068 329.146 305.814C328.983 305.307 328.856 304.789 328.765 304.264C328.638 303.539 327.608 303.334 327.139 303.835C326.428 304.593 326.031 305.545 325.772 306.539C325.658 306.977 325.567 307.421 325.464 307.861C325.413 308.08 325.36 308.298 325.299 308.514C325.262 308.715 325.195 308.91 325.101 309.092C325.222 308.915 325.135 309.013 325.103 309.082C325.079 309.135 325.054 309.188 325.028 309.24C324.987 309.323 324.943 309.405 324.897 309.486C324.846 309.576 324.792 309.665 324.735 309.752C324.703 309.8 324.671 309.848 324.638 309.895C324.619 309.921 324.493 310.07 324.591 309.961C324.697 309.842 324.548 310.008 324.538 310.02C324.509 310.053 324.479 310.087 324.448 310.119C324.381 310.192 324.31 310.262 324.236 310.328C324.204 310.357 324.17 310.384 324.138 310.414C324.036 310.507 324.336 310.284 324.156 310.398C324.067 310.455 323.98 310.515 323.887 310.564C323.873 310.572 323.775 310.619 323.775 310.62C323.769 310.589 323.977 310.549 323.835 310.593C323.736 310.624 323.638 310.651 323.537 310.677C323.399 310.713 323.572 310.627 323.611 310.67C323.568 310.67 323.526 310.673 323.484 310.678C323.442 310.679 323.399 310.679 323.356 310.678C323.313 310.677 323.269 310.674 323.226 310.669L323.349 310.686C323.251 310.649 323.15 310.623 323.046 310.609L323.013 310.598C322.913 310.559 322.927 310.566 323.054 310.616C323.01 310.6 322.969 310.579 322.931 310.553C322.875 310.523 322.723 310.461 322.695 310.405L322.78 310.472C322.752 310.45 322.725 310.428 322.699 310.405C322.645 310.359 322.593 310.31 322.543 310.26C322.466 310.185 322.397 310.104 322.326 310.023C322.226 309.908 322.346 310.05 322.347 310.05C322.343 310.051 322.275 309.947 322.265 309.932C322.205 309.843 322.149 309.751 322.097 309.657C322.055 309.547 322.002 309.44 321.94 309.339C321.953 309.354 322.024 309.562 321.971 309.408C321.958 309.371 321.943 309.334 321.93 309.297C321.901 309.213 321.875 309.128 321.852 309.042C321.829 308.957 321.808 308.87 321.79 308.783C321.783 308.744 321.775 308.705 321.769 308.666C321.746 308.538 321.798 308.504 321.77 308.69C321.772 308.511 321.762 308.332 321.741 308.155C321.742 307.977 321.778 307.796 321.776 307.62C321.779 307.867 321.755 307.758 321.773 307.673C321.782 307.624 321.79 307.575 321.8 307.527C321.816 307.449 321.834 307.373 321.854 307.296C321.902 307.114 321.97 306.942 322.03 306.765C322.074 306.637 321.922 306.99 322.013 306.809C322.031 306.775 322.047 306.739 322.064 306.704C322.098 306.635 322.135 306.567 322.173 306.499C322.221 306.416 322.272 306.334 322.325 306.254C322.347 306.223 322.37 306.192 322.391 306.16C322.493 306.01 322.25 306.323 322.378 306.176C322.482 306.053 322.593 305.936 322.71 305.825C322.745 305.793 322.782 305.764 322.817 305.732C322.883 305.673 322.913 305.708 322.753 305.779C322.834 305.731 322.913 305.677 322.987 305.619C323.06 305.574 323.135 305.533 323.212 305.495C323.257 305.479 323.3 305.458 323.341 305.433C323.326 305.446 323.117 305.516 323.27 305.466C323.433 305.413 323.618 305.391 323.776 305.332C323.571 305.409 323.61 305.346 323.715 305.345C323.763 305.345 323.81 305.34 323.857 305.34C323.933 305.34 324.008 305.346 324.083 305.35C324.244 305.356 324.009 305.342 323.993 305.335C324.038 305.348 324.085 305.357 324.132 305.361C324.224 305.381 324.316 305.405 324.406 305.434C324.451 305.449 324.495 305.466 324.54 305.481C324.713 305.539 324.343 305.382 324.518 305.472C324.604 305.515 324.69 305.556 324.773 305.605C324.856 305.653 324.938 305.705 325.016 305.76C325.046 305.786 325.077 305.808 325.11 305.828C324.903 305.741 325.019 305.758 325.094 305.822C325.237 305.95 325.372 306.088 325.498 306.234C325.631 306.382 325.401 306.084 325.47 306.195C325.5 306.244 325.537 306.288 325.568 306.336C325.62 306.415 325.669 306.495 325.714 306.578C325.736 306.62 325.757 306.661 325.778 306.703C325.824 306.799 325.795 306.896 325.769 306.675C325.792 306.763 325.821 306.85 325.856 306.935C325.872 307.024 325.891 307.112 325.916 307.199C325.846 307.025 325.896 307.006 325.902 307.101C325.905 307.154 325.91 307.207 325.912 307.261C325.914 307.347 325.892 307.442 325.901 307.527C325.88 307.336 325.935 307.335 325.914 307.427C325.902 307.48 325.892 307.533 325.878 307.585C325.866 307.628 325.851 307.671 325.838 307.714C325.781 307.918 325.9 307.608 325.853 307.686C325.8 307.777 325.756 307.871 325.698 307.959C325.431 308.424 325.586 309.017 326.047 309.291C326.513 309.549 327.099 309.395 327.378 308.942L327.378 308.942Z" fill="white"/>
<path d="M332.599 301.9C332.673 302.057 332.746 302.214 332.816 302.372C332.851 302.451 332.886 302.531 332.92 302.61C332.84 302.422 332.938 302.658 332.954 302.698C333.083 303.019 333.202 303.344 333.312 303.673C333.531 304.33 333.711 304.999 333.852 305.677C333.922 306.017 333.978 306.358 334.032 306.7C334.066 306.915 334.015 306.548 334.044 306.784C334.054 306.87 334.065 306.956 334.074 307.042C334.093 307.214 334.11 307.387 334.124 307.559C334.179 308.25 334.194 308.943 334.168 309.635H336.114C336.087 309.315 336.078 308.994 336.086 308.673C336.09 308.519 336.098 308.365 336.11 308.211C336.117 308.128 336.125 308.046 336.134 307.963C336.137 307.928 336.142 307.892 336.145 307.857C336.16 307.726 336.159 307.85 336.138 307.904C336.176 307.754 336.202 307.602 336.215 307.448C336.247 307.285 336.283 307.123 336.324 306.961C336.402 306.65 336.495 306.343 336.604 306.041C336.632 305.963 336.662 305.885 336.692 305.808C336.705 305.775 336.788 305.569 336.737 305.693C336.688 305.812 336.783 305.59 336.802 305.548C336.837 305.472 336.872 305.397 336.909 305.322C337.05 305.033 337.204 304.752 337.373 304.478C337.454 304.347 337.538 304.217 337.626 304.09C337.673 304.021 337.721 303.953 337.77 303.886C337.794 303.852 337.941 303.657 337.865 303.756C337.782 303.864 337.942 303.661 337.966 303.632C338.011 303.577 338.057 303.522 338.103 303.468C338.212 303.342 338.323 303.219 338.438 303.099C338.693 302.833 338.963 302.583 339.248 302.35C339.316 302.294 339.442 302.172 339.302 302.304C339.375 302.243 339.452 302.187 339.532 302.136C339.688 302.026 339.847 301.922 340.009 301.822C340.47 301.55 340.625 300.955 340.354 300.493C340.084 300.03 339.49 299.873 339.026 300.141C336.533 301.702 334.817 304.245 334.3 307.14C334.152 307.963 334.107 308.801 334.168 309.634C334.209 310.141 334.586 310.632 335.141 310.608C335.674 310.597 336.103 310.167 336.114 309.634C336.213 306.624 335.584 303.633 334.28 300.918C334.06 300.457 333.364 300.301 332.948 300.569C332.496 300.849 332.342 301.434 332.599 301.9L332.599 301.9Z" fill="white"/>
<path d="M347.2 299.85C345.331 300.833 343.752 302.601 343.556 304.768C343.384 306.673 344.755 308.436 346.57 308.938C347.612 309.246 348.74 308.993 349.552 308.27C349.929 307.888 349.929 307.275 349.552 306.893C349.167 306.525 348.561 306.525 348.176 306.893C348.145 306.915 348.116 306.94 348.09 306.968C348.151 306.857 348.244 306.86 348.153 306.916C348.084 306.958 348.015 307 347.944 307.04C347.751 307.149 348.143 306.981 347.933 307.046C347.858 307.069 347.783 307.093 347.706 307.11C347.442 307.167 347.895 307.107 347.679 307.116C347.608 307.119 347.539 307.123 347.468 307.122C347.396 307.121 347.326 307.112 347.255 307.108C347.123 307.102 347.516 307.16 347.327 307.116C347.282 307.106 347.238 307.098 347.193 307.088C347.122 307.071 347.051 307.052 346.982 307.029C346.944 307.017 346.71 306.915 346.863 306.992C347.019 307.071 346.764 306.944 346.724 306.923C346.648 306.884 346.574 306.842 346.501 306.797C346.436 306.756 346.374 306.713 346.311 306.67C346.204 306.596 346.275 306.572 346.348 306.7C346.321 306.672 346.291 306.647 346.259 306.626C346.128 306.513 346.006 306.39 345.894 306.258C345.873 306.226 345.848 306.196 345.821 306.169C345.837 306.181 345.956 306.361 345.87 306.228C345.829 306.164 345.785 306.102 345.745 306.036C345.706 305.971 345.67 305.904 345.635 305.836C345.623 305.8 345.606 305.765 345.587 305.733C345.696 305.857 345.646 305.883 345.6 305.754C345.552 305.616 345.546 305.444 345.488 305.314C345.556 305.465 345.507 305.503 345.502 305.402C345.499 305.355 345.494 305.307 345.492 305.26C345.486 305.142 345.487 305.025 345.493 304.907C345.495 304.861 345.5 304.814 345.503 304.768C345.508 304.684 345.555 304.649 345.493 304.819C345.516 304.729 345.533 304.638 345.544 304.546C345.569 304.337 345.632 304.135 345.73 303.949C345.633 304.068 345.678 304.066 345.714 303.989C345.734 303.946 345.754 303.904 345.774 303.862C345.816 303.777 345.86 303.694 345.907 303.613C345.998 303.418 346.117 303.238 346.258 303.077C346.118 303.206 346.2 303.149 346.239 303.103C346.285 303.047 346.331 302.991 346.378 302.937C346.458 302.845 346.54 302.756 346.625 302.67C346.779 302.513 346.94 302.364 347.109 302.224C347.156 302.184 347.204 302.147 347.251 302.108C347.343 302.033 347.108 302.211 347.258 302.105C347.357 302.034 347.456 301.963 347.558 301.896C347.76 301.764 347.969 301.643 348.182 301.53C348.643 301.256 348.798 300.664 348.531 300.199C348.253 299.745 347.666 299.591 347.2 299.85L347.2 299.85Z" fill="white"/>
<path d="M354.054 299.683C352.209 300.101 349.958 300.911 349.421 302.958C349.115 304.124 349.521 305.279 350.293 306.165C351.096 307.086 352.243 307.561 353.436 307.685C354.887 307.836 356.345 307.399 357.715 306.971C358.233 306.828 358.538 306.292 358.395 305.774C358.252 305.256 357.716 304.952 357.198 305.095C356.654 305.264 356.108 305.432 355.553 305.563C355.306 305.621 355.057 305.671 354.806 305.711C354.757 305.719 354.56 305.741 354.756 305.719C354.697 305.726 354.639 305.732 354.58 305.738C354.433 305.752 354.286 305.761 354.139 305.765C353.875 305.773 353.61 305.761 353.348 305.729C353.536 305.753 353.381 305.732 353.344 305.724C353.275 305.708 353.205 305.697 353.137 305.681C353.014 305.653 352.893 305.617 352.774 305.575C352.733 305.555 352.689 305.539 352.645 305.527C352.735 305.517 352.793 305.595 352.686 305.543C352.592 305.497 352.499 305.45 352.408 305.398C352.317 305.346 352.229 305.291 352.142 305.232C352.102 305.208 352.064 305.181 352.029 305.15C352.182 305.327 352.06 305.172 352.01 305.128C351.932 305.061 351.857 304.989 351.785 304.915C351.728 304.855 351.654 304.726 351.582 304.684C351.688 304.746 351.668 304.806 351.612 304.719C351.582 304.672 351.549 304.627 351.52 304.579C351.495 304.539 351.329 304.306 351.347 304.258C351.347 304.258 351.428 304.489 351.37 304.308C351.356 304.267 351.341 304.226 351.328 304.184C351.299 304.09 351.281 303.995 351.259 303.9C351.227 303.764 351.267 304.149 351.265 303.932C351.265 303.888 351.26 303.845 351.26 303.801C351.259 303.758 351.26 303.713 351.262 303.669C351.264 303.625 351.268 303.581 351.273 303.537L351.257 303.662C351.289 303.574 351.311 303.481 351.323 303.388C351.337 303.34 351.355 303.293 351.371 303.245C351.412 303.122 351.405 303.279 351.342 303.314C351.383 303.291 351.442 303.122 351.466 303.082C351.492 303.041 351.52 303.001 351.546 302.96C351.636 302.817 351.435 303.075 351.516 302.995C351.642 302.87 351.758 302.738 351.889 302.617C351.996 302.518 351.973 302.623 351.856 302.637C351.891 302.617 351.924 302.593 351.954 302.566C352.038 302.506 352.124 302.45 352.212 302.397C352.402 302.283 352.599 302.181 352.802 302.091L352.831 302.078C352.928 302.036 352.91 302.043 352.777 302.1C352.803 302.069 352.892 302.054 352.928 302.04C353.04 301.997 353.152 301.956 353.266 301.918C353.695 301.776 354.131 301.656 354.572 301.56C355.087 301.413 355.39 300.88 355.251 300.363C355.099 299.852 354.571 299.552 354.054 299.683V299.683Z" fill="white"/>
<path d="M360.584 302.55C360.465 303.441 360.959 304.313 361.653 304.834C362.088 305.16 362.716 305.396 363.208 305.057C363.537 304.824 363.841 304.558 364.116 304.264C365.138 303.196 365.851 301.871 366.181 300.431C366.351 299.7 366.416 298.949 366.376 298.199C366.317 297.255 366.175 296.133 365.155 295.761C364.397 295.486 363.448 295.911 362.74 296.189C361.995 296.476 361.275 296.825 360.588 297.231C359.121 298.105 357.829 299.244 356.78 300.591C356.605 300.779 356.504 301.023 356.495 301.279C356.497 301.537 356.599 301.784 356.78 301.967C357.127 302.286 357.823 302.397 358.156 301.967C358.499 301.523 358.87 301.101 359.267 300.704C359.466 300.507 359.671 300.315 359.882 300.131C359.978 300.047 360.075 299.964 360.174 299.883C360.233 299.835 360.293 299.787 360.352 299.739C360.526 299.597 360.233 299.826 360.397 299.704C360.846 299.367 361.315 299.057 361.801 298.777C362.045 298.638 362.293 298.506 362.545 298.383C362.659 298.327 362.775 298.273 362.891 298.22C362.96 298.189 363.03 298.153 363.101 298.127C362.874 298.209 363.117 298.121 363.151 298.108C363.411 298.003 363.674 297.907 363.941 297.819C364.062 297.779 364.184 297.741 364.306 297.705C364.378 297.684 364.45 297.662 364.523 297.644C364.558 297.634 364.594 297.626 364.63 297.619C364.704 297.604 364.678 297.607 364.552 297.626C364.603 297.582 364.853 297.681 364.572 297.614C364.462 297.584 364.367 297.514 364.305 297.417C364.384 297.523 364.33 297.398 364.294 297.374C364.324 297.394 364.342 297.546 364.349 297.58C364.381 297.694 364.402 297.811 364.41 297.929C364.412 297.668 364.403 297.89 364.41 297.952C364.417 298.023 364.423 298.093 364.427 298.164C364.445 298.423 364.448 298.684 364.436 298.943C364.43 299.061 364.422 299.179 364.41 299.297C364.406 299.368 364.398 299.438 364.386 299.508C364.443 299.244 364.388 299.48 364.379 299.53C364.29 300.044 364.148 300.547 363.956 301.032C363.868 301.259 364.047 300.84 363.943 301.061C363.913 301.125 363.884 301.19 363.854 301.254C363.782 301.403 363.705 301.55 363.623 301.694C363.482 301.942 363.323 302.175 363.158 302.408C363.024 302.598 363.254 302.294 363.16 302.408C363.107 302.471 363.056 302.536 363.002 302.599C362.909 302.707 362.814 302.812 362.715 302.913C362.616 303.015 362.515 303.114 362.409 303.209C362.357 303.257 362.304 303.304 362.249 303.35C362.211 303.382 361.96 303.581 362.17 303.42L362.919 303.322C362.877 303.31 362.836 303.297 362.795 303.281C362.927 303.339 362.946 303.344 362.851 303.297C362.822 303.277 362.699 303.231 362.687 303.193C362.797 303.279 362.813 303.288 362.734 303.22C362.703 303.19 362.672 303.158 362.643 303.126C362.509 302.996 362.747 303.293 362.62 303.088C362.602 303.06 362.586 303.032 362.571 303.003C362.524 302.908 362.529 302.926 362.586 303.058C362.552 303.041 362.527 302.877 362.519 302.84C362.462 302.599 362.502 303.001 362.514 302.81C362.52 302.722 362.519 302.637 362.53 302.55C362.598 302.043 362.035 301.555 361.557 301.577C360.972 301.603 360.657 302.007 360.584 302.55L360.584 302.55Z" fill="white"/>
<path d="M373.946 289.62C373.016 292.739 372.431 295.951 372.201 299.198C372.087 300.784 372.061 302.375 372.123 303.964C372.18 305.428 372.3 307.1 373.412 308.19C373.984 308.739 374.741 309.055 375.533 309.074C376.377 309.102 377.176 308.694 377.647 307.994C377.915 307.53 377.76 306.936 377.298 306.663C376.832 306.406 376.246 306.559 375.967 307.012C375.85 307.181 376.127 306.865 375.975 306.996L375.935 307.035C375.858 307.103 375.881 307.088 376.003 306.99C375.953 307.014 375.906 307.044 375.863 307.078C375.7 307.187 376.081 307.015 375.893 307.07C375.839 307.086 375.786 307.105 375.731 307.118L375.676 307.13C375.572 307.148 375.602 307.144 375.765 307.12C375.707 307.117 375.649 307.119 375.592 307.128C375.514 307.118 375.436 307.114 375.357 307.115C375.543 307.082 375.526 307.149 375.41 307.116C375.362 307.103 375.313 307.094 375.265 307.08C375.206 307.064 375.15 307.043 375.093 307.024C374.892 306.957 375.286 307.132 375.104 307.025C375.046 306.991 374.854 306.835 374.796 306.836L374.899 306.914C374.868 306.889 374.839 306.862 374.81 306.835C374.743 306.782 374.685 306.719 374.638 306.649C374.734 306.851 374.644 306.65 374.614 306.604C374.58 306.552 374.549 306.499 374.518 306.445C374.488 306.391 374.462 306.335 374.432 306.281C374.312 306.066 374.494 306.472 374.412 306.24C374.301 305.931 374.219 305.613 374.165 305.29C374.157 305.242 374.097 304.997 374.156 305.244C374.143 305.168 374.135 305.092 374.132 305.015C374.119 304.887 374.11 304.759 374.102 304.632C374.078 304.259 374.064 303.884 374.054 303.51C374.012 302.057 374.044 300.603 374.15 299.153C374.203 298.428 374.274 297.704 374.363 296.983C374.375 296.893 374.386 296.802 374.398 296.712C374.4 296.678 374.405 296.644 374.411 296.611C374.437 296.431 374.462 296.251 374.49 296.071C374.544 295.712 374.603 295.354 374.667 294.996C374.958 293.355 375.345 291.733 375.823 290.137C375.96 289.62 375.658 289.088 375.143 288.94C374.627 288.809 374.098 289.109 373.946 289.62V289.62Z" fill="white"/>
<path d="M385.02 299.493C385.094 299.402 385.174 299.317 385.261 299.238C385.29 299.213 385.436 299.092 385.307 299.196C385.178 299.3 385.361 299.165 385.405 299.139C385.45 299.112 385.497 299.086 385.544 299.062C385.567 299.05 385.591 299.039 385.615 299.027C385.693 298.986 385.717 299.029 385.528 299.062C385.646 299.042 385.765 298.98 385.883 298.952C385.935 298.939 385.988 298.931 386.04 298.919C386.209 298.883 385.821 298.936 385.994 298.925C386.12 298.917 386.245 298.908 386.372 298.912C386.435 298.914 386.498 298.919 386.561 298.923C386.588 298.927 386.615 298.93 386.642 298.931C386.65 298.931 386.416 298.891 386.517 298.915C386.641 298.944 386.765 298.963 386.887 298.998C386.939 299.013 386.991 299.03 387.042 299.048C387.067 299.056 387.093 299.066 387.118 299.075C387.266 299.125 387.047 299.047 387.035 299.039C387.132 299.109 387.263 299.149 387.366 299.213C387.412 299.241 387.455 299.272 387.499 299.301C387.64 299.391 387.347 299.166 387.471 299.278C387.564 299.359 387.652 299.445 387.735 299.536C387.756 299.565 387.779 299.592 387.803 299.618C387.804 299.618 387.686 299.443 387.73 299.527C387.754 299.573 387.789 299.616 387.816 299.661C387.849 299.715 387.876 299.771 387.905 299.826C387.921 299.854 387.96 299.949 387.9 299.809C387.833 299.652 387.903 299.826 387.914 299.858C388.022 300.211 388.097 300.573 388.14 300.939C388.257 301.723 388.469 302.433 388.974 303.058C389.405 303.558 389.967 303.929 390.597 304.127C391.861 304.528 393.236 304.379 394.386 303.718C395.849 302.898 396.848 301.495 397.786 300.149C398.078 299.73 397.876 299.05 397.437 298.818C396.971 298.56 396.385 298.714 396.105 299.167C395.907 299.451 395.708 299.735 395.502 300.014C395.456 300.077 395.41 300.139 395.364 300.201C395.34 300.231 395.317 300.262 395.293 300.293C395.299 300.285 395.396 300.163 395.327 300.249C395.213 300.388 395.102 300.529 394.984 300.666C394.762 300.928 394.523 301.176 394.271 301.409C394.171 301.524 394.055 301.623 393.926 301.704C393.948 301.695 394.095 301.58 393.943 301.689C393.912 301.711 393.882 301.733 393.851 301.755C393.779 301.806 393.706 301.854 393.631 301.902C393.492 301.989 393.349 302.07 393.202 302.144C393.162 302.164 392.96 302.236 393.104 302.194C393.255 302.15 392.997 302.232 392.962 302.243C392.844 302.283 392.725 302.316 392.604 302.344C392.533 302.36 392.462 302.372 392.391 302.386C392.228 302.418 392.597 302.37 392.371 302.387C392.237 302.397 392.102 302.405 391.967 302.403C391.905 302.403 391.843 302.4 391.781 302.397C391.75 302.395 391.72 302.392 391.689 302.39C391.522 302.38 391.664 302.366 391.733 302.4C391.616 302.365 391.496 302.341 391.374 302.328C391.246 302.269 391.112 302.226 390.974 302.198C390.981 302.197 391.154 302.288 391.07 302.237C391.045 302.222 391.016 302.212 390.99 302.199C390.929 302.168 390.868 302.135 390.809 302.1C390.759 302.07 390.711 302.037 390.662 302.005C390.483 301.889 390.784 302.125 390.63 301.978C390.545 301.897 390.469 301.81 390.387 301.727C390.3 301.64 390.492 301.892 390.432 301.785C390.417 301.759 390.398 301.736 390.382 301.711C390.344 301.652 390.311 301.591 390.277 301.53C390.179 301.357 390.302 301.638 390.242 301.456C390.216 301.379 390.191 301.302 390.169 301.224C390.121 301.04 390.083 300.853 390.054 300.665C389.997 300.314 389.958 299.96 389.871 299.615C389.55 298.372 388.573 297.406 387.327 297.1C386.049 296.765 384.512 297.059 383.644 298.117C383.322 298.51 383.231 299.114 383.644 299.493C384.001 299.821 384.676 299.914 385.02 299.493L385.02 299.493Z" fill="white"/>
<path d="M393.865 292.415C390.72 295.499 387.969 298.96 385.675 302.72C385.037 303.767 384.437 304.834 383.874 305.923C383.64 306.375 383.742 307.001 384.223 307.255C384.67 307.491 385.305 307.388 385.555 306.906C386.54 305.001 387.641 303.158 388.853 301.388C389.16 300.94 389.473 300.497 389.794 300.059C389.95 299.846 390.108 299.633 390.267 299.422C390.343 299.322 390.419 299.222 390.495 299.123C390.524 299.085 390.639 298.937 390.521 299.088C390.573 299.022 390.624 298.957 390.676 298.891C391.328 298.058 392.005 297.245 392.708 296.453C393.52 295.536 394.365 294.649 395.241 293.791C395.621 293.411 395.621 292.795 395.241 292.415C394.861 292.035 394.245 292.035 393.865 292.415V292.415Z" fill="white"/>
</g>
<circle cx="275.329" cy="147.357" r="3.94554" fill="#3152BA"/>
<path d="M163.398 187.842L159.014 190.764C158.67 190.977 158.415 191.308 158.299 191.695C158.191 192.1 158.248 192.531 158.456 192.895C158.891 193.569 159.861 193.936 160.586 193.453L164.97 190.531C165.314 190.319 165.569 189.987 165.685 189.6C165.793 189.195 165.737 188.764 165.529 188.4C165.094 187.726 164.123 187.359 163.398 187.842Z" fill="#75AA3C"/>
<path d="M413.392 335.638L404.214 340.641L395.037 345.643L389.84 348.476C389.104 348.915 388.856 349.862 389.282 350.606C389.727 351.334 390.667 351.58 391.412 351.165L400.59 346.162L409.767 341.16L414.964 338.327C415.7 337.888 415.948 336.94 415.522 336.197C415.077 335.469 414.137 335.223 413.392 335.638V335.638Z" fill="#75AA3C"/>
<ellipse cx="197.072" cy="230.547" rx="17.3681" ry="24.234" transform="rotate(-44.4573 197.072 230.547)" fill="#3A3530"/>
<path d="M230.195 195.11C228.608 188.057 221.548 182.939 214.426 183.68C211.861 183.92 209.447 185.007 207.567 186.769C203.557 184.952 199.121 184.102 194.663 184.566C182.009 185.881 174.037 197.106 176.856 209.637C179.675 222.168 194.526 227.765 207.179 226.449C218.574 225.265 224.276 218.866 223.245 208.457C228.509 206.471 231.537 201.074 230.195 195.11Z" fill="#3A3530"/>
<path d="M285.702 272.251L298.147 233.695C298.886 231.406 300.968 229.736 303.373 229.712C303.39 229.711 303.408 229.711 303.425 229.711L332.439 229.627C332.439 229.627 345.089 218.76 345.089 224.782L335.285 234.627C334.829 235.077 334.257 235.39 333.632 235.53L311.988 240.817L303.375 285.596L285.702 272.251Z" fill="#FF9763"/>
<mask id="mask11_117_3284" style="mask-type:luminance" maskUnits="userSpaceOnUse" x="285" y="222" width="61" height="64">
<path fill-rule="evenodd" clip-rule="evenodd" d="M285.702 272.251L298.147 233.695C298.886 231.406 300.968 229.736 303.373 229.712C303.39 229.711 303.408 229.711 303.425 229.711L332.439 229.627C332.439 229.627 345.089 218.76 345.089 224.782L335.285 234.627C334.829 235.077 334.257 235.39 333.632 235.53L311.988 240.817L303.375 285.596L285.702 272.251Z" fill="white"/>
</mask>
<g mask="url(#mask11_117_3284)">
<path d="M288.521 244.483C304.754 241.986 314.161 248.561 314.161 248.561L311.147 254.28L296.625 251.393" fill="#E84B23"/>
</g>
<path d="M293.982 242.869C293.982 242.869 308.107 246.296 316.476 253.209L295.346 334.281C293.459 341.52 285 346.005 276.617 344.211C268.164 342.403 263.146 334.935 265.553 327.747L293.982 242.869Z" fill="#BB393C"/>
<path d="M288.521 308.187L240.938 245.734L214.011 267.765L267.454 338.611L288.521 308.187Z" fill="#BB393C"/>
<mask id="mask12_117_3284" style="mask-type:luminance" maskUnits="userSpaceOnUse" x="214" y="245" width="75" height="94">
<path fill-rule="evenodd" clip-rule="evenodd" d="M288.521 308.187L240.938 245.734L214.011 267.765L267.454 338.611L288.521 308.187Z" fill="white"/>
</mask>
<g mask="url(#mask12_117_3284)">
<path d="M273.139 343.068C251.452 328.99 254.189 302.011 249.844 285.896C245.972 271.539 217.3 298.511 217.3 298.511L219.741 312.3L221.971 317.752" fill="#90282A"/>
</g>
<path d="M235.486 250.194C235.486 250.194 213.701 239.534 171.736 253.082L164.772 277.125C164.772 277.125 180.633 323.387 176.337 341.561L240.773 350.813C248.043 330.326 246.39 308.847 246.39 308.847C246.39 308.847 252.16 298.323 248.783 276.336" fill="#BB393C"/>
<mask id="mask13_117_3284" style="mask-type:luminance" maskUnits="userSpaceOnUse" x="164" y="246" width="86" height="105">
<path fill-rule="evenodd" clip-rule="evenodd" d="M235.486 250.194C235.486 250.194 213.701 239.534 171.736 253.082L164.772 277.125C164.772 277.125 180.633 323.387 176.337 341.561L240.773 350.813C248.043 330.326 246.39 308.847 246.39 308.847C246.39 308.847 252.16 298.323 248.783 276.336" fill="white"/>
</mask>
<g mask="url(#mask13_117_3284)">
<ellipse cx="207.24" cy="251.104" rx="15.3201" ry="24.2364" transform="rotate(-69.9099 207.24 251.104)" fill="#FF9763"/>
<path d="M215.92 264.43C215.173 280.051 190.768 277.813 176.217 251.108C176.217 251.108 190.772 242.974 191.114 247.668C192.206 262.646 215.92 264.43 215.92 264.43Z" fill="#F0F3FC"/>
<path d="M215.921 264.43C219.734 275.134 234.959 275.025 231.566 255.052C231.566 255.052 217.118 242.864 219.16 247.105C224.974 259.178 215.921 264.43 215.921 264.43Z" fill="#F0F3FC"/>
<path d="M185.275 275.38C190.27 302.595 162.288 330.106 222.058 335.078C267.505 338.859 149.109 338.611 149.109 338.611C149.109 338.611 152.083 307.591 153.57 305.609C155.057 303.626 185.275 275.38 185.275 275.38Z" fill="#90282A"/>
<path d="M257.094 314.458L244.805 304.564L234.941 316.816L222.689 306.951L212.825 319.203L200.573 309.339L190.708 321.591L178.456 311.727L168.562 324.015L180.699 333.788L170.927 345.925L183.216 355.819L193.081 343.567L205.333 353.431L215.197 341.179L227.449 351.044L237.313 338.792L249.565 348.656L259.459 336.367L247.322 326.595L257.094 314.458Z" fill="#BB393C"/>
<rect x="180.972" y="333.758" width="15.5353" height="15.5353" transform="rotate(-51.1615 180.972 333.758)" fill="#9A7ED9"/>
<rect x="203.089" y="331.371" width="15.5353" height="15.5353" transform="rotate(-51.1615 203.089 331.371)" fill="#9A7ED9"/>
<rect x="225.205" y="328.983" width="15.5354" height="15.5354" transform="rotate(-51.1624 225.205 328.983)" fill="#9A7ED9"/>
</g>
<path d="M357.882 355.341H255.612L284.631 287.985C285.307 286.416 286.852 285.399 288.56 285.399H384.533C385.304 285.399 386.024 285.787 386.448 286.431C386.871 287.075 386.943 287.89 386.638 288.598L357.882 355.341Z" fill="#F0F3FC"/>
<path d="M360.596 355.341H258.326L287.345 287.985C288.021 286.416 289.566 285.399 291.275 285.399H387.247C388.019 285.399 388.738 285.787 389.162 286.431C389.586 287.075 389.657 287.89 389.352 288.598L360.596 355.341Z" fill="#F0F3FC"/>
<mask id="mask14_117_3284" style="mask-type:luminance" maskUnits="userSpaceOnUse" x="258" y="285" width="132" height="71">
<path fill-rule="evenodd" clip-rule="evenodd" d="M360.596 355.341H258.326L287.345 287.985C288.021 286.416 289.566 285.399 291.275 285.399H387.247C388.019 285.399 388.738 285.787 389.162 286.431C389.586 287.075 389.657 287.89 389.352 288.598L360.596 355.341Z" fill="white"/>
</mask>
<g mask="url(#mask14_117_3284)">
<path d="M270.449 304.838C255.612 355.341 396.121 359.735 396.121 359.735L237.101 390.041L220.836 345.719" fill="#D6DCF2"/>
</g>
<ellipse cx="230.716" cy="244.484" rx="21.8869" ry="25.125" transform="rotate(-44.4573 230.716 244.484)" fill="#3A3530"/>
<path d="M192.352 250.49L190.442 217.115L211.482 229.258C211.018 230.942 215.921 261.911 215.921 261.911" fill="#FF9763"/>
<mask id="mask15_117_3284" style="mask-type:luminance" maskUnits="userSpaceOnUse" x="190" y="217" width="26" height="45">
<path fill-rule="evenodd" clip-rule="evenodd" d="M192.352 250.49L190.442 217.115L211.482 229.258C211.018 230.942 215.921 261.911 215.921 261.911" fill="white"/>
</mask>
<g mask="url(#mask15_117_3284)">
<path d="M225.45 256.781C208.424 251.549 202.293 240.664 202.585 232C202.765 226.637 221.438 229.58 221.438 229.58L228.278 236.235L228.584 246.612" fill="#E84B23"/>
</g>
<path d="M202.584 232C216.876 239.747 233.758 237.556 222.873 204.2C213.464 204.275 208.488 197.156 207.225 195.05L206.874 195.039C206.755 198.337 205.321 215.989 189.23 217.246" fill="#FF9763"/>
<mask id="mask16_117_3284" style="mask-type:luminance" maskUnits="userSpaceOnUse" x="189" y="195" width="38" height="41">
<path fill-rule="evenodd" clip-rule="evenodd" d="M202.584 232C216.876 239.747 233.758 237.556 222.873 204.2C213.464 204.275 208.488 197.156 207.225 195.05L206.874 195.039C206.755 198.337 205.321 215.989 189.23 217.246" fill="white"/>
</mask>
<g mask="url(#mask16_117_3284)">
<ellipse opacity="0.27" cx="228.806" cy="216.796" rx="4.6107" ry="6.21967" transform="rotate(-81.8339 228.806 216.796)" fill="#E84B23"/>
<ellipse opacity="0.27" cx="205.248" cy="217.995" rx="5.54827" ry="4.11298" transform="rotate(-8.9777 205.248 217.995)" fill="#E84B23"/>
<path d="M221.837 212.166C220.967 212.402 220.071 211.889 219.835 211.019L219.114 208.361C218.878 207.491 219.391 206.595 220.261 206.359C221.13 206.123 222.026 206.636 222.262 207.506L222.984 210.165C223.097 210.582 223.04 211.028 222.825 211.403C222.61 211.779 222.254 212.053 221.837 212.166L221.837 212.166Z" fill="#190000"/>
<path d="M210.684 214.227C209.814 214.463 208.918 213.95 208.682 213.08L207.961 210.421C207.725 209.552 208.238 208.656 209.108 208.42C209.977 208.184 210.873 208.697 211.109 209.567L211.831 212.225C212.067 213.095 211.553 213.991 210.684 214.227V214.227Z" fill="#190000"/>
<path d="M219.646 202.542C223.113 202.607 222.703 204.598 220.533 204.699C218.363 204.8 217.38 202.499 219.646 202.542Z" fill="#190000"/>
<path d="M208.162 204.56C205.203 206.369 206.284 207.812 208.207 206.801C210.13 205.791 210.095 203.378 208.162 204.56Z" fill="#190000"/>
<path d="M214.351 213.793C214.544 215.06 215.644 214.377 217.095 214.155C218.547 213.933 219.8 214.255 219.606 212.989C219.412 211.722 218.079 210.876 216.627 211.098C215.176 211.32 214.157 212.526 214.351 213.793Z" fill="#E84B23"/>
<path d="M221.256 219.855C221.166 227.941 213.21 225.96 212.225 221.118C212.179 220.866 212.294 220.612 212.514 220.482C213.44 219.92 216.187 218.598 220.722 219.238C221.029 219.282 221.256 219.545 221.256 219.855Z" fill="#C1525F"/>
<mask id="mask17_117_3284" style="mask-type:luminance" maskUnits="userSpaceOnUse" x="212" y="219" width="10" height="7">
<path fill-rule="evenodd" clip-rule="evenodd" d="M221.256 219.855C221.166 227.941 213.21 225.96 212.225 221.118C212.179 220.866 212.294 220.612 212.514 220.482C213.44 219.92 216.187 218.598 220.722 219.238C221.029 219.282 221.256 219.545 221.256 219.855Z" fill="white"/>
</mask>
<g mask="url(#mask17_117_3284)">
<ellipse cx="216.41" cy="225.153" rx="3.61827" ry="4.05392" transform="rotate(-80.7582 216.41 225.153)" fill="#993443"/>
<path d="M219.662 218.833C219.74 219.354 219.797 220.068 219.681 220.217C218.965 221.136 214.86 221.401 214.237 221.033C214.063 220.931 213.787 219.258 213.787 219.258L219.003 218.645" fill="#F0F3FC"/>
</g>
</g>
<path d="M191.806 216.903C172.2 208.415 176.558 232.73 192.68 228.045L191.806 216.903Z" fill="#FF9763"/>
<path d="M181.762 226.175C178.201 229.432 177.532 234.793 180.184 238.825C182.835 242.858 188.021 244.369 192.423 242.391C196.826 240.413 199.14 235.532 197.886 230.872C196.632 226.212 192.181 223.152 187.381 223.65" stroke="white" stroke-width="1.94625"/>
<path d="M251.266 340.031C251.266 340.031 276.785 339.994 281.83 342.139C288.477 344.966 299.663 351.505 302.043 353.056C302.264 353.198 302.359 353.473 302.272 353.722C301.808 355.019 299.893 358.526 293.601 353.911C293.601 353.911 296.699 357.628 296.947 362.833C297.195 368.037 291.619 367.913 291.867 362.833C291.867 362.833 290.132 369.772 284.803 362.585C284.803 362.585 283.134 367.763 280.343 363.576C278.091 360.199 277.259 357.379 271.675 357.214C264.52 357.002 243.918 357.709 243.918 357.709L253.825 340.776" fill="#FF9763"/>
<mask id="mask18_117_3284" style="mask-type:luminance" maskUnits="userSpaceOnUse" x="243" y="340" width="60" height="27">
<path fill-rule="evenodd" clip-rule="evenodd" d="M251.266 340.031C251.266 340.031 276.785 339.993 281.829 342.139C288.476 344.966 299.662 351.505 302.042 353.056C302.264 353.198 302.359 353.473 302.272 353.722C301.808 355.019 299.893 358.526 293.601 353.911C293.601 353.911 296.699 357.628 296.947 362.833C297.195 368.037 291.619 367.913 291.866 362.833C291.866 362.833 290.132 369.772 284.803 362.585C284.803 362.585 283.134 367.763 280.342 363.576C278.091 360.199 277.259 357.379 271.674 357.214C264.52 357.002 243.917 357.709 243.917 357.709L253.825 340.776" fill="white"/>
</mask>
<g mask="url(#mask18_117_3284)">
<path d="M271.234 363.091C247.123 361.995 268.065 350.677 261.156 340.17C254.247 329.663 249.498 356.332 249.498 356.332L255.611 361.995L267.581 365.1" fill="#E84B23"/>
</g>
<path d="M171.735 253.082C164.166 252.096 156.89 256.364 154.058 263.453L122.96 341.295L158.659 348.335L185.275 275.38" fill="#BB393C"/>
<path d="M128.91 326.401L122.228 343.034C119.225 351.128 125.212 359.735 133.845 359.735H256.799C256.799 359.735 260.764 349.822 261.755 333.465L157.589 327.926" fill="#BB393C"/>
<mask id="mask19_117_3284" style="mask-type:luminance" maskUnits="userSpaceOnUse" x="121" y="326" width="141" height="34">
<path fill-rule="evenodd" clip-rule="evenodd" d="M128.91 326.401L122.228 343.034C119.225 351.128 125.212 359.735 133.845 359.735H256.799C256.799 359.735 260.764 349.822 261.755 333.465L157.589 327.926" fill="white"/>
</mask>
<g mask="url(#mask19_117_3284)">
<circle cx="121.443" cy="359.735" r="27.1937" fill="#9A7ED9"/>
<circle cx="121.443" cy="359.735" r="32.6746" stroke="#90282A" stroke-width="1.2975" stroke-linecap="round" stroke-linejoin="round" stroke-dasharray="2.6"/>
</g>
<path d="M245.008 327.999C245.008 327.999 246.835 353.842 242.451 359.735H256.799C256.799 359.735 263.038 342.218 261.756 333.465L245.008 327.999Z" fill="#9A7ED9"/>
<path d="M288.521 258.101L293.982 242.869C293.982 242.869 308.183 244.907 316.477 253.209V266.138C316.477 266.138 300.251 255.422 288.521 258.101Z" fill="#9A7ED9"/>
<circle cx="217.656" cy="274.601" r="1.73529" fill="#190000"/>
<circle cx="219.1" cy="285.896" r="1.73529" fill="#190000"/>
<ellipse cx="333.091" cy="314.313" rx="14.1624" ry="11.0405" transform="rotate(-39.9628 333.091 314.313)" fill="#9A7ED9"/>
<path d="M370.055 309.47L351.472 316.748L348.25 300.206L366.833 292.928L370.055 309.47Z" fill="#589BF7"/>
<path d="M350.385 331.674L344.603 327.237L350.806 320.429L356.588 324.866L350.385 331.674Z" fill="#F0F3FC"/>
<path d="M226.086 246.566C228.232 249.06 231.084 250.844 234.265 251.684C235.195 251.925 236.144 252.085 237.101 252.161C237.616 252.204 238.108 251.677 238.086 251.176C238.073 250.638 237.639 250.205 237.101 250.192C236.925 250.177 236.749 250.16 236.573 250.139C236.524 250.133 236.471 250.13 236.422 250.12C236.452 250.126 236.643 250.152 236.459 250.125C236.359 250.11 236.259 250.095 236.159 250.078C235.785 250.016 235.414 249.94 235.046 249.85C234.31 249.666 233.588 249.43 232.886 249.146C232.834 249.125 232.718 249.104 232.911 249.157C232.875 249.144 232.84 249.129 232.807 249.112C232.726 249.077 232.645 249.041 232.564 249.004C232.38 248.92 232.198 248.832 232.017 248.741C231.679 248.57 231.347 248.387 231.022 248.191C230.697 247.996 230.379 247.789 230.069 247.57C229.925 247.468 229.783 247.363 229.641 247.257C229.497 247.148 229.635 247.254 229.661 247.272C229.62 247.244 229.58 247.208 229.542 247.177C229.463 247.114 229.385 247.05 229.307 246.986C228.647 246.435 228.035 245.829 227.479 245.173C227.144 244.779 226.426 244.803 226.086 245.173C225.715 245.564 225.715 246.176 226.086 246.566L226.086 246.566Z" fill="#190000"/>
<path d="M191.18 194.484C189.572 194.992 188.138 195.937 187.036 197.213C186.857 197.401 186.754 197.649 186.747 197.909C186.749 198.17 186.853 198.42 187.036 198.605C187.403 198.942 188.072 199.025 188.429 198.605C188.662 198.33 188.914 198.07 189.182 197.827C189.317 197.706 189.461 197.597 189.597 197.478C189.375 197.672 189.625 197.459 189.687 197.415C189.76 197.362 189.835 197.311 189.91 197.26C190.211 197.06 190.524 196.879 190.849 196.72C190.93 196.681 191.012 196.642 191.095 196.605C191.131 196.589 191.169 196.574 191.205 196.557C190.963 196.673 191.105 196.599 191.165 196.576C191.342 196.505 191.522 196.441 191.703 196.383C192.193 196.225 192.56 195.692 192.391 195.171C192.232 194.681 191.705 194.315 191.18 194.484V194.484Z" fill="#190000"/>
<path d="M156.568 291.983C157.701 293.893 159.476 295.339 161.576 296.063C162.1 296.204 162.64 295.898 162.787 295.376C162.918 294.853 162.615 294.32 162.099 294.164C161.991 294.126 161.884 294.087 161.777 294.045C161.702 294.016 161.568 293.916 161.758 294.04C161.718 294.018 161.676 294 161.633 293.984C161.414 293.885 161.2 293.776 160.99 293.658C160.791 293.545 160.596 293.425 160.407 293.296C160.302 293.225 160.201 293.151 160.099 293.077C159.996 293.001 160.101 293.061 160.135 293.105C160.085 293.057 160.032 293.014 159.975 292.976C159.621 292.684 159.293 292.363 158.993 292.016C158.918 291.93 158.846 291.841 158.774 291.752C158.624 291.568 158.899 291.927 158.76 291.734C158.727 291.687 158.693 291.642 158.66 291.595C158.52 291.399 158.391 291.196 158.269 290.989C158.092 290.685 157.765 290.499 157.414 290.501C157.062 290.503 156.738 290.692 156.563 290.998C156.389 291.304 156.391 291.679 156.569 291.983L156.568 291.983Z" fill="#90282A"/>
<path d="M306.902 238.367C308.035 240.455 310.018 241.947 312.338 242.458C312.84 242.564 313.426 242.31 313.549 241.77C313.662 241.276 313.4 240.673 312.861 240.559C312.615 240.507 312.371 240.443 312.132 240.366C312.006 240.325 311.882 240.281 311.759 240.234C311.73 240.222 311.539 240.142 311.677 240.202C311.815 240.262 311.625 240.177 311.597 240.165C311.141 239.952 310.706 239.694 310.3 239.395C310.151 239.287 310.393 239.473 310.3 239.396C310.254 239.357 310.207 239.32 310.161 239.282C310.069 239.205 309.979 239.125 309.891 239.044C309.706 238.873 309.531 238.692 309.365 238.503C309.344 238.479 309.119 238.195 309.113 238.198C309.125 238.192 309.241 238.37 309.115 238.196C309.08 238.148 309.046 238.099 309.012 238.05C308.863 237.832 308.726 237.606 308.602 237.373C308.325 236.907 307.725 236.75 307.255 237.02C306.795 237.302 306.64 237.896 306.902 238.367L306.902 238.367Z" fill="#E84B23"/>
<path d="M274.503 351.576L274.027 353.527C273.962 353.784 273.997 354.055 274.126 354.286C274.326 354.628 274.712 354.817 275.104 354.766C275.497 354.714 275.821 354.433 275.926 354.051L276.402 352.1C276.467 351.843 276.432 351.572 276.303 351.341C276.103 350.999 275.717 350.81 275.325 350.861C274.932 350.913 274.608 351.194 274.503 351.576Z" fill="#E84B23"/>
<path d="M194.506 344.77L195.48 345.744C195.87 346.114 196.482 346.114 196.873 345.744C197.057 345.559 197.16 345.309 197.161 345.048L197.126 344.786C197.081 344.622 196.993 344.472 196.873 344.352L195.898 343.377C195.508 343.008 194.896 343.008 194.506 343.377C194.322 343.563 194.218 343.813 194.217 344.074L194.252 344.336C194.298 344.5 194.385 344.65 194.506 344.77Z" fill="#90282A"/>
<path d="M298.487 307.508C296.899 309.289 295.808 311.456 295.321 313.792C295.22 314.296 295.466 314.88 296.009 315.004C296.5 315.116 297.111 314.856 297.221 314.316C297.327 313.789 297.466 313.269 297.638 312.76C297.725 312.505 297.821 312.254 297.922 312.005C297.871 312.132 297.894 312.07 297.933 311.981C297.96 311.919 297.988 311.858 298.016 311.797C298.072 311.674 298.129 311.553 298.189 311.433C298.423 310.963 298.686 310.509 298.976 310.073C299.051 309.961 299.127 309.85 299.205 309.741C299.244 309.686 299.283 309.632 299.323 309.578C299.323 309.578 299.472 309.377 299.392 309.484C299.312 309.591 299.448 309.413 299.464 309.393C299.506 309.341 299.548 309.289 299.591 309.237C299.686 309.123 299.782 309.011 299.88 308.9C300.221 308.515 300.288 307.883 299.88 307.508C299.507 307.165 298.852 307.096 298.487 307.508L298.487 307.508Z" fill="#D6DCF2"/>
<path d="M176.089 71.4132C176.089 67.2106 172.682 63.8037 168.48 63.8037H7.60957C3.40692 63.8037 1.05693e-05 67.2106 0 71.4132V80.7475H176.089L176.089 71.4132Z" fill="#EFF3FC"/>
<mask id="mask20_117_3284" style="mask-type:luminance" maskUnits="userSpaceOnUse" x="0" y="63" width="177" height="18">
<path fill-rule="evenodd" clip-rule="evenodd" d="M176.089 71.4132C176.089 67.2106 172.682 63.8037 168.48 63.8037H7.60957C3.40692 63.8037 1.05693e-05 67.2106 0 71.4132V80.7475H176.089L176.089 71.4132Z" fill="white"/>
</mask>
<g mask="url(#mask20_117_3284)">
<path d="M83.3048 59.5051C54.3198 68.4863 181.282 58.6472 180.466 74.181C179.649 89.7148 178.016 50.932 178.016 50.932L115.147 52.565" fill="#D6DCF2"/>
</g>
<path d="M0 80.7475V173.911C2.11385e-05 178.114 3.40693 181.521 7.60957 181.521H168.48C172.682 181.521 176.089 178.114 176.089 173.911V80.7475H0Z" fill="#D6DCF2"/>
<mask id="mask21_117_3284" style="mask-type:luminance" maskUnits="userSpaceOnUse" x="0" y="80" width="177" height="102">
<path fill-rule="evenodd" clip-rule="evenodd" d="M0 80.7475V173.911C2.11385e-05 178.114 3.40693 181.521 7.60957 181.521H168.48C172.682 181.521 176.089 178.114 176.089 173.911V80.7475H0Z" fill="white"/>
</mask>
<g mask="url(#mask21_117_3284)">
<path d="M-3.6503 161.925C-4.2627 187.08 168.479 181.521 168.479 181.521L2.47328 211.574L-23.8582 193.816" fill="#BFC8E2"/>
</g>
<circle cx="9.56626" cy="72.0731" r="2.10788" fill="#BB393C"/>
<circle cx="18.4261" cy="72.0731" r="2.10788" fill="#FFC562"/>
<circle cx="27.2839" cy="72.0731" r="2.10788" fill="#75AA3C"/>
<rect x="13.8569" y="90.1348" width="148.38" height="80.3807" rx="3.18645" fill="#9A7ED9"/>
<mask id="mask22_117_3284" style="mask-type:luminance" maskUnits="userSpaceOnUse" x="13" y="90" width="150" height="81">
<rect x="13.8569" y="90.1348" width="148.38" height="80.3807" rx="3.18645" fill="white"/>
</mask>
<g mask="url(#mask22_117_3284)">
<path d="M158.627 81.9862C162.237 167.329 -6.09735 173.976 -6.09735 173.976L184.346 204.226L196.791 122.662" fill="#6F4EB9"/>
</g>
<ellipse opacity="0.36" cx="88.0471" cy="126.622" rx="23.5337" ry="23.5629" fill="#EFF3FC"/>
<path d="M81.4902 126.622V117.94C81.4896 117.413 81.7706 116.925 82.2271 116.661C82.6837 116.397 83.2464 116.397 83.7031 116.661L91.2125 121.002L98.7219 125.343C99.1784 125.607 99.4596 126.094 99.4596 126.622C99.4596 127.149 99.1784 127.637 98.7219 127.901L91.2125 132.242L83.7031 136.583C83.2464 136.846 82.6837 136.846 82.2271 136.582C81.7706 136.319 81.4896 135.831 81.4902 135.304V126.622Z" fill="#EFF3FC"/>
<path d="M38.1287 111.285C36.8195 112.81 35.2149 114.053 33.4119 114.941C33.1037 115.125 32.9997 115.522 33.1778 115.833C33.3642 116.138 33.7583 116.242 34.0705 116.067C35.972 115.127 37.6657 113.814 39.0515 112.208C39.2975 111.949 39.2975 111.543 39.0515 111.285C38.7954 111.033 38.3849 111.033 38.1288 111.285H38.1287Z" fill="#6F4EB9"/>
<path d="M146.819 155.22L143.145 156.445C142.798 156.541 142.594 156.9 142.69 157.248C142.785 157.595 143.145 157.799 143.492 157.703L147.166 156.479C147.514 156.383 147.718 156.024 147.622 155.676C147.526 155.329 147.167 155.125 146.819 155.22V155.22Z" fill="#6F4EB9"/>
</svg>
