<svg width="24" height="24" viewBox="0 0 24 24" fill="none" xmlns="http://www.w3.org/2000/svg">
<path opacity="0.2" d="M20.25 4.5H3.75C3.55109 4.5 3.36032 4.57902 3.21967 4.71967C3.07902 4.86032 3 5.05109 3 5.25V18.75C3 18.9489 3.07902 19.1397 3.21967 19.2803C3.36032 19.421 3.55109 19.5 3.75 19.5H5.63437C6.09976 18.1837 6.96185 17.0441 8.1019 16.2382C9.24195 15.4322 10.6039 14.9997 12 15C11.2583 15 10.5333 14.7801 9.91661 14.368C9.29993 13.956 8.81928 13.3703 8.53545 12.6851C8.25162 11.9998 8.17736 11.2458 8.32205 10.5184C8.46675 9.79098 8.8239 9.1228 9.34835 8.59835C9.8728 8.0739 10.541 7.71675 11.2684 7.57205C11.9958 7.42736 12.7498 7.50162 13.4351 7.78545C14.1203 8.06928 14.706 8.54993 15.118 9.16661C15.5301 9.7833 15.75 10.5083 15.75 11.25C15.75 12.2446 15.3549 13.1984 14.6517 13.9017C13.9484 14.6049 12.9946 15 12 15C13.3961 14.9997 14.7581 15.4322 15.8981 16.2382C17.0381 17.0441 17.9002 18.1837 18.3656 19.5H20.25C20.4489 19.5 20.6397 19.421 20.7803 19.2803C20.921 19.1397 21 18.9489 21 18.75V5.25C21 5.05109 20.921 4.86032 20.7803 4.71967C20.6397 4.57902 20.4489 4.5 20.25 4.5Z" fill="black"/>
<path d="M20.25 3.75H3.75C3.35218 3.75 2.97064 3.90804 2.68934 4.18934C2.40804 4.47064 2.25 4.85218 2.25 5.25V18.75C2.25 19.1478 2.40804 19.5294 2.68934 19.8107C2.97064 20.092 3.35218 20.25 3.75 20.25H20.25C20.6478 20.25 21.0294 20.092 21.3107 19.8107C21.592 19.5294 21.75 19.1478 21.75 18.75V5.25C21.75 4.85218 21.592 4.47064 21.3107 4.18934C21.0294 3.90804 20.6478 3.75 20.25 3.75ZM9 11.25C9 10.6567 9.17595 10.0766 9.50559 9.58329C9.83524 9.08994 10.3038 8.70542 10.8519 8.47836C11.4001 8.2513 12.0033 8.19189 12.5853 8.30764C13.1672 8.4234 13.7018 8.70912 14.1213 9.12868C14.5409 9.54824 14.8266 10.0828 14.9424 10.6647C15.0581 11.2467 14.9987 11.8499 14.7716 12.3981C14.5446 12.9462 14.1601 13.4148 13.6667 13.7444C13.1734 14.0741 12.5933 14.25 12 14.25C11.2051 14.2475 10.4435 13.9307 9.88141 13.3686C9.31934 12.8065 9.00247 12.0449 9 11.25ZM6.80625 18.75C7.33318 17.839 8.09046 17.0826 9.00208 16.5568C9.9137 16.031 10.9476 15.7542 12 15.7542C13.0524 15.7542 14.0863 16.031 14.9979 16.5568C15.9095 17.0826 16.6668 17.839 17.1937 18.75H6.80625ZM20.25 18.75H18.8719C18.0807 16.9409 16.6089 15.5162 14.775 14.7844C15.5122 14.2069 16.0508 13.4139 16.3159 12.5158C16.581 11.6177 16.5593 10.6593 16.2539 9.77409C15.9485 8.8889 15.3745 8.12104 14.612 7.57751C13.8495 7.03398 12.9364 6.74187 12 6.74187C11.0636 6.74187 10.1505 7.03398 9.38801 7.57751C8.62549 8.12104 8.05153 8.8889 7.7461 9.77409C7.44067 10.6593 7.419 11.6177 7.68409 12.5158C7.94918 13.4139 8.48784 14.2069 9.225 14.7844C7.39112 15.5162 5.91928 16.9409 5.12813 18.75H3.75V5.25H20.25V18.75Z" fill="black"/>
</svg>
