<svg width="570" height="345" viewBox="0 0 570 345" fill="none" xmlns="http://www.w3.org/2000/svg">
<path d="M166.251 24.4313L219.44 92.6952L275.567 22.9326C286.8 8.96683 304.652 0.716675 323.643 0.716675H430.542L286.425 168.717L435.986 344.38H325.509C307.223 344.38 289.952 336.74 278.623 323.648L214.767 249.845L153.585 322.642C142.066 336.35 124.214 344.38 105.289 344.38H0.549805L147.003 169.356L8.33712 0.724017H115.89C135.895 0.724017 154.658 9.56189 166.251 24.4313Z" fill="#6889FF"/>
<path d="M228.402 24.4312L281.591 92.6952L337.718 22.9325C348.951 8.96677 366.803 0.716614 385.794 0.716614H492.694L348.577 168.717L498.137 344.38H387.66C369.375 344.38 352.103 336.74 340.775 323.648L276.919 249.845L215.737 322.642C204.217 336.35 186.365 344.38 167.441 344.38H62.7012L209.154 169.356L70.4885 0.723956H178.042C198.046 0.723956 216.809 9.56183 228.402 24.4312Z" fill="#6928F3"/>
<path d="M299.804 24.4313L352.993 92.6952L409.12 22.9326C420.353 8.96683 438.205 0.716675 457.196 0.716675H564.095L419.979 168.717L569.539 344.38H459.062C440.777 344.38 423.505 336.74 412.177 323.648L348.32 249.845L287.139 322.642C275.619 336.35 257.767 344.38 238.843 344.38H134.096L280.549 169.356L141.89 0.724017H249.444C269.448 0.724017 288.211 9.56189 299.804 24.4313Z" fill="#26036F"/>
</svg>
