<svg width="30" height="23" viewBox="0 0 30 23" fill="none" xmlns="http://www.w3.org/2000/svg">
<mask id="mask0_122_3292" style="mask-type:alpha" maskUnits="userSpaceOnUse" x="0" y="0" width="30" height="23">
<rect width="30" height="23" fill="#D9D9D9"/>
</mask>
<g mask="url(#mask0_122_3292)">
<path d="M15.4444 8.5C16.4169 8.5 17.3495 8.88631 18.0372 9.57394C18.7248 10.2616 19.1111 11.1942 19.1111 12.1667C19.1111 13.1391 18.7248 14.0718 18.0372 14.7594C17.3495 15.447 16.4169 15.8333 15.4444 15.8333C14.472 15.8333 13.5394 15.447 12.8517 14.7594C12.1641 14.0718 11.7778 13.1391 11.7778 12.1667C11.7778 11.1942 12.1641 10.2616 12.8517 9.57394C13.5394 8.88631 14.472 8.5 15.4444 8.5M15.4444 3C21.5556 3 26.7744 6.80111 28.8889 12.1667C26.7744 17.5322 21.5556 21.3333 15.4444 21.3333C9.33333 21.3333 4.11444 17.5322 2 12.1667C4.11444 6.80111 9.33333 3 15.4444 3ZM4.66444 12.1667C5.65231 14.1837 7.18626 15.8831 9.09192 17.0718C10.9976 18.2604 13.1985 18.8905 15.4444 18.8905C17.6904 18.8905 19.8913 18.2604 21.797 17.0718C23.7026 15.8831 25.2366 14.1837 26.2244 12.1667C25.2366 10.1496 23.7026 8.4502 21.797 7.26158C19.8913 6.07296 17.6904 5.44283 15.4444 5.44283C13.1985 5.44283 10.9976 6.07296 9.09192 7.26158C7.18626 8.4502 5.65231 10.1496 4.66444 12.1667V12.1667Z" fill="#6928F3"/>
</g>
</svg>
