<svg width="30" height="24" viewBox="0 0 30 24" fill="none" xmlns="http://www.w3.org/2000/svg">
<mask id="mask0_122_3295" style="mask-type:alpha" maskUnits="userSpaceOnUse" x="0" y="0" width="30" height="24">
<rect width="30" height="24" fill="#D9D9D9"/>
</mask>
<g mask="url(#mask0_122_3295)">
<path d="M3.22222 2.32999L4.78667 0.777771L25.2222 21.2133L23.67 22.7778L19.9056 19.0133C18.5 19.4778 17.0089 19.7222 15.4444 19.7222C9.33333 19.7222 4.11444 15.9211 2 10.5555C2.84333 8.40444 4.18778 6.50999 5.89889 5.00666L3.22222 2.32999ZM15.4444 6.88888C16.4169 6.88888 17.3495 7.27519 18.0372 7.96282C18.7248 8.65046 19.1111 9.58309 19.1111 10.5555C19.1117 10.9718 19.0415 11.3851 18.9033 11.7778L14.2222 7.09666C14.6149 6.95853 15.0282 6.88826 15.4444 6.88888ZM15.4444 1.38888C21.5556 1.38888 26.7744 5.18999 28.8889 10.5555C27.8914 13.0895 26.1963 15.2889 24 16.8989L22.2644 15.1511C23.9546 13.9819 25.3178 12.3999 26.2244 10.5555C25.2364 8.53881 23.7023 6.83971 21.7967 5.65139C19.891 4.46306 17.6902 3.83318 15.4444 3.83333C14.1122 3.83333 12.8044 4.05333 11.5822 4.44444L9.7 2.57444C11.46 1.81666 13.4033 1.38888 15.4444 1.38888ZM4.66444 10.5555C5.65254 12.5723 7.18659 14.2714 9.09223 15.4597C10.9979 16.648 13.1987 17.2779 15.4444 17.2778C16.2878 17.2778 17.1189 17.1922 17.8889 17.0211L15.1022 14.2222C14.2518 14.1311 13.4581 13.7515 12.8533 13.1467C12.2485 12.5419 11.8689 11.7482 11.7778 10.8978L7.62222 6.72999C6.41222 7.76888 5.39778 9.06444 4.66444 10.5555Z" fill="#585858"/>
</g>
</svg>
