<svg width="10" height="10" viewBox="0 0 10 10" fill="none" xmlns="http://www.w3.org/2000/svg">
<path fill-rule="evenodd" clip-rule="evenodd" d="M6.99931 5.99988C7.64354 5.99991 8.26289 6.24865 8.72819 6.69421C9.1935 7.13977 9.46885 7.74775 9.49681 8.39138L9.49931 8.49988V9.49988C9.49916 9.62732 9.45037 9.74989 9.36288 9.84256C9.2754 9.93523 9.15583 9.99099 9.02861 9.99846C8.90139 10.0059 8.77612 9.96454 8.67839 9.88274C8.58066 9.80095 8.51786 9.68493 8.50281 9.55838L8.49931 9.49988V8.49988C8.49933 8.11727 8.35314 7.74912 8.09066 7.47075C7.82818 7.19237 7.46925 7.02482 7.08731 7.00238L6.99931 6.99988H2.99931C2.6167 6.99986 2.24855 7.14604 1.97018 7.40852C1.6918 7.671 1.52425 8.02993 1.50181 8.41188L1.49931 8.49988V9.49988C1.49916 9.62732 1.45037 9.74989 1.36288 9.84256C1.2754 9.93523 1.15583 9.99099 1.02861 9.99846C0.901387 10.0059 0.776116 9.96454 0.678389 9.88274C0.580663 9.80095 0.517858 9.68493 0.502806 9.55838L0.499306 9.49988V8.49988C0.499343 7.85565 0.748077 7.2363 1.19364 6.77099C1.63919 6.30568 2.24718 6.03034 2.89081 6.00238L2.99931 5.99988H6.99931ZM4.99931 -0.00012207C5.66235 -0.00012207 6.29823 0.26327 6.76707 0.732111C7.23591 1.20095 7.49931 1.83684 7.49931 2.49988C7.49931 3.16292 7.23591 3.7988 6.76707 4.26764C6.29823 4.73649 5.66235 4.99988 4.99931 4.99988C4.33626 4.99988 3.70038 4.73649 3.23154 4.26764C2.7627 3.7988 2.49931 3.16292 2.49931 2.49988C2.49931 1.83684 2.7627 1.20095 3.23154 0.732111C3.70038 0.26327 4.33626 -0.00012207 4.99931 -0.00012207ZM4.99931 0.999878C4.80232 0.999878 4.60727 1.03868 4.42528 1.11406C4.24329 1.18944 4.07793 1.29993 3.93865 1.43922C3.79936 1.57851 3.68887 1.74386 3.61349 1.92585C3.5381 2.10784 3.49931 2.30289 3.49931 2.49988C3.49931 2.69686 3.5381 2.89191 3.61349 3.0739C3.68887 3.25589 3.79936 3.42125 3.93865 3.56054C4.07793 3.69983 4.24329 3.81031 4.42528 3.8857C4.60727 3.96108 4.80232 3.99988 4.99931 3.99988C5.39713 3.99988 5.77866 3.84184 6.05997 3.56054C6.34127 3.27923 6.49931 2.8977 6.49931 2.49988C6.49931 2.10205 6.34127 1.72052 6.05997 1.43922C5.77866 1.15791 5.39713 0.999878 4.99931 0.999878Z" fill="#26036E"/>
</svg>
