<svg width="111" height="107" viewBox="0 0 111 107" fill="none" xmlns="http://www.w3.org/2000/svg">
<ellipse cx="54.4327" cy="53.3654" rx="54.4327" ry="53.3654" fill="url(#paint0_linear_558_3331)"/>
<path fill-rule="evenodd" clip-rule="evenodd" d="M66.1691 58.1004C69.9509 58.1006 73.5866 59.5608 76.318 62.1763C79.0495 64.7918 80.6658 68.3608 80.8299 72.139L80.8446 72.7759V78.6461C80.8438 79.3942 80.5573 80.1137 80.0438 80.6577C79.5302 81.2017 78.8283 81.529 78.0815 81.5729C77.3347 81.6167 76.5993 81.3738 76.0257 80.8936C75.452 80.4134 75.0833 79.7324 74.995 78.9895L74.9744 78.6461V72.7759C74.9745 70.5299 74.1164 68.3688 72.5756 66.7347C71.0348 65.1006 68.9278 64.1171 66.6857 63.9853L66.1691 63.9706H42.6884C40.4424 63.9705 38.2813 64.8286 36.6472 66.3694C35.0131 67.9102 34.0295 70.0172 33.8977 72.2593L33.8831 72.7759V78.6461C33.8822 79.3942 33.5958 80.1137 33.0822 80.6577C32.5687 81.2017 31.8668 81.529 31.12 81.5729C30.3732 81.6167 29.6378 81.3738 29.0641 80.8936C28.4905 80.4134 28.1218 79.7324 28.0334 78.9895L28.0129 78.6461V72.7759C28.0131 68.9941 29.4732 65.3584 32.0887 62.627C34.7042 59.8955 38.2732 58.2792 42.0514 58.1151L42.6884 58.1004H66.1691ZM54.4287 22.8793C58.3209 22.8793 62.0537 24.4254 64.8059 27.1776C67.5581 29.9298 69.1042 33.6626 69.1042 37.5548C69.1042 41.4469 67.5581 45.1797 64.8059 47.9319C62.0537 50.6841 58.3209 52.2302 54.4287 52.2302C50.5366 52.2302 46.8038 50.6841 44.0516 47.9319C41.2994 45.1797 39.7533 41.4469 39.7533 37.5548C39.7533 33.6626 41.2994 29.9298 44.0516 27.1776C46.8038 24.4254 50.5366 22.8793 54.4287 22.8793ZM54.4287 28.7495C53.2724 28.7495 52.1274 28.9772 51.0591 29.4197C49.9908 29.8622 49.0201 30.5108 48.2025 31.3285C47.3848 32.1461 46.7362 33.1168 46.2937 34.1851C45.8512 35.2534 45.6235 36.3984 45.6235 37.5548C45.6235 38.7111 45.8512 39.8561 46.2937 40.9244C46.7362 41.9927 47.3848 42.9634 48.2025 43.781C49.0201 44.5987 49.9908 45.2473 51.0591 45.6898C52.1274 46.1323 53.2724 46.36 54.4287 46.36C56.764 46.36 59.0037 45.4323 60.655 43.781C62.3063 42.1297 63.234 39.8901 63.234 37.5548C63.234 35.2194 62.3063 32.9798 60.655 31.3285C59.0037 29.6772 56.764 28.7495 54.4287 28.7495Z" fill="#26036E"/>
<path d="M110.5 83.25C110.5 94.7514 100.94 104.096 89.1202 104.096C77.3007 104.096 67.7404 94.7514 67.7404 83.25C67.7404 71.7485 77.3007 62.4038 89.1202 62.4038C100.94 62.4038 110.5 71.7485 110.5 83.25Z" fill="url(#paint1_linear_558_3331)" stroke="#26036E"/>
<path d="M98.1923 78.9808V76.8461H96.0577V74.7115H98.1923V72.5769H100.327V74.7115H102.462V76.8461H100.327V78.9808H98.1923ZM81.1154 93.9231C80.5284 93.9231 80.026 93.7142 79.6084 93.2965C79.19 92.8782 78.9808 92.3755 78.9808 91.7884V78.9808C78.9808 78.3937 79.19 77.8914 79.6084 77.4737C80.026 77.0553 80.5284 76.8461 81.1154 76.8461H84.4774L86.4519 74.7115H92.8558V76.8461H87.3858L85.438 78.9808H81.1154V91.7884H98.1923V82.1827H100.327V91.7884C100.327 92.3755 100.118 92.8782 99.7004 93.2965C99.282 93.7142 98.7793 93.9231 98.1923 93.9231H81.1154ZM89.6538 90.1875C90.988 90.1875 92.1222 89.7207 93.0564 88.7872C93.99 87.8529 94.4567 86.7187 94.4567 85.3846C94.4567 84.0505 93.99 82.9163 93.0564 81.982C92.1222 81.0485 90.988 80.5817 89.6538 80.5817C88.3197 80.5817 87.1855 81.0485 86.2513 81.982C85.3177 82.9163 84.851 84.0505 84.851 85.3846C84.851 86.7187 85.3177 87.8529 86.2513 88.7872C87.1855 89.7207 88.3197 90.1875 89.6538 90.1875ZM89.6538 88.0529C88.9067 88.0529 88.2752 87.7949 87.7594 87.2791C87.2435 86.7632 86.9856 86.1317 86.9856 85.3846C86.9856 84.6375 87.2435 84.006 87.7594 83.4901C88.2752 82.9743 88.9067 82.7163 89.6538 82.7163C90.401 82.7163 91.0325 82.9743 91.5483 83.4901C92.0642 84.006 92.3221 84.6375 92.3221 85.3846C92.3221 86.1317 92.0642 86.7632 91.5483 87.2791C91.0325 87.7949 90.401 88.0529 89.6538 88.0529Z" fill="#26036E"/>
<defs>
<linearGradient id="paint0_linear_558_3331" x1="1.3203e-06" y1="8.53846" x2="102.462" y2="99.2596" gradientUnits="userSpaceOnUse">
<stop stop-color="#DAE2FE"/>
<stop offset="1" stop-color="#6928F3"/>
</linearGradient>
<linearGradient id="paint1_linear_558_3331" x1="83.7836" y1="114.736" x2="111.188" y2="75.9118" gradientUnits="userSpaceOnUse">
<stop stop-color="#8759F6"/>
<stop offset="1" stop-color="white"/>
</linearGradient>
</defs>
</svg>
